<svg xmlns="http://www.w3.org/2000/svg" viewBox="0 0 64 64">
	<defs>
		<linearGradient id="a" x1="16.5" y1="19.67" x2="21.5" y2="28.33" gradientUnits="userSpaceOnUse">
			<stop offset="0" stop-color="#fbbf24"/>
			<stop offset="0.45" stop-color="#fbbf24"/>
			<stop offset="1" stop-color="#f59e0b"/>
		</linearGradient>
		<linearGradient id="b" x1="22.56" y1="21.96" x2="39.2" y2="50.8" gradientUnits="userSpaceOnUse">
			<stop offset="0" stop-color="#f3f7fe"/>
			<stop offset="0.45" stop-color="#f3f7fe"/>
			<stop offset="1" stop-color="#deeafb"/>
		</linearGradient>
	</defs>
	<circle cx="19" cy="24" r="5" stroke="#f8af18" stroke-miterlimit="10" stroke-width="0.5" fill="url(#a)"/>
	<path d="M19,15.67V12.5m0,23V32.33m5.89-14.22,2.24-2.24M10.87,32.13l2.24-2.24m0-11.78-2.24-2.24M27.13,32.13l-2.24-2.24M7.5,24h3.17M30.5,24H27.33" fill="none" stroke="#fbbf24" stroke-linecap="round" stroke-miterlimit="10" stroke-width="2">
		<animateTransform attributeName="transform" type="rotate" values="0 19 24; 360 19 24" dur="45s" repeatCount="indefinite"/>
	</path>
	<path d="M46.5,31.5l-.32,0a10.49,10.49,0,0,0-19.11-8,7,7,0,0,0-10.57,6,7.21,7.21,0,0,0,.1,1.14A7.5,7.5,0,0,0,18,45.5a4.19,4.19,0,0,0,.5,0v0h28a7,7,0,0,0,0-14Z" stroke="#e6effc" stroke-miterlimit="10" stroke-width="0.5" fill="url(#b)"/>

	<line x1="24.39" y1="43.03" x2="23.61" y2="47.97" fill="none" stroke-linecap="round" stroke-miterlimit="10" stroke-width="2" stroke="#4286ee">
		<animateTransform attributeName="transform" type="translate" values="1 -5; -2 10" dur="0.7s" repeatCount="indefinite"/>
		<animate attributeName="opacity" values="0;1;1;0" dur="0.7s" repeatCount="indefinite"/>
	</line>
	<line x1="31.39" y1="43.03" x2="30.61" y2="47.97" fill="none" stroke-linecap="round" stroke-miterlimit="10" stroke-width="2" stroke="#4286ee">
		<animateTransform attributeName="transform" begin="-0.4s" type="translate" values="1 -5; -2 10" dur="0.7s" repeatCount="indefinite"/>
		<animate attributeName="opacity" begin="-0.4s" values="0;1;1;0" dur="0.7s" repeatCount="indefinite"/>
	</line>
	<line x1="38.39" y1="43.03" x2="37.61" y2="47.97" fill="none" stroke-linecap="round" stroke-miterlimit="10" stroke-width="2" stroke="#4286ee">
		<animateTransform attributeName="transform" begin="-0.2s" type="translate" values="1 -5; -2 10" dur="0.7s" repeatCount="indefinite"/>
		<animate attributeName="opacity" begin="-0.2s" values="0;1;1;0" dur="0.7s" repeatCount="indefinite"/>
	</line>

	<path d="M73.64,45a5,5,0,1,1,3.61,8.46H41.75" fill="none" stroke-dasharray="35 22" stroke-linecap="round" stroke-miterlimit="10" stroke-width="2" stroke="#d4d7dd" transform="scale(0.7)">
		<animate attributeName="stroke-dashoffset" values="-57; 57" dur="2.1s" repeatCount="indefinite"/>
	</path>
	<path d="M69.14,69a5,5,0,1,0,3.61-8.46h-21" fill="none" stroke-dasharray="24 15" stroke-linecap="round" stroke-miterlimit="10" stroke-width="2" stroke="#bec1c6" transform="scale(0.7)">
		<animate attributeName="stroke-dashoffset" values="-39; 39" dur="2.1s" begin="-.525s" repeatCount="indefinite"/>
	</path>
</svg>
