<svg xmlns="http://www.w3.org/2000/svg" viewBox="0 0 500 500"><g id="freepik--background-complete--inject-2"><path d="M99.5,466.16C116.34,460,124.29,442.5,128,425.9c.62-2.77,1.67-5.59,1-8.33s-3.37-5.19-6.16-4.68c-2.31.43-3.82,2.57-5.48,4.24a16.72,16.72,0,0,1-8.11,4.48c-2,.45-4.34.44-5.85-1-2.06-1.92-1.51-5.27-.78-8l4-15.24a25.83,25.83,0,0,0,1.25-8.33c-.19-2.81-1.47-5.71-3.92-7.12s-6.09-.74-7.33,1.79a25.75,25.75,0,0,0-1,3.39c-.37,1.11-1.23,2.23-2.4,2.26s-2.1-1-2.72-2c-2.15-3.49-3.17-7.54-4.07-11.54s-1.74-8.07-3.55-11.74-4.79-7-8.7-8.22-8.75.09-10.74,3.68-.73,8.08.95,11.83a63.25,63.25,0,0,0,9.75,15.41,5.2,5.2,0,0,1,1.56,2.83c.13,2-2.08,3.34-4.06,3.47-2.23.15-4.42-.64-6.64-.94s-4.8,0-6.14,1.84c-1.85,2.5-.24,6,1.6,8.55a54.79,54.79,0,0,0,13.37,12.94c1.84,1.26,3.82,2.45,5.1,4.29s1.64,4.54.15,6.21-4.19,1.63-6.22.69-3.65-2.57-5.49-3.85c-3.44-2.39-8.42-3.39-11.69-.77a8.81,8.81,0,0,0-2.9,7.4,20.53,20.53,0,0,0,2.46,7.83A54.87,54.87,0,0,0,73.9,458.87c8,5.29,16,8.2,25.6,7.29" style="fill:#ebebeb"></path><path d="M98.28,466.21c-.32-8.93-2-30.16-3.54-40.34q-.61-3.81-1.2-7.53c-.4-2.47-.79-4.92-1.33-7.29a128,128,0,0,0-3.86-13.47c-1.44-4.23-3-8.19-4.41-11.88s-2.89-7.11-4.32-10.17A101.47,101.47,0,0,0,71.8,361.6c-1-1.57-1.91-2.77-2.49-3.57l-.68-.9a2.62,2.62,0,0,0-.24-.3,3.57,3.57,0,0,0,.21.32c.15.23.36.54.64.93.56.82,1.39,2,2.42,3.61a104.87,104.87,0,0,1,7.69,14c1.41,3.06,2.81,6.47,4.26,10.17s2.94,7.65,4.36,11.88a125.63,125.63,0,0,1,3.83,13.43c.53,2.36.92,4.79,1.32,7.27s.79,5,1.19,7.53c1.58,10.17,3.24,31.37,3.58,40.28" style="fill:#e0e0e0"></path><path d="M92.12,411a7.88,7.88,0,0,0,.55-1.1c.33-.72.79-1.78,1.33-3.09,1.08-2.62,2.46-6.29,4-10.34s3-7.69,4.09-10.29c.56-1.3,1-2.34,1.37-3.06a6,6,0,0,0,.47-1.14,8.81,8.81,0,0,0-.62,1.07c-.38.69-.9,1.72-1.5,3-1.21,2.57-2.7,6.2-4.21,10.26s-2.83,7.65-3.84,10.38l-1.2,3.13A5.89,5.89,0,0,0,92.12,411Z" style="fill:#e0e0e0"></path><path d="M58.22,395.28s.12.07.35.16l1,.36c.89.3,2.19.75,3.77,1.35,3.18,1.17,7.5,3,12.19,5.13s8.83,4.35,11.78,6c1.48.82,2.67,1.51,3.49,2l.94.54a1.56,1.56,0,0,0,.35.17,1.71,1.71,0,0,0-.3-.24l-.91-.61c-.79-.52-2-1.26-3.42-2.11-2.92-1.72-7.06-3.93-11.75-6.12a132,132,0,0,0-12.26-5c-1.6-.57-2.92-1-3.83-1.23l-1.06-.29A1.48,1.48,0,0,0,58.22,395.28Z" style="fill:#e0e0e0"></path><path d="M97.58,454a2.25,2.25,0,0,0,.34-.37l.93-1.12c.81-1,1.93-2.41,3.3-4.21,2.75-3.58,6.39-8.65,10.33-14.3s7.54-10.74,10.22-14.37c1.33-1.78,2.41-3.23,3.19-4.29l.87-1.16a2.64,2.64,0,0,0,.28-.43,2.52,2.52,0,0,0-.35.37l-.93,1.12c-.8,1-1.93,2.41-3.3,4.21-2.74,3.59-6.38,8.66-10.33,14.31s-7.54,10.73-10.22,14.36l-3.19,4.29c-.35.48-.64.86-.86,1.17A2.11,2.11,0,0,0,97.58,454Z" style="fill:#e0e0e0"></path><path d="M54.16,426.8s.14.12.42.31l1.26.8,4.66,2.9c3.93,2.46,9.31,5.92,15.25,9.76s11.36,7.27,15.33,9.66c2,1.2,3.6,2.16,4.73,2.79.53.3,1,.55,1.3.73s.46.25.47.23a3.82,3.82,0,0,0-.43-.3l-1.26-.8L91.23,450c-3.92-2.46-9.31-5.93-15.25-9.77S64.63,433,60.66,430.56c-2-1.2-3.6-2.16-4.73-2.8-.54-.29-1-.54-1.3-.73Z" style="fill:#e0e0e0"></path><path d="M349.54,143.72a16,16,0,0,0,.18,3.52,17.07,17.07,0,0,0-4.62-4.38,36.31,36.31,0,0,0-9.6-3.8l-.3-.08c.74,4.29,2.16,8.21,4.62,11.13a15.68,15.68,0,0,0,1.67,1.69c-.74.09-1.49.19-2.23.32-5,.85-12.31,4.25-15.89,5.86a42.85,42.85,0,0,0,17.88,4.91l1.14,0a15.36,15.36,0,0,0-1.88,2.42,36.39,36.39,0,0,0-3.81,9.59c0,.1-.05.2-.08.31a23.2,23.2,0,0,0,11.12-4.63,16.29,16.29,0,0,0,3.4-4,15.29,15.29,0,0,0,.34,2.61,21.48,21.48,0,0,0,4.79,9c0-.08.05-.17.08-.25a35.29,35.29,0,0,0,1.89-8.65,18.29,18.29,0,0,0-1.64-8.26,51.39,51.39,0,0,0-2.7-4.87h0a53.61,53.61,0,0,0,1.94-5.21,18.34,18.34,0,0,0,.37-8.42,35,35,0,0,0-3.17-8.26l-.12-.24A21.47,21.47,0,0,0,349.54,143.72Z" style="fill:#f5f5f5"></path><path d="M365.27,154.36c0,.14-6.3,1.11-14.12,2.17s-14.18,1.8-14.2,1.66,6.31-1.11,14.13-2.17S365.25,154.21,365.27,154.36Z" style="fill:#e0e0e0"></path><path d="M350.29,156.43a17.57,17.57,0,0,1-3.18,5.09,17.57,17.57,0,0,1,3.18-5.09Z" style="fill:#e0e0e0"></path><path d="M347.31,157.09c-.12.09-.77-.66-1.61-1.52s-1.57-1.53-1.48-1.65,1,.38,1.85,1.28S347.42,157,347.31,157.09Z" style="fill:#e0e0e0"></path><path d="M63.13,239.55a13.15,13.15,0,0,0,1,2.67,13.74,13.74,0,0,0-4.67-2.2,29.55,29.55,0,0,0-8.34-.5H50.9a18.76,18.76,0,0,0,6.37,7.4,12.56,12.56,0,0,0,1.71.88c-.55.25-1.1.52-1.64.81C53.72,250.54,49,255,46.6,257.15a34.68,34.68,0,0,0,15-.75l.88-.26a13.79,13.79,0,0,0-.83,2.34,29.55,29.55,0,0,0-.5,8.34c0,.09,0,.17,0,.26a18.83,18.83,0,0,0,7.39-6.38,12.76,12.76,0,0,0,1.6-3.93,13.08,13.08,0,0,0,.93,1.92,17.35,17.35,0,0,0,6,5.73v-.22a28.13,28.13,0,0,0-.73-7.13A15,15,0,0,0,73,251.13a42.83,42.83,0,0,0-3.31-3.06h0c.09-2.41.26-3,.17-4.51A15.08,15.08,0,0,0,68,237a28.08,28.08,0,0,0-4.54-5.55l-.15-.16A17.45,17.45,0,0,0,63.13,239.55Z" style="fill:#f5f5f5"></path><path d="M77.93,243.76c.06.13-4.55,2.5-10.3,5.29s-10.46,5-10.52,4.83,4.54-2.5,10.29-5.3S77.86,243.63,77.93,243.76Z" style="fill:#e0e0e0"></path><path d="M66.92,249.14a5.85,5.85,0,0,1-.32,2.43,6,6,0,0,1-.83,2.3,5.85,5.85,0,0,1,.32-2.43A6,6,0,0,1,66.92,249.14Z" style="fill:#e0e0e0"></path><path d="M64.8,250.41c-.09.12-.79-.28-1.65-.72s-1.58-.8-1.54-.94.87,0,1.78.47S64.88,250.3,64.8,250.41Z" style="fill:#e0e0e0"></path><path d="M136.08,284.46s14.75,1.49,15.59-14.25C151.67,270.21,136.17,270.19,136.08,284.46Z" style="fill:#f5f5f5"></path><path d="M155,266.89a87.07,87.07,0,0,1-6.81,6.64,85,85,0,0,1-7.16,6.26,89.28,89.28,0,0,1,6.81-6.64A84.58,84.58,0,0,1,155,266.89Z" style="fill:#e0e0e0"></path><path d="M141.07,276.44c0-.14.82-.33,1.87-.42s1.9,0,1.91.1-.82.33-1.87.42S141.08,276.59,141.07,276.44Z" style="fill:#e0e0e0"></path><path d="M148.52,272.73a4.23,4.23,0,0,1-.07,2c-.18,1.12-.44,2-.58,2a4.29,4.29,0,0,1,.07-2.06C148.12,273.59,148.38,272.7,148.52,272.73Z" style="fill:#e0e0e0"></path><path d="M125.13,396.7s24.79,2.49,26.19-23.95C151.32,372.75,125.28,372.73,125.13,396.7Z" style="fill:#f5f5f5"></path><path d="M156.83,367.17c.1.11-5.07,5.05-11.55,11S133.47,389,133.37,388.85s5.08-5,11.56-11S156.74,367.06,156.83,367.17Z" style="fill:#e0e0e0"></path><path d="M133.51,383.23a9.71,9.71,0,0,1,3.15-.53,10.15,10.15,0,0,1,3.21,0,10.23,10.23,0,0,1-3.16.53A10.05,10.05,0,0,1,133.51,383.23Z" style="fill:#e0e0e0"></path><path d="M146,377a23.28,23.28,0,0,1-1.1,6.77,11.64,11.64,0,0,1,.29-3.42A11.15,11.15,0,0,1,146,377Z" style="fill:#e0e0e0"></path><path d="M44.19,422.71c-.11-.09,4.3-5.57,9.85-12.23s10.14-12,10.25-11.89-4.3,5.56-9.85,12.23S44.3,422.8,44.19,422.71Z" style="fill:#e0e0e0"></path><path d="M444.81,260.19c-.11-.1,4.3-5.57,9.85-12.23s10.14-12,10.25-11.9-4.3,5.57-9.85,12.23S444.92,260.28,444.81,260.19Z" style="fill:#e0e0e0"></path><path d="M270.12,450.24c-.11-.09,4.3-5.56,9.85-12.22s10.14-12,10.25-11.9-4.3,5.57-9.85,12.23S270.23,450.34,270.12,450.24Z" style="fill:#e0e0e0"></path><path d="M388.23,216.44c-.12-.09,4.3-5.56,9.85-12.22s10.14-12,10.25-11.9-4.3,5.57-9.85,12.23S388.34,216.54,388.23,216.44Z" style="fill:#e0e0e0"></path><path d="M411.68,367c-.11-.09,4.3-5.57,9.86-12.23s10.14-12,10.25-11.89-4.3,5.56-9.85,12.23S411.79,367.12,411.68,367Z" style="fill:#e0e0e0"></path><path d="M73.28,122.37c-.11-.09,4.3-5.56,9.86-12.23s10.14-12,10.25-11.89-4.3,5.57-9.85,12.23S73.39,122.46,73.28,122.37Z" style="fill:#e0e0e0"></path><path d="M168.83,122.37c-.11-.09,4.3-5.56,9.85-12.23s10.14-12,10.25-11.89-4.3,5.57-9.85,12.23S168.94,122.46,168.83,122.37Z" style="fill:#e0e0e0"></path><path d="M69.88,211.06c-.11-.09,4.3-5.57,9.85-12.23s10.14-12,10.25-11.89-4.3,5.56-9.85,12.22S70,211.15,69.88,211.06Z" style="fill:#e0e0e0"></path><path d="M70.38,320.62c-.11-.09,4.3-5.57,9.85-12.23s10.14-12,10.25-11.89-4.3,5.56-9.85,12.23S70.49,320.71,70.38,320.62Z" style="fill:#e0e0e0"></path><path d="M166.23,456.23c-.11-.09,4.3-5.56,9.85-12.22s10.14-12,10.25-11.9-4.3,5.57-9.85,12.23S166.34,456.33,166.23,456.23Z" style="fill:#e0e0e0"></path><path d="M153,56.64c-.11-.09,4.3-5.56,9.85-12.22s10.14-12,10.25-11.9-4.3,5.57-9.85,12.23S153.11,56.74,153,56.64Z" style="fill:#e0e0e0"></path><path d="M448.39,88.18c-.11-.1,4.3-5.57,9.85-12.23s10.14-12,10.25-11.9-4.3,5.57-9.85,12.23S448.5,88.27,448.39,88.18Z" style="fill:#e0e0e0"></path><path d="M360.3,102.5c-.11-.1,4.3-5.57,9.85-12.23s10.14-12,10.26-11.9-4.3,5.57-9.86,12.23S360.41,102.59,360.3,102.5Z" style="fill:#e0e0e0"></path><path d="M281.21,56.64c-.11-.09,4.3-5.56,9.85-12.22s10.14-12,10.25-11.9-4.3,5.57-9.85,12.23S281.32,56.74,281.21,56.64Z" style="fill:#e0e0e0"></path></g><g id="freepik--Floor--inject-2"><path d="M474.64,467.47c0,.14-100.58.26-224.63.26s-224.65-.12-224.65-.26,100.56-.26,224.65-.26S474.64,467.32,474.64,467.47Z" style="fill:#263238"></path></g><g id="freepik--Character--inject-2"><path d="M317.33,123.34s-49.64-39.66-107-13.7-53.61,96.84-53.61,96.84,9.75-7.63,24.92-2.5c0,0,2.81-21.32,25.54-16,0,0,15.47-25.15,39.37-14.16,0,0,8.15-23.32,37.9-15.88C284.4,157.93,295.05,131.55,317.33,123.34Z" style="fill:#F97F29"></path><g style="opacity:0.4"><path d="M317.33,123.34s-49.64-39.66-107-13.7-53.61,96.84-53.61,96.84,9.75-7.63,24.92-2.5c0,0,2.81-21.32,25.54-16,0,0,15.47-25.15,39.37-14.16,0,0,8.15-23.32,37.9-15.88C284.4,157.93,295.05,131.55,317.33,123.34Z"></path></g><path d="M343.94,282.75l.31.31c.52.07,1.08.13,1.7.18a8.28,8.28,0,0,0,2.76-.26,12.74,12.74,0,0,0,3.23-1.22,1.07,1.07,0,0,1,1.71,1.08c-.32.91-2.69,2.63-6.07,3.21s1.33,3.22,3,4.21,6.8,4.3,6.91,5.06c.15,1.12-1,1.5-2.68.47s-6.9-3.76-7.38-2.84,8.23,5.83,8.23,5.83,2,.75,1.51,1.83c-.94,1.95-9.8-4-10.63-4.55-.58-.4-1.13.58-.49,1s8.79,4.71,7.85,6.7c-.72,1.53-7.33-4.79-9.51-4.75s5.5,4.29,4.76,5.72c-.28.54-.56.9-4.62-2.18a118.68,118.68,0,0,1-9.43-8.77Z" style="fill:#ffbe9d"></path><polygon points="295.7 196.06 314.28 260.36 345.22 281.84 335.17 296.44 292.96 268.4 279.24 203.75 295.7 196.06" style="fill:#F97F29"></polygon><path d="M303.63,245.74c-4.86,22.31,2,45.34,9.32,67s15.11,44.13,12.12,66.76l-26,6.35L278,285.47l17.9-43Z" style="fill:#F97F29"></path><path d="M305.11,241.87a2.82,2.82,0,0,1-.09.5c-.1.38-.21.84-.35,1.39s-.35,1.35-.53,2.21-.43,1.85-.6,2.95a71.79,71.79,0,0,0-1,7.76,83.85,83.85,0,0,0-.08,9.57,117.17,117.17,0,0,0,2.23,17.26c.44,2.18.82,3.95,1.1,5.17l.3,1.4a2.71,2.71,0,0,1,.07.5,1.49,1.49,0,0,1-.17-.47l-.4-1.38c-.34-1.21-.77-3-1.26-5.15A103.69,103.69,0,0,1,302,266.27a78.14,78.14,0,0,1,.12-9.63,63.57,63.57,0,0,1,1.09-7.79c.2-1.1.45-2.08.67-2.94s.42-1.61.62-2.2l.45-1.37A2,2,0,0,1,305.11,241.87Z" style="fill:#263238"></path><path d="M308.25,264.68a6.43,6.43,0,0,1,6-4.13,18.49,18.49,0,0,0-3.33,1.57A19.09,19.09,0,0,0,308.25,264.68Z" style="fill:#263238"></path><path d="M212.55,425.21c0-1,44.3-64,44.3-64l24.47,9.38L225.5,434.83Z" style="fill:#455a64"></path><path d="M212.55,425.21l-.4.51-7.6,9.92-9.41,6.45,12.6,24.27h13.89s-1-3.33-7.68-5.06L213.51,448l12-13.16" style="fill:#F97F29"></path><polygon points="195.14 442.09 207.74 466.36 221.63 466.37 220.07 464.29 208.78 463.65 197.14 440.72 195.14 442.09" style="fill:#fff;opacity:0.6000000000000001"></polygon><path d="M213.86,455.21c-.1.14-.9-.31-2-.28s-1.86.47-2,.33.65-.93,2-.94S214,455.1,213.86,455.21Z" style="fill:#263238"></path><path d="M213.64,451.91c-.14.09-.76-.73-1.86-.94s-2,.29-2.09.14.12-.29.51-.5a2.5,2.5,0,0,1,1.7-.24,2.6,2.6,0,0,1,1.47.87C213.65,451.59,213.71,451.87,213.64,451.91Z" style="fill:#263238"></path><path d="M213.73,447.66c-.15.08-.62-.72-1.59-1.06s-1.83,0-1.9-.17.13-.27.52-.41a2.42,2.42,0,0,1,2.82,1C213.79,447.37,213.8,447.63,213.73,447.66Z" style="fill:#263238"></path><path d="M217.45,444.37c-.16.06-.55-.73-1.42-1.28s-1.72-.65-1.73-.82,1-.4,2.07.31S217.62,444.36,217.45,444.37Z" style="fill:#263238"></path><path d="M219.26,441.53c-.07,0-.52-.51-1.21-1.45-.38-.55-.77-1.11-1.17-1.67a4.47,4.47,0,0,1-.64-1.12,1.11,1.11,0,0,1,.08-.85.85.85,0,0,1,.84-.43,2.56,2.56,0,0,1,1.3.67,4.71,4.71,0,0,1,.84,1,5,5,0,0,1,.73,2,2.6,2.6,0,0,1-.32,1.9,16.38,16.38,0,0,0-.11-1.83,4.82,4.82,0,0,0-.77-1.75,4.18,4.18,0,0,0-.76-.82,2.2,2.2,0,0,0-1-.53.26.26,0,0,0-.26.13.56.56,0,0,0,0,.39,5,5,0,0,0,.54,1l1.06,1.74A5.86,5.86,0,0,1,219.26,441.53Z" style="fill:#263238"></path><path d="M219.76,441.94c-.07,0,0-.73.74-1.57a3.48,3.48,0,0,1,4.12-.74.68.68,0,0,1,.21.5.8.8,0,0,1-.17.44,2.4,2.4,0,0,1-.49.44,6.12,6.12,0,0,1-1,.55,6,6,0,0,1-1.82.51,2.77,2.77,0,0,1-1.72-.16c0-.1.66-.05,1.65-.26a7,7,0,0,0,1.65-.59,7,7,0,0,0,.88-.54,2,2,0,0,0,.36-.31c.06-.12,0-.09,0-.13a1.07,1.07,0,0,0-.4-.15,4.5,4.5,0,0,0-.51-.08,4,4,0,0,0-1,.07,3.48,3.48,0,0,0-1.5.76C220.06,441.34,219.85,442,219.76,441.94Z" style="fill:#263238"></path><path d="M206.21,441.68a1.65,1.65,0,1,1-1.65-1.65A1.65,1.65,0,0,1,206.21,441.68Z" style="fill:#fff;opacity:0.6000000000000001"></path><path d="M220.23,425.07a8,8,0,0,1-.59-2.81,8.26,8.26,0,0,1-.07-2.88,15.84,15.84,0,0,1,.66,5.69Z" style="fill:#fafafa"></path><path d="M233.54,417.91a12.35,12.35,0,0,1-3.23,1.57,12.08,12.08,0,0,1-3.43,1.09,12.74,12.74,0,0,1,3.24-1.57A12.17,12.17,0,0,1,233.54,417.91Z" style="fill:#fafafa"></path><path d="M227.6,429.58a9.73,9.73,0,0,1-1.06-4.4,5.36,5.36,0,0,1,.78,2.14A5.22,5.22,0,0,1,227.6,429.58Z" style="fill:#fafafa"></path><path d="M228.59,413.16a4,4,0,0,1-.73-2.25,3.91,3.91,0,0,1,.21-2.36,9.64,9.64,0,0,1,.31,2.3A8.94,8.94,0,0,1,228.59,413.16Z" style="fill:#fafafa"></path><path d="M239,404.79a24.74,24.74,0,0,1-3,2.22,23.66,23.66,0,0,1-3,2.18,9.62,9.62,0,0,1,2.71-2.6A9.25,9.25,0,0,1,239,404.79Z" style="fill:#fafafa"></path><path d="M238.68,415.41a5.59,5.59,0,0,1-.64-2.65,5.69,5.69,0,0,1,.21-2.71,37.9,37.9,0,0,1,.43,5.36Z" style="fill:#fafafa"></path><path d="M238.35,397.26a8.38,8.38,0,0,1-2.52,1.42,8.1,8.1,0,0,1-2.73.95,8.15,8.15,0,0,1,2.52-1.42A7.84,7.84,0,0,1,238.35,397.26Z" style="fill:#fafafa"></path><path d="M245.76,403.18a20.65,20.65,0,0,1-1.42-6.45,10.49,10.49,0,0,1,1,3.17A10.88,10.88,0,0,1,245.76,403.18Z" style="fill:#fafafa"></path><path d="M250.57,400.71c-.14,0,0-.93.2-2s.57-1.9.71-1.86.05.92-.2,2S250.71,400.74,250.57,400.71Z" style="fill:#fafafa"></path><polygon points="292.14 365.72 326.72 441.06 344.61 441.06 320.52 363.34 292.14 365.72" style="fill:#455a64"></polygon><path d="M326.35,440.11,336.8,467l33.55-12.82c-1.42-3.13-21.24-2.93-21.24-2.93l-6-17.5Z" style="fill:#F97F29"></path><g style="opacity:0.6000000000000001"><path d="M338.18,453.77a1.46,1.46,0,0,0-.35,1.92,1.41,1.41,0,0,0,1.91.36,1.55,1.55,0,0,0,.36-2,1.47,1.47,0,0,0-2-.16" style="fill:#fff"></path></g><path d="M336.8,467l-.95-2.75L368.38,453s1.74.08,2,1.2Z" style="fill:#fff;opacity:0.6000000000000001"></path><path d="M349.59,450.88c.06.16-.73.55-1.34,1.38s-.77,1.69-.94,1.68-.3-1,.45-2S349.57,450.71,349.59,450.88Z" style="fill:#263238"></path><path d="M353.67,451c.1.14-.51.69-.8,1.59s-.17,1.7-.34,1.76-.62-.83-.24-1.95S353.6,450.83,353.67,451Z" style="fill:#263238"></path><path d="M357.28,454.43c-.14.09-.68-.64-.6-1.7s.7-1.7.83-1.59-.17.77-.22,1.64S357.43,454.35,357.28,454.43Z" style="fill:#263238"></path><path d="M347.78,447c0,.17-.85.23-1.75.65s-1.51,1-1.65.88.33-1,1.4-1.44S347.81,446.88,347.78,447Z" style="fill:#263238"></path><path d="M345.46,443.37a3.47,3.47,0,0,1-1.68.63,8,8,0,0,1-2,.13,8.14,8.14,0,0,1-1.16-.14,2.3,2.3,0,0,1-.66-.2.77.77,0,0,1-.4-.85.93.93,0,0,1,.57-.64,2.25,2.25,0,0,1,.66-.16,6.86,6.86,0,0,1,1.19,0,6.33,6.33,0,0,1,1.93.43c1.06.42,1.56.93,1.51,1s-.62-.28-1.64-.58a7.78,7.78,0,0,0-1.83-.27,8,8,0,0,0-1.07.07c-.4,0-.7.16-.73.35s0,.1.11.18a2,2,0,0,0,.48.14,8.91,8.91,0,0,0,1.08.17,9.69,9.69,0,0,0,1.87,0A11.52,11.52,0,0,1,345.46,443.37Z" style="fill:#263238"></path><path d="M345.34,443.68c0,.05-.6-.41-1.07-1.45a6.2,6.2,0,0,1-.47-1.93,5.26,5.26,0,0,1,0-1.18,1.49,1.49,0,0,1,.75-1.26.85.85,0,0,1,.88.2,2.62,2.62,0,0,1,.4.55,3.78,3.78,0,0,1,.44,1.13,4.05,4.05,0,0,1-.06,2c-.32,1.12-.93,1.58-1,1.53a16.58,16.58,0,0,0,.54-1.62,4,4,0,0,0-.07-1.78,3.21,3.21,0,0,0-.4-1c-.19-.34-.43-.58-.55-.49s-.35.44-.38.78a5.55,5.55,0,0,0-.07,1.07,6.09,6.09,0,0,0,.32,1.79C345,443.08,345.42,443.62,345.34,443.68Z" style="fill:#263238"></path><path d="M320.77,415.31a5.38,5.38,0,0,1-2.33-1c-1.2-.72-2.05-1.49-2-1.6a7.75,7.75,0,0,1,2.22,1.15C319.88,414.59,320.83,415.17,320.77,415.31Z" style="fill:#fafafa"></path><path d="M324.74,412.84a3.88,3.88,0,0,1,.26-2.29c.39-1.22,1-2.08,1.13-2a8.31,8.31,0,0,1-.63,2.17A7.88,7.88,0,0,1,324.74,412.84Z" style="fill:#fafafa"></path><path d="M332.46,412.84a6.92,6.92,0,0,1-1.57-2.18,7,7,0,0,1-1.11-2.44,7,7,0,0,1,1.56,2.18A7.31,7.31,0,0,1,332.46,412.84Z" style="fill:#fafafa"></path><path d="M329.33,420.13a5.3,5.3,0,0,1-.16-2.32,5.37,5.37,0,0,1,.35-2.29,5.21,5.21,0,0,1,.17,2.32A5.46,5.46,0,0,1,329.33,420.13Z" style="fill:#fafafa"></path><path d="M325.16,420.47a5,5,0,0,1-2.31-.51c-1.22-.45-2.13-1-2.07-1.14a6.58,6.58,0,0,1,2.25.66A6.33,6.33,0,0,1,325.16,420.47Z" style="fill:#fafafa"></path><path d="M328.77,423.41c.1.1-.66,1-1.7,2s-1.95,1.75-2.05,1.64.65-1,1.69-2A6.89,6.89,0,0,1,328.77,423.41Z" style="fill:#fafafa"></path><path d="M334,423.46a4.58,4.58,0,0,1,.32-2.32c.37-1.23.89-2.16,1-2.1a7,7,0,0,1-.52,2.26A6.81,6.81,0,0,1,334,423.46Z" style="fill:#fafafa"></path><path d="M332.13,431.84c-.1.1-.93-.59-1.85-1.54s-1.58-1.8-1.47-1.9.93.59,1.85,1.54S332.24,431.74,332.13,431.84Z" style="fill:#fafafa"></path><path d="M336.42,433.12a6.46,6.46,0,0,1,.29-2.95,6.38,6.38,0,0,1,1.15-2.73,13.37,13.37,0,0,1-.64,2.86A13,13,0,0,1,336.42,433.12Z" style="fill:#fafafa"></path><path d="M328.9,436.25c-.1.1-.88-.58-1.72-1.51s-1.45-1.76-1.35-1.86.88.58,1.73,1.51S329,436.15,328.9,436.25Z" style="fill:#fafafa"></path><path d="M298.2,269.4h0c.53-6.84,1.54-14.53,4.89-19.58,2.82-4.24,3.06-7.42,2.82-9.37.71-7.4-5.23-12-6.07-19.51-.93-10.84-.89-16.84-5.61-18.06l-25.48-1.06s-21.1-.75-15.05,31.53L263.43,264l3.84,2.48c-5.31,3.94-17.21,15.12-20.84,38.31-4.72,30.14-20,96.38-20,96.38s22.32-10.38,42.14,0,41.68,14.62,54.83,8.49,13.18-8.49,13.18-8.49Z" style="fill:#263238"></path><path d="M260.82,274.86s-.05.1-.17.27l-.57.73c-.52.63-1.21,1.61-2.07,2.89a43.33,43.33,0,0,0-5.19,11.92,74,74,0,0,0-2.36,19.18c-.09,7.3.55,15.33.54,23.79a89.86,89.86,0,0,1-.79,12.33,86.86,86.86,0,0,1-2.37,11.27,133.15,133.15,0,0,1-6.75,18.25c-2.26,5.06-4.26,9.07-5.64,11.84l-1.62,3.18-.44.82a1.34,1.34,0,0,1-.17.27,1,1,0,0,1,.12-.3l.38-.85c.36-.78.87-1.85,1.51-3.22,1.32-2.8,3.26-6.84,5.47-11.91a139.31,139.31,0,0,0,6.6-18.23,85.19,85.19,0,0,0,3.09-23.45c0-8.43-.61-16.46-.49-23.8a73.08,73.08,0,0,1,2.5-19.28,41.94,41.94,0,0,1,5.41-11.94A27.23,27.23,0,0,1,260.82,274.86Z" style="fill:#263238"></path><path d="M289.82,328.81a2.82,2.82,0,0,1,.1.62c.05.46.11,1,.19,1.77s.17,1.71.2,2.81.13,2.35.11,3.74,0,2.9-.11,4.53-.23,3.36-.4,5.18a94.82,94.82,0,0,1-2.11,11.73,92.67,92.67,0,0,1-3.69,11.34c-.71,1.69-1.36,3.3-2.09,4.76s-1.39,2.82-2,4-1.31,2.3-1.86,3.24S277,384.32,276.6,385l-1,1.47a3.45,3.45,0,0,1-.38.5,4,4,0,0,1,.29-.56l.92-1.52c.41-.65.9-1.46,1.43-2.42s1.17-2,1.78-3.27,1.33-2.57,2-4.05,1.34-3.07,2-4.76a90.77,90.77,0,0,0,5.76-22.94c.18-1.81.39-3.53.45-5.16s.15-3.12.17-4.5,0-2.63,0-3.73-.06-2-.11-2.81-.07-1.31-.09-1.78A2.47,2.47,0,0,1,289.82,328.81Z" style="fill:#455a64"></path><path d="M301.5,341.91a18.79,18.79,0,0,1-1.4,2.35c-.89,1.43-2.09,3.42-3.31,5.68s-2.19,4.37-2.88,5.9a18.16,18.16,0,0,1-1.18,2.47,12.37,12.37,0,0,1,.84-2.61,53.55,53.55,0,0,1,2.77-6,56,56,0,0,1,3.45-5.63A11.68,11.68,0,0,1,301.5,341.91Z" style="fill:#455a64"></path><path d="M289.9,272.08a29.62,29.62,0,0,0-11.24,11.48,7.82,7.82,0,0,1,1-2.21,22.29,22.29,0,0,1,3.5-4.67,22.06,22.06,0,0,1,4.59-3.59A7.66,7.66,0,0,1,289.9,272.08Z" style="fill:#455a64"></path><path d="M264,191.7c-4.33-1.52-9.07.63-12.8,3.3s-7.19,6-11.61,7.23c-5.42,1.52-11.15-.39-16.4-2.44s-10.74-4.31-16.31-3.48c-6.14.92-11.72,5.53-17.86,4.6l0,22.64c5-1.44,10-6,15.18-6.57a31.73,31.73,0,0,1,15.35,1.57c3.29,1.29,6.26,3.31,9.56,4.56a22.57,22.57,0,0,0,19-1.56c2.39-1.38,5.42-5.68,7.9-6.88s7.34-2.35,9.74-1" style="fill:#455a64"></path><path d="M190.37,210.66a6.64,6.64,0,0,0-2-.18,10.66,10.66,0,0,0-2.12.45,11.64,11.64,0,0,1-2.69.54,8.27,8.27,0,0,1-4.81-1.26,4.05,4.05,0,0,1-1.51-1.4c.06-.07.61.49,1.7,1.08a8.85,8.85,0,0,0,4.59,1.06,13,13,0,0,0,2.6-.48,9.28,9.28,0,0,1,2.22-.36A2.7,2.7,0,0,1,190.37,210.66Z" style="fill:#455a64"></path><path d="M190.37,219.92a6.64,6.64,0,0,0-2-.18,10.66,10.66,0,0,0-2.12.45,11.64,11.64,0,0,1-2.69.54,8.27,8.27,0,0,1-4.81-1.26,4.05,4.05,0,0,1-1.51-1.4c.06-.07.61.49,1.7,1.08a8.85,8.85,0,0,0,4.59,1.06,13,13,0,0,0,2.6-.48,9.28,9.28,0,0,1,2.22-.36A2.7,2.7,0,0,1,190.37,219.92Z" style="fill:#455a64"></path><path d="M189,223.33a10,10,0,0,0-1.77.29c-.54.14-1.18.33-1.9.54a7.49,7.49,0,0,1-2.48.32,8.19,8.19,0,0,1-4.26-1.38c-1-.66-1.38-1.25-1.33-1.29s.56.43,1.52,1a9.06,9.06,0,0,0,4.09,1.17,19.47,19.47,0,0,0,4.28-.7,5,5,0,0,1,1.37-.09C188.86,223.2,189,223.3,189,223.33Z" style="fill:#455a64"></path><path d="M190.37,201.69a7.08,7.08,0,0,0-2-.18,11.42,11.42,0,0,0-2.12.45,11.14,11.14,0,0,1-2.69.54,8.27,8.27,0,0,1-4.81-1.26c-1.09-.71-1.56-1.36-1.51-1.4s.61.49,1.7,1.08a8.76,8.76,0,0,0,4.59,1.06,13,13,0,0,0,2.6-.48,9.28,9.28,0,0,1,2.22-.36A2.76,2.76,0,0,1,190.37,201.69Z" style="fill:#455a64"></path><path d="M190.37,206a7.58,7.58,0,0,0-2-.18,10.75,10.75,0,0,0-2.12.46,12.19,12.19,0,0,1-2.69.54,8.26,8.26,0,0,1-4.81-1.27,4,4,0,0,1-1.51-1.39c.06-.07.61.48,1.7,1.08a8.85,8.85,0,0,0,4.59,1.06,13,13,0,0,0,2.6-.49,9.75,9.75,0,0,1,2.22-.35A2.73,2.73,0,0,1,190.37,206Z" style="fill:#455a64"></path><path d="M190.37,215.33a7.58,7.58,0,0,0-2-.18,10.75,10.75,0,0,0-2.12.46,12.19,12.19,0,0,1-2.69.54,8.26,8.26,0,0,1-4.81-1.27c-1.09-.7-1.56-1.36-1.51-1.4s.61.49,1.7,1.08a8.75,8.75,0,0,0,4.59,1.07,13,13,0,0,0,2.6-.49,9.22,9.22,0,0,1,2.22-.35A2.73,2.73,0,0,1,190.37,215.33Z" style="fill:#455a64"></path><path d="M198.74,219.09c-.09,0,.08-1.1-.17-2.83a35.5,35.5,0,0,0-1.92-6.56,17.93,17.93,0,0,1-1.27-6.83,7.93,7.93,0,0,1,.39-2.08,1.89,1.89,0,0,1,.34-.7,17.53,17.53,0,0,0-.36,2.8,20.15,20.15,0,0,0,1.39,6.64,28.5,28.5,0,0,1,1.79,6.69,9.6,9.6,0,0,1,0,2.11A2.08,2.08,0,0,1,198.74,219.09Z" style="fill:#fafafa"></path><path d="M212.27,196.45a2.66,2.66,0,0,1,.28.77c.15.5.33,1.24.51,2.17a33.73,33.73,0,0,1-.48,14.6,21.69,21.69,0,0,1-.65,2.13,2.73,2.73,0,0,1-.33.75,29.4,29.4,0,0,1,.62-3,42.39,42.39,0,0,0,.88-7.21,42.88,42.88,0,0,0-.41-7.24A26,26,0,0,1,212.27,196.45Z" style="fill:#fafafa"></path><path d="M233,224.37a3.07,3.07,0,0,1-.51-.75,18,18,0,0,1-1.11-2.19,28.13,28.13,0,0,1-2-15.93,18.67,18.67,0,0,1,.55-2.39,3.3,3.3,0,0,1,.31-.85c.09,0-.23,1.26-.5,3.3a33.26,33.26,0,0,0,0,8,32.38,32.38,0,0,0,2,7.75C232.49,223.2,233.1,224.32,233,224.37Z" style="fill:#fafafa"></path><path d="M248.87,196.43a9,9,0,0,0-.51,3.44,16.46,16.46,0,0,0,.74,3.72,42.3,42.3,0,0,1,1.2,4.59,33.16,33.16,0,0,1,.53,8.59c-.08,1.1-.21,2-.31,2.59a3.81,3.81,0,0,1-.23.93c-.09,0,.1-1.36.17-3.54a38.51,38.51,0,0,0-.67-8.48c-.31-1.63-.75-3.15-1.15-4.55a15.41,15.41,0,0,1-.65-3.84,7.08,7.08,0,0,1,.42-2.6A2.1,2.1,0,0,1,248.87,196.43Z" style="fill:#fafafa"></path><path d="M261.29,199.46c-.13,2.92-2.6,5.28-5.29,6.42s-5.67,1.41-8.51,2.14a26.18,26.18,0,0,0-14.72,10.24A17.18,17.18,0,0,1,230,221.8a4.1,4.1,0,0,1-4.18.87,23.51,23.51,0,0,0,8.68,10.1,7.76,7.76,0,0,1,4.41-2.71c-.44,1.71-.85,3.66.1,5.15a6.42,6.42,0,0,0,2.29,1.86q2.18,1.26,4.38,2.45a4.58,4.58,0,0,0,2.37.76c1.86-.1,2.82-2.18,4-3.63a12.41,12.41,0,0,1,6.35-3.63,40.68,40.68,0,0,0,7.06-2.28c2.21-1.11,4.19-3.07,4.52-5.53" style="fill:#263238"></path><path d="M261.5,202.86s-.08.13-.25.35a6.07,6.07,0,0,1-.88.85,10.09,10.09,0,0,1-4.08,1.87,26.41,26.41,0,0,1-6.62.5,22.51,22.51,0,0,0-7.91.89c-2.66,1-4.58,3-6.3,4.79a24.73,24.73,0,0,1-5,4.41,9.16,9.16,0,0,1-4.23,1.48,5.59,5.59,0,0,1-1.23,0c-.27-.05-.42-.08-.41-.1s.58.06,1.62-.06a9.59,9.59,0,0,0,4-1.59,26.24,26.24,0,0,0,4.83-4.43c1.69-1.78,3.65-3.9,6.46-4.95a22.44,22.44,0,0,1,8.09-.88,27.56,27.56,0,0,0,6.54-.38,10.4,10.4,0,0,0,4-1.67C261.09,203.29,261.46,202.83,261.5,202.86Z" style="fill:#263238"></path><path d="M294.89,269a12.72,12.72,0,0,1-9.88-7.64L234.84,144.15a1.17,1.17,0,0,1,2.15-.93l50.18,117.25a10.44,10.44,0,1,0,19.1-8.42l-1.55-3.41a1.17,1.17,0,1,1,2.13-1l1.55,3.41a12.77,12.77,0,0,1-6.92,17.16A12.9,12.9,0,0,1,294.89,269Z" style="fill:#e0e0e0"></path><path d="M317.33,123.35a44.25,44.25,0,0,0-37.91,19.29s-25.17-5.81-36,13.89c0,0-29-7.64-39.29,18.63,0,0-23.48-4.3-28,17,0,0-16-1.7-19.44,14.33,0,0-3.77-67.92,50.56-95.39C264.67,82.06,317.33,123.35,317.33,123.35Z" style="fill:#F97F29"></path><path d="M206.52,111.47a5.06,5.06,0,0,1-.76.53c-.5.34-1.27.8-2.18,1.5a53.42,53.42,0,0,0-7.31,6.38,73.71,73.71,0,0,0-8.89,11.29,74.58,74.58,0,0,0-4.1,7.44,59.78,59.78,0,0,0-3.2,8.52c-3.35,12.09-4.08,23.51-4.42,31.7-.15,4.11-.2,7.44-.23,9.74,0,1.1,0,2-.05,2.65a5.55,5.55,0,0,1-.06.92,5.55,5.55,0,0,1-.06-.92c0-.67,0-1.55-.07-2.65,0-2.3-.06-5.63,0-9.75.23-8.21.89-19.69,4.26-31.86a59.88,59.88,0,0,1,3.25-8.61,72.49,72.49,0,0,1,4.17-7.48,71.37,71.37,0,0,1,9.05-11.3,50.16,50.16,0,0,1,7.48-6.27,23.34,23.34,0,0,1,2.26-1.4A4.7,4.7,0,0,1,206.52,111.47Z" style="fill:#263238"></path><path d="M206.52,111.47s-.67.65-1.66,2a19.91,19.91,0,0,0-3,6.3A49.84,49.84,0,0,0,200.24,130c-.32,3.92-.55,8.25-.59,12.79A135.38,135.38,0,0,0,201.46,166c.49,2.94,1,5.3,1.33,6.93.16.76.29,1.38.4,1.88a3.27,3.27,0,0,1,.1.66,2.39,2.39,0,0,1-.22-.63c-.14-.49-.31-1.11-.52-1.86-.41-1.61-1-4-1.52-6.9a123,123,0,0,1-2-23.24c0-4.57.29-8.91.64-12.84a47.47,47.47,0,0,1,1.79-10.35,19.11,19.11,0,0,1,3.2-6.32,10.65,10.65,0,0,1,1.32-1.41C206.32,111.6,206.5,111.45,206.52,111.47Z" style="fill:#263238"></path><path d="M208.82,110.31a2.18,2.18,0,0,1,.53.27c.34.19.84.47,1.45.87a53.67,53.67,0,0,1,5.09,3.6,52.8,52.8,0,0,1,6.7,6.37,80.8,80.8,0,0,1,6.85,9,169.43,169.43,0,0,1,10.16,17.84c1.17,2.34,2.1,4.26,2.72,5.58l.71,1.54a2,2,0,0,1,.21.55,2,2,0,0,1-.32-.49l-.81-1.49-2.9-5.49a198.29,198.29,0,0,0-10.28-17.7,87.36,87.36,0,0,0-6.76-9,56.18,56.18,0,0,0-6.56-6.41c-2-1.66-3.73-2.9-4.94-3.73A19.81,19.81,0,0,1,208.82,110.31Z" style="fill:#263238"></path><path d="M208.82,110.31a4.88,4.88,0,0,1,.8-.32c.53-.19,1.3-.49,2.32-.81a52.65,52.65,0,0,1,8.84-2,40,40,0,0,1,13.42.38,58.6,58.6,0,0,1,15.44,5.71,80.56,80.56,0,0,1,28.52,26c.61.88,1,1.6,1.33,2.07a5.87,5.87,0,0,1,.42.75,4.26,4.26,0,0,1-.53-.68c-.33-.45-.78-1.15-1.41-2-1.24-1.73-3.09-4.21-5.58-7.09a80,80,0,0,0-23-18.53,58.93,58.93,0,0,0-15.26-5.7,40.71,40.71,0,0,0-13.26-.51A59.6,59.6,0,0,0,212,109.4c-1,.29-1.81.55-2.35.7A4.17,4.17,0,0,1,208.82,110.31Z" style="fill:#263238"></path><path d="M309.69,123.49s-.09,0-.24-.12l-.68-.43-2.58-1.68L304.33,120,302,118.7c-1.64-1-3.49-2.07-5.65-3.1l-3.34-1.69c-1.19-.54-2.44-1.06-3.73-1.62-2.54-1.19-5.4-2.13-8.35-3.24A127.57,127.57,0,0,0,261,104.21a115.92,115.92,0,0,0-20.48-1.08c-3.14.26-6.14.37-8.91.87-1.39.21-2.74.37-4,.61l-3.65.81a63.89,63.89,0,0,0-6.22,1.69c-.9.28-1.75.52-2.52.78l-2.07.81-2.88,1.11-.75.27a1,1,0,0,1-.27.08.84.84,0,0,1,.24-.13l.73-.33,2.84-1.22,2.06-.86c.77-.28,1.61-.53,2.52-.83a59.06,59.06,0,0,1,6.22-1.79l3.67-.85c1.28-.25,2.63-.43,4-.65,2.78-.52,5.79-.66,8.95-.93a113.27,113.27,0,0,1,20.6,1,124.76,124.76,0,0,1,20,4.92c3,1.13,5.82,2.09,8.37,3.3,1.29.58,2.54,1.11,3.73,1.67l3.34,1.73c2.16,1,4,2.21,5.63,3.19l2.27,1.37,1.83,1.28,2.52,1.78.64.48A1.15,1.15,0,0,1,309.69,123.49Z" style="fill:#263238"></path><path d="M172.18,149.27a6.14,6.14,0,0,1-.64,1.31c-.45.82-1.07,2-1.81,3.53a73,73,0,0,0-7.14,25c-.17,1.67-.28,3-.32,4a6.7,6.7,0,0,1-.16,1.45A6.76,6.76,0,0,1,162,183c0-.94,0-2.3.13-4a63.67,63.67,0,0,1,7.19-25.15c.79-1.48,1.47-2.66,2-3.45A6.7,6.7,0,0,1,172.18,149.27Z" style="fill:#e0e0e0"></path><path d="M177.42,140.09c.14.1-.41,1-1.21,2s-1.56,1.75-1.69,1.64.41-1,1.21-2S177.29,140,177.42,140.09Z" style="fill:#e0e0e0"></path><path d="M265.43,201.82c-6.65,2-11.06,8.48-13,15.13s-2,13.71-3.18,20.56c-3,18.57-13.64,35.05-25.74,49.46s-25.94,27.35-37.26,42.38S166,362.16,165.93,381l87.43,6.44s4.11-82,11.83-97.22,16.1-37.77,16.32-45.4-3.86-39.59-3.86-39.59Z" style="fill:#F97F29"></path><path d="M263,204.2s-14,.67-21.76,19.46c-2.68,6.5-7.78,21.71-11.09,33.14-2.16,7.48-.43,12.44,3.74,15.18a12.45,12.45,0,0,0,7.44,1.88l40.19-5.2L277.94,249l-23.5,3.13,4.33-13.63Z" style="fill:#F97F29"></path><path d="M255.33,252.22a15.4,15.4,0,0,0-4.55,2.6,14.91,14.91,0,0,0-3,4.31,3.25,3.25,0,0,1,.4-1.55,9,9,0,0,1,2.24-3.14,9.26,9.26,0,0,1,3.33-2A3.5,3.5,0,0,1,255.33,252.22Z" style="fill:#263238"></path><path d="M277.57,249.93a1.69,1.69,0,0,1-.47.1l-1.36.18-5,.58-16.86,1.78-.4,0,.13-.38c.21-.63.43-1.31.66-2,2.25-6.8,4.32-13,5.84-17.4.76-2.16,1.38-3.94,1.83-5.25l.52-1.42a2.13,2.13,0,0,1,.22-.49,1.7,1.7,0,0,1-.12.52c-.11.39-.25.87-.42,1.45L260.42,233c-1.43,4.47-3.44,10.64-5.7,17.45l-.66,2-.27-.34,16.88-1.61,5.05-.42,1.37-.09A1.48,1.48,0,0,1,277.57,249.93Z" style="fill:#263238"></path><path d="M277.57,249.93a1.63,1.63,0,0,1,.11.35c.06.28.14.62.24,1,.21,1,.5,2.28.85,3.92l2.87,13.88.05.24-.25,0c-4.43.56-9.48,1.12-14.81,1.66l-13.36,1.35-5.83.64c-1.82.21-3.52.43-5.09.52a16.32,16.32,0,0,1-7.34-.92,9.4,9.4,0,0,1-1.77-1,3.13,3.13,0,0,1-.54-.46,13.58,13.58,0,0,0,2.39,1.24,16.83,16.83,0,0,0,7.23.74c1.55-.11,3.24-.35,5.07-.58l5.82-.69c4.11-.46,8.63-.91,13.37-1.39,5.33-.54,10.37-1.07,14.8-1.61l-.2.28c-1.09-5.67-2-10.47-2.68-13.91-.31-1.66-.55-3-.73-4-.07-.42-.12-.76-.17-1.05S277.55,249.93,277.57,249.93Z" style="fill:#263238"></path><path d="M241.11,295.27a13.43,13.43,0,0,1-2.38,1.53,24.64,24.64,0,0,1-6.33,2.61,12.32,12.32,0,0,1-6.83-.26,7.62,7.62,0,0,1-1.87-.94c-.41-.28-.6-.48-.58-.5a20.83,20.83,0,0,0,2.56,1.09,13.15,13.15,0,0,0,6.61.1,29.55,29.55,0,0,0,6.27-2.43A17.88,17.88,0,0,1,241.11,295.27Z" style="fill:#263238"></path><path d="M258.34,293.82a2.68,2.68,0,0,0-1.56.25,1.93,1.93,0,0,0-.94,1.3,1.75,1.75,0,0,0,2.75,1.49,1.91,1.91,0,0,0,.57-1.49,2.6,2.6,0,0,0-.64-1.45s.19,0,.43.23a2,2,0,0,1,.58,1.18,2.19,2.19,0,0,1-.62,1.88,2.19,2.19,0,0,1-3.54-1.92,2.18,2.18,0,0,1,1.23-1.54,2,2,0,0,1,1.31-.16C258.22,293.68,258.35,293.8,258.34,293.82Z" style="fill:#263238"></path><path d="M251.47,325.91a2.58,2.58,0,0,0-1.56.25,1.93,1.93,0,0,0-.94,1.3,1.75,1.75,0,0,0,2.75,1.49,1.91,1.91,0,0,0,.57-1.49,2.56,2.56,0,0,0-.64-1.45s.19,0,.43.23a2,2,0,0,1,.58,1.18,2.19,2.19,0,0,1-.62,1.88,2.19,2.19,0,0,1-3.54-1.92,2.17,2.17,0,0,1,1.24-1.54,2,2,0,0,1,1.31-.16C251.35,325.76,251.48,325.89,251.47,325.91Z" style="fill:#263238"></path><path d="M247.73,359.78a2.5,2.5,0,0,0-1.56.25,1.87,1.87,0,0,0-.93,1.29,1.74,1.74,0,0,0,2.74,1.49,1.86,1.86,0,0,0,.58-1.49,2.58,2.58,0,0,0-.64-1.44s.18,0,.42.23a1.9,1.9,0,0,1,.58,1.18,2.2,2.2,0,0,1-.61,1.88,2.2,2.2,0,0,1-3.55-1.92A2.26,2.26,0,0,1,246,359.7a1.93,1.93,0,0,1,1.31-.15C247.62,359.63,247.74,359.76,247.73,359.78Z" style="fill:#263238"></path><path d="M253.69,375.79s-.06,0-.19.13l-.59.35a12.27,12.27,0,0,1-2.45,1,15.16,15.16,0,0,1-4.17.47,22.41,22.41,0,0,1-5.47-.89,35.07,35.07,0,0,1-6.23-2.5c-2.16-1.09-4.38-2.38-6.78-3.62a35,35,0,0,0-7.8-3.13,20,20,0,0,0-8.91-.12,50.54,50.54,0,0,0-8.63,2.74c-2.74,1.07-5.38,2.14-8,2.93a28.44,28.44,0,0,1-7.6,1.32,27.56,27.56,0,0,1-6.69-.66,26.41,26.41,0,0,1-8.88-3.86,20.25,20.25,0,0,1-2.1-1.6l-.51-.46c-.11-.11-.17-.16-.16-.17l.2.13.54.42a25.85,25.85,0,0,0,2.14,1.51,27.29,27.29,0,0,0,8.86,3.67,26.9,26.9,0,0,0,6.59.59,28,28,0,0,0,7.47-1.35c2.58-.79,5.2-1.86,7.94-2.94A50.21,50.21,0,0,1,211,367a20.55,20.55,0,0,1,9.14.13,35.22,35.22,0,0,1,7.89,3.2c2.41,1.26,4.62,2.56,6.75,3.66a35.3,35.3,0,0,0,6.14,2.54,21.92,21.92,0,0,0,5.38.94,15.16,15.16,0,0,0,4.11-.37A17.91,17.91,0,0,0,253.69,375.79Z" style="fill:#fafafa"></path><path d="M254.38,371.22a.72.72,0,0,1-.21.11l-.63.29a12.46,12.46,0,0,1-2.57.71,19.41,19.41,0,0,1-9.65-1.19,38.88,38.88,0,0,1-6.14-2.83c-2.13-1.16-4.35-2.49-6.75-3.74a30.17,30.17,0,0,0-7.91-3,23.63,23.63,0,0,0-9,.09c-6.15,1.15-11.61,3.77-16.82,5.4a40.45,40.45,0,0,1-7.57,1.74,21.9,21.9,0,0,1-6.77-.21,16.05,16.05,0,0,1-8.62-4.42,12.12,12.12,0,0,1-1.61-2.12l-.32-.62-.1-.21a17.16,17.16,0,0,0,2.18,2.8,16,16,0,0,0,8.54,4.21,21.85,21.85,0,0,0,6.65.14,40.59,40.59,0,0,0,7.47-1.76c5.17-1.65,10.63-4.29,16.88-5.47a24,24,0,0,1,9.21-.07,30.32,30.32,0,0,1,8,3c2.42,1.27,4.63,2.62,6.74,3.8a41.89,41.89,0,0,0,6.06,2.86,19.75,19.75,0,0,0,9.49,1.33A18.49,18.49,0,0,0,254.38,371.22Z" style="fill:#fafafa"></path><path d="M281,265.84l-2.59-12.5,3.08-1.11a30.37,30.37,0,0,0,4.22-3.51,8.29,8.29,0,0,0,1.66-2.28,13.19,13.19,0,0,0,1.23-3.27,1.08,1.08,0,0,1,2-.58c.48.85.2,3.81-1.62,6.78-1.22,2,.73,1.82,2.71,1.3a3,3,0,0,1,3.53,1.83l1.6,4.17a4.93,4.93,0,0,1-3.12,6.47l-1.53.48h0l-11.5,2.28" style="fill:#ffbe9d"></path><path d="M269.22,155.36l0,3.15-.89,47.21c-.08,5.48,5.16,10.14,11,10.17h0c5.92,0,8.33-4.4,8.5-9.93.18-5.8.47-11.91.47-11.91s7.51-1,9.33-10.74c.9-4.83.88-12.79.65-19.3-.21-5.86-5.15-13.45-11-13Z" style="fill:#ffbe9d"></path><path d="M296.22,169.74A1.26,1.26,0,0,1,295,171a1.19,1.19,0,0,1-1.26-1.16,1.25,1.25,0,0,1,1.24-1.23A1.2,1.2,0,0,1,296.22,169.74Z" style="fill:#263238"></path><path d="M296.43,168.1c-.16.16-1.09-.57-2.43-.6s-2.35.61-2.5.44.1-.36.54-.66a3.4,3.4,0,0,1,2-.56,3.36,3.36,0,0,1,1.93.68C296.38,167.73,296.51,168,296.43,168.1Z" style="fill:#263238"></path><path d="M282.85,169.44a1.25,1.25,0,0,1-1.24,1.23,1.2,1.2,0,0,1-1.26-1.16,1.26,1.26,0,0,1,1.24-1.23A1.19,1.19,0,0,1,282.85,169.44Z" style="fill:#263238"></path><path d="M283.2,168c-.16.16-1.09-.57-2.44-.6s-2.35.61-2.49.44.09-.36.53-.67a3.45,3.45,0,0,1,2-.55,3.33,3.33,0,0,1,1.94.68C283.14,167.62,283.27,167.92,283.2,168Z" style="fill:#263238"></path><path d="M287.8,178.1a9.89,9.89,0,0,1,2.2-.33c.34,0,.67-.09.74-.32a1.85,1.85,0,0,0-.2-1c-.31-.84-.62-1.73-1-2.65a44.3,44.3,0,0,1-2.09-6.91,45.94,45.94,0,0,1,2.64,6.73c.32.93.62,1.81.9,2.66a2,2,0,0,1,.14,1.35.89.89,0,0,1-.57.49,2.18,2.18,0,0,1-.59.06A8.34,8.34,0,0,1,287.8,178.1Z" style="fill:#263238"></path><path d="M288.29,194.05a24.73,24.73,0,0,1-13-3.84s3,6.79,12.77,6.14Z" style="fill:#eb996e"></path><path d="M287.15,181.33a2.44,2.44,0,0,0-2.15-1,2.23,2.23,0,0,0-1.56.78,1.41,1.41,0,0,0-.15,1.6,1.63,1.63,0,0,0,1.76.49,5.08,5.08,0,0,0,1.74-1,1.85,1.85,0,0,0,.4-.39.45.45,0,0,0,0-.5" style="fill:#eb996e"></path><path d="M283.82,178.93c.22,0,.18,1.45,1.4,2.52s2.78,1,2.79,1.16-.36.27-1,.27a3.61,3.61,0,0,1-2.33-.88,3.21,3.21,0,0,1-1.09-2.12C283.54,179.27,283.72,178.91,283.82,178.93Z" style="fill:#263238"></path><path d="M283.62,164.07c-.14.37-1.48.16-3.06.3s-2.88.54-3.08.21c-.09-.16.15-.5.67-.84a5.35,5.35,0,0,1,4.68-.38C283.4,163.61,283.68,163.9,283.62,164.07Z" style="fill:#263238"></path><path d="M296.48,165.38c-.3.3-1.42,0-2.77-.1s-2.51.14-2.77-.19c-.11-.16.08-.46.59-.73a4.76,4.76,0,0,1,4.46.23C296.46,164.92,296.61,165.24,296.48,165.38Z" style="fill:#263238"></path><path d="M289.45,151.09c-2,7.13-11.54,9.81-14,16.79-1.32,3.74-.26,7.88,1.14,11.59s3.16,7.41,3.26,11.38c0,1.86-.39,3.9-1.84,5.07-1.76,1.4-4.37,1-6.41.09-3.72-1.7-4-4.31-6-7.88s-5.79-8.1-7-12c-.81-2.62-1.63-5.34-1.22-8a15.73,15.73,0,0,1,2.9-6.33,55.85,55.85,0,0,1,9.49-10.64c3-2.64,6.55-5,10.55-5.45s8.51,1.66,9.66,5.51" style="fill:#263238"></path><path d="M288.07,152.2c1.56,2.08,4.21,3,6.25,4.6a10.83,10.83,0,0,1,3.95,7.21,17.27,17.27,0,0,0-.59-8.39,11.44,11.44,0,0,0-5.4-6.35,8.58,8.58,0,0,0-8.17.15" style="fill:#263238"></path><path d="M265,186.36a4.16,4.16,0,0,0-.29-1.8,5.34,5.34,0,0,0-1.21-1.74,10.72,10.72,0,0,0-2.35-1.61,21.63,21.63,0,0,1-3-1.82,11.12,11.12,0,0,1-2.74-3A9.19,9.19,0,0,1,254,172a10,10,0,0,1,1.13-4.73,25.94,25.94,0,0,1,2.62-4.06,40.13,40.13,0,0,1,2.93-3.4,62.19,62.19,0,0,1,5.58-5.12c1.66-1.38,3-2.43,4-3.15l1.12-.82c.26-.19.4-.28.41-.26s-.1.13-.34.34l-1.06.89c-.92.78-2.27,1.88-3.9,3.28a70.55,70.55,0,0,0-5.46,5.17,40.7,40.7,0,0,0-2.87,3.38,25.3,25.3,0,0,0-2.56,4,9.43,9.43,0,0,0-1.09,4.48,8.69,8.69,0,0,0,1.25,4.11,10.64,10.64,0,0,0,2.59,3,21.93,21.93,0,0,0,3,1.84,10.13,10.13,0,0,1,2.37,1.72,5.14,5.14,0,0,1,1.2,1.88,3.24,3.24,0,0,1,.2,1.39,2.06,2.06,0,0,1-.05.36C265,186.32,265,186.36,265,186.36Z" style="fill:#263238"></path><path d="M270.52,186.11a4.31,4.31,0,0,0-.56-1.84,6.13,6.13,0,0,0-1.54-1.66c-.69-.56-1.58-1.09-2.46-1.85a9.73,9.73,0,0,1,1.33-15.62,22.36,22.36,0,0,1,4.67-2.08c1.55-.53,3-1.07,4.39-1.68a41.11,41.11,0,0,0,6.92-3.9,44.19,44.19,0,0,0,4.2-3.33,15.8,15.8,0,0,1,1.48-1.31,2.33,2.33,0,0,1-.33.39c-.22.26-.56.62-1,1.06a35.37,35.37,0,0,1-4.13,3.49,38.93,38.93,0,0,1-6.93,4c-1.38.63-2.88,1.18-4.42,1.72a22.58,22.58,0,0,0-4.56,2,9.42,9.42,0,0,0-4.45,8,9.55,9.55,0,0,0,3.08,6.94c.83.75,1.71,1.3,2.41,1.89a6.3,6.3,0,0,1,1.52,1.79,3.52,3.52,0,0,1,.43,1.43A1.43,1.43,0,0,1,270.52,186.11Z" style="fill:#455a64"></path><path d="M259.2,169.66s-.05-.12-.1-.36a5.89,5.89,0,0,1-.07-1.08,7.41,7.41,0,0,1,1.26-3.73,10.08,10.08,0,0,1,4.53-3.68,23.69,23.69,0,0,1,6.95-1.67,55.78,55.78,0,0,0,7-1,24.77,24.77,0,0,0,5.4-1.95,30.06,30.06,0,0,0,4.47-2.86s-.07.11-.24.29-.44.42-.79.72a19.2,19.2,0,0,1-3.27,2.18,24.15,24.15,0,0,1-5.45,2.09,54.65,54.65,0,0,1-7.05,1.09,23.84,23.84,0,0,0-6.83,1.59,10,10,0,0,0-4.42,3.44,7.88,7.88,0,0,0-1.36,3.55C259.15,169.15,259.25,169.66,259.2,169.66Z" style="fill:#455a64"></path><path d="M273,214.81c-.94,7.18-2.22,15-7.68,19.81-2.9,2.53-6.64,3.86-9.84,6a22.84,22.84,0,0,0-9.86,16.52,74.19,74.19,0,0,0,20.55,8.47c1.08-6.48,6-11.57,11-15.87s10.39-8.5,13.14-14.46c3.66-7.95,1.8-17.24-.38-25.72" style="fill:#455a64"></path><path d="M246.64,254.16a15.13,15.13,0,0,0-.17,2.44c0,.76.13,1.66.12,2.7a5.71,5.71,0,0,1-.9,3.28,6.63,6.63,0,0,1-2.76,2,11.1,11.1,0,0,0-2.33,1.24,4.2,4.2,0,0,0-1.44,1.89,1.28,1.28,0,0,1,.1-.68,3.63,3.63,0,0,1,1.11-1.5,10.34,10.34,0,0,1,2.35-1.39,6.35,6.35,0,0,0,2.55-1.83,5.5,5.5,0,0,0,.84-3c0-1,0-1.91,0-2.69A4.36,4.36,0,0,1,246.64,254.16Z" style="fill:#455a64"></path><path d="M252.25,257.4a18.33,18.33,0,0,0-.16,2.45c0,.75.12,1.66.11,2.7a5.77,5.77,0,0,1-.89,3.27,6.51,6.51,0,0,1-2.77,2,11.87,11.87,0,0,0-2.33,1.24,4.33,4.33,0,0,0-1.43,1.89s-.05-.25.09-.67a3.6,3.6,0,0,1,1.11-1.5,9.93,9.93,0,0,1,2.36-1.39,6.51,6.51,0,0,0,2.54-1.83,5.45,5.45,0,0,0,.84-3c0-1,0-1.91,0-2.68A4.46,4.46,0,0,1,252.25,257.4Z" style="fill:#455a64"></path><path d="M258,260.91a15.51,15.51,0,0,0-.17,2.45c0,.76.12,1.66.11,2.7a5.65,5.65,0,0,1-.89,3.27,6.51,6.51,0,0,1-2.77,2,11.25,11.25,0,0,0-2.32,1.25,4.2,4.2,0,0,0-1.44,1.89,1.16,1.16,0,0,1,.1-.68,3.49,3.49,0,0,1,1.11-1.5,10,10,0,0,1,2.35-1.39,6.42,6.42,0,0,0,2.55-1.83,5.5,5.5,0,0,0,.83-3c0-1,0-1.9,0-2.68A4.51,4.51,0,0,1,258,260.91Z" style="fill:#455a64"></path><path d="M264.08,264.16a14.58,14.58,0,0,0-.16,2.44c0,.76.12,1.67.11,2.7a5.71,5.71,0,0,1-.9,3.28,6.57,6.57,0,0,1-2.76,2,11.1,11.1,0,0,0-2.33,1.24,4.18,4.18,0,0,0-1.43,1.89s-.05-.25.09-.68a3.63,3.63,0,0,1,1.11-1.5,10.34,10.34,0,0,1,2.35-1.39,6.42,6.42,0,0,0,2.55-1.82,5.56,5.56,0,0,0,.84-3c0-1,0-1.91,0-2.69A4.36,4.36,0,0,1,264.08,264.16Z" style="fill:#455a64"></path><path d="M283.16,244.27a24.34,24.34,0,0,1-2.1-2,49.18,49.18,0,0,0-5.36-4.45,48.28,48.28,0,0,0-6-3.61,27.88,27.88,0,0,1-2.57-1.34,11.85,11.85,0,0,1,2.73,1,36.16,36.16,0,0,1,6.1,3.52,37.61,37.61,0,0,1,5.32,4.61A11.9,11.9,0,0,1,283.16,244.27Z" style="fill:#fafafa"></path><path d="M273.41,252.92c-.09,0-.5-1.07-1.57-2.61a22.57,22.57,0,0,0-5.17-5.14c-2.31-1.7-4.58-3-6.18-4a14.41,14.41,0,0,1-2.51-1.76,22.33,22.33,0,0,1,2.7,1.45,63.29,63.29,0,0,1,6.3,3.92,20.3,20.3,0,0,1,5.17,5.36,11.65,11.65,0,0,1,1,2A2.36,2.36,0,0,1,273.41,252.92Z" style="fill:#fafafa"></path><path d="M268.28,259.69a2.79,2.79,0,0,1-.92-.08,24.29,24.29,0,0,1-2.46-.52,32.63,32.63,0,0,1-7.68-3.14,33.17,33.17,0,0,1-6.65-5,23.53,23.53,0,0,1-1.71-1.84,3.31,3.31,0,0,1-.55-.75c.07-.06.95.92,2.52,2.32a37.55,37.55,0,0,0,14.17,8C267,259.35,268.3,259.61,268.28,259.69Z" style="fill:#fafafa"></path><path d="M291.84,228.9a2.63,2.63,0,0,1-.82.28,16.69,16.69,0,0,1-2.3.46,25,25,0,0,1-7.75-.17,25.35,25.35,0,0,1-7.33-2.55,19.31,19.31,0,0,1-2-1.24c-.45-.33-.68-.52-.66-.55s1.07.6,2.83,1.46a28,28,0,0,0,14.86,2.68C290.63,229.09,291.82,228.81,291.84,228.9Z" style="fill:#fafafa"></path><path d="M263.36,190.17c.56-2.35,2.15-3.4,4.31-4.49,3.64-1.83,8-.78,11.92.3s8.28,2.11,11.91.26c1.53-.78,2.79-2,4.27-2.91s3.41-1.36,4.91-.5c1.84,1.06,2.16,3.64,1.67,5.71s-1.58,4-1.77,6.13.62,4.43.84,6.66c.52,5.16-2.33,10.33-6.58,13.29a21.76,21.76,0,0,1-14.85,3.3,23.28,23.28,0,0,1-11.52-4.43,17.16,17.16,0,0,1-6.56-10.3c-.83-4.43.35-9,1.53-13.31" style="fill:#455a64"></path><path d="M294.3,214.68s-.23.22-.69.54a16,16,0,0,1-2.07,1.2,21.53,21.53,0,0,1-15.43,1.31,15.27,15.27,0,0,1-2.24-.83,3.09,3.09,0,0,1-.77-.42c0-.09,1.18.41,3.11.9a23.64,23.64,0,0,0,15.17-1.29C293.21,215.28,294.24,214.6,294.3,214.68Z" style="fill:#263238"></path><path d="M300.77,199.37s-.1.11-.32.27a8.44,8.44,0,0,1-1,.61,14.32,14.32,0,0,1-4.12,1.4,31.69,31.69,0,0,1-14.25-1.05,36,36,0,0,1-12.62-6.72,32.18,32.18,0,0,1-3.15-3,9.18,9.18,0,0,1-1-1.23,9.12,9.12,0,0,1,1.15,1.09c.73.71,1.81,1.72,3.23,2.86a37.67,37.67,0,0,0,12.54,6.5,33,33,0,0,0,14,1.19,16.12,16.12,0,0,0,4.1-1.22C300.27,199.65,300.74,199.34,300.77,199.37Z" style="fill:#263238"></path><path d="M270.06,195c.08,0-.28,1-.69,2.71A30.57,30.57,0,0,0,269,211a26.72,26.72,0,0,1,.55,2.74,10.71,10.71,0,0,1-.91-2.66,26.35,26.35,0,0,1-.72-6.76,25.76,25.76,0,0,1,1.07-6.7A10,10,0,0,1,270.06,195Z" style="fill:#fafafa"></path><path d="M277.77,185.54a19.51,19.51,0,0,0-1.38,1.39,8,8,0,0,0-1.57,4.32,18.16,18.16,0,0,0,.44,4.7,9.12,9.12,0,0,1,.32,2,6.7,6.7,0,0,1-.68-1.88,14.86,14.86,0,0,1-.6-4.83,7.59,7.59,0,0,1,1.81-4.52A3.23,3.23,0,0,1,277.77,185.54Z" style="fill:#fafafa"></path><path d="M282.72,217.92s-.3,0-.76-.17a3.33,3.33,0,0,1-1.48-1.49,8.21,8.21,0,0,1-.75-3c-.14-1.14-.26-2.39-.36-3.71-.21-2.65-.28-5-.27-6.78a12.81,12.81,0,0,1,.15-2.81,18,18,0,0,1,.22,2.8c.08,1.73.21,4.12.42,6.75.11,1.3.21,2.54.31,3.7a8.69,8.69,0,0,0,.61,2.89,3.52,3.52,0,0,0,1.25,1.49C282.46,217.82,282.73,217.88,282.72,217.92Z" style="fill:#fafafa"></path><path d="M293.24,201.26a7.59,7.59,0,0,1,.48,2.28,21.52,21.52,0,0,1-.16,5.63,20.78,20.78,0,0,1-1.63,5.38,7.33,7.33,0,0,1-1.18,2,37.87,37.87,0,0,0,2.3-7.47A39.11,39.11,0,0,0,293.24,201.26Z" style="fill:#fafafa"></path><path d="M287.73,187.58s.2.08.41.38a2.86,2.86,0,0,1,.46,1.47,10.59,10.59,0,0,1-.17,2.23c-.11.81-.2,1.71-.26,2.66-.25,3.79.29,6.85.13,6.88a6.61,6.61,0,0,1-.46-2,23.9,23.9,0,0,1-.19-4.92,25.47,25.47,0,0,1,.31-2.7,12.7,12.7,0,0,0,.27-2.15A3.65,3.65,0,0,0,287.73,187.58Z" style="fill:#fafafa"></path><path d="M296.9,182.85s.3,0,.75.23a3.24,3.24,0,0,1,1.33,1.67,5.19,5.19,0,0,1,0,3.16c-.28,1.15-.83,2.32-1.21,3.58-.89,2.52.38,4.87.31,6.68a4.4,4.4,0,0,1-.43,2.08c-.24.45-.46.64-.48.62a5.08,5.08,0,0,0,.54-2.68,20.16,20.16,0,0,0-.56-3,9.89,9.89,0,0,1-.21-1.86,7.6,7.6,0,0,1,.33-2c.4-1.31,1-2.46,1.25-3.56a5.09,5.09,0,0,0,.07-2.91,3.28,3.28,0,0,0-1.1-1.62C297.16,183,296.89,182.89,296.9,182.85Z" style="fill:#fafafa"></path><path d="M265.85,191.79a2.54,2.54,0,0,1,0-1.34,7.94,7.94,0,0,1,1.29-3,8.14,8.14,0,0,1,2.36-2.25c.72-.43,1.23-.57,1.25-.51a16.08,16.08,0,0,0-3.18,3.05A15.83,15.83,0,0,0,265.85,191.79Z" style="fill:#fafafa"></path></g><g id="freepik--Plants--inject-2"><path d="M428.54,449.77c-.63-2.49,1-5,2.86-6.78s4-3.4,5-5.78c1.56-3.87-.48-8.89,2.17-12.1,1.56-1.9,4.34-2.52,5.72-4.54a10.26,10.26,0,0,0,1.26-3.62,36.83,36.83,0,0,1,9.26-17.09,32,32,0,0,1-3.69,16.5c-1.07,2-2.39,4-2.76,6.26-.6,3.68,1.44,7.48.51,11.09-1.05,4.13-5.71,6.87-6,11.12-.2,3.59,2.91,6.77,2.66,10.36a9.83,9.83,0,0,1-1.62,4.26c-2.81,4.6-6.91,7.76-13.11,7.62l-7.58.23Z" style="fill:#F97F29"></path><g style="opacity:0.30000000000000004"><path d="M428.54,449.77c-.63-2.49,1-5,2.86-6.78s4-3.4,5-5.78c1.56-3.87-.48-8.89,2.17-12.1,1.56-1.9,4.34-2.52,5.72-4.54a10.26,10.26,0,0,0,1.26-3.62,36.83,36.83,0,0,1,9.26-17.09,32,32,0,0,1-3.69,16.5c-1.07,2-2.39,4-2.76,6.26-.6,3.68,1.44,7.48.51,11.09-1.05,4.13-5.71,6.87-6,11.12-.2,3.59,2.91,6.77,2.66,10.36a9.83,9.83,0,0,1-1.62,4.26c-2.81,4.6-6.91,7.76-13.11,7.62l-7.58.23Z"></path></g><path d="M421.73,467.49a6.11,6.11,0,0,1-2.08-.06,12.72,12.72,0,0,1-2.46-.63,10.26,10.26,0,0,1-3-1.69,4.23,4.23,0,0,1-1.24-1.67,8,8,0,0,1-.35-2.27,21,21,0,0,0-.16-2.46,6.86,6.86,0,0,0-.91-2.44c-.89-1.58-2.36-3.07-2.83-5.21s-.12-4.36.24-6.64.72-4.75-.13-7.13-2.45-4.52-3.27-7.2-.41-5.61-.57-8.47a11.28,11.28,0,0,0-1-4.22c-.61-1.35-1.45-2.62-2.11-4-1.33-2.87-1.55-6.11-1.9-9.28-.17-1.6-.34-3.22-.52-4.85a23.5,23.5,0,0,0-.81-4.86,43.49,43.49,0,0,0-1.79-4.7,15.86,15.86,0,0,1-.86-2.46,23.19,23.19,0,0,1-.23-2.61,29.71,29.71,0,0,1,.23-5.24c.21-1.75.54-3.49.74-5.24l0-.3,0-.35.31.16a11.68,11.68,0,0,1,4.07,3.47,18.32,18.32,0,0,1,2.48,4.63,56.75,56.75,0,0,1,2.3,9.95,27,27,0,0,0,3.07,9.19c.82,1.35,1.82,2.59,2.69,3.91a10.71,10.71,0,0,1,1.86,4.33c.43,3.21-1.35,6-1,8.86a9.84,9.84,0,0,0,1.36,3.95c.68,1.21,1.48,2.34,2.25,3.48a21.92,21.92,0,0,1,2,3.51,10.94,10.94,0,0,1,.91,3.8c.17,2.56-.21,5,0,7.28a16.73,16.73,0,0,0,1.83,6.24c.91,1.87,1.92,3.56,2.77,5.2a25.07,25.07,0,0,1,1.13,2.43,12.3,12.3,0,0,1,.66,2.4,15.36,15.36,0,0,1,0,4.33,11,11,0,0,1-2.2,5.5,6,6,0,0,1-.62.67,3.27,3.27,0,0,1-.5.42l-.44.3a9.73,9.73,0,0,0,1.48-1.45,11,11,0,0,0,2.09-5.47,15,15,0,0,0-.07-4.26,12.36,12.36,0,0,0-.66-2.35c-.32-.78-.71-1.58-1.14-2.39-.86-1.63-1.88-3.31-2.8-5.2a16.83,16.83,0,0,1-1.9-6.35c-.19-2.34.18-4.77,0-7.27a10.68,10.68,0,0,0-.9-3.68,21.4,21.4,0,0,0-2-3.44c-.76-1.12-1.57-2.26-2.27-3.5a10.19,10.19,0,0,1-1.43-4.1c-.35-3,1.42-5.86,1-8.84a10.41,10.41,0,0,0-1.8-4.15c-.86-1.29-1.86-2.53-2.71-3.92a27.33,27.33,0,0,1-3.13-9.35,57.73,57.73,0,0,0-2.29-9.86,18.17,18.17,0,0,0-2.42-4.51,11.35,11.35,0,0,0-3.89-3.33l.35-.19,0,.31c-.2,1.77-.53,3.51-.74,5.24a30.8,30.8,0,0,0-.23,5.16c0,.85.09,1.74.22,2.54a15.49,15.49,0,0,0,.84,2.36,45.57,45.57,0,0,1,1.8,4.76,23.51,23.51,0,0,1,.82,4.93q.27,2.46.51,4.86c.35,3.19.57,6.37,1.85,9.14.63,1.37,1.47,2.65,2.1,4a11.82,11.82,0,0,1,1,4.37c.15,2.93-.25,5.79.53,8.38s2.41,4.75,3.23,7.2.5,5,.12,7.3A16.88,16.88,0,0,0,409,451c.43,2,1.86,3.52,2.76,5.14a6.91,6.91,0,0,1,.93,2.55,21.53,21.53,0,0,1,.15,2.48,7.43,7.43,0,0,0,.31,2.21,4.08,4.08,0,0,0,1.16,1.6,10.55,10.55,0,0,0,3,1.69,12.17,12.17,0,0,0,2.42.67,9,9,0,0,0,1.54.16Z" style="fill:#263238"></path><path d="M398.28,378a1,1,0,0,1,.07.23c0,.19.1.41.17.69.14.59.31,1.5.59,2.63s1,2.4,1.56,4,1.21,3.36,1.77,5.39,1.06,4.27,1.59,6.68a28.19,28.19,0,0,0,2.38,7.42c.62,1.23,1.31,2.48,1.86,3.85a17.71,17.71,0,0,1,1.06,4.36,89.24,89.24,0,0,0,1.59,9.18c1.48,6.23,2.9,12.15,4.19,17.55s2.5,10.23,3.51,14.31,1.77,7.34,2.32,9.66c.26,1.11.47,2,.61,2.63l.15.69a.72.72,0,0,1,0,.24l-.08-.23c0-.18-.11-.4-.19-.67-.17-.64-.4-1.51-.7-2.61-.59-2.32-1.44-5.59-2.48-9.63l-3.61-14.28-4.23-17.55a87.4,87.4,0,0,1-1.58-9.23,17.49,17.49,0,0,0-1-4.25c-.52-1.33-1.21-2.57-1.82-3.82a28.43,28.43,0,0,1-2.38-7.54c-.5-2.41-1-4.65-1.53-6.67a56.33,56.33,0,0,0-1.69-5.39c-.55-1.56-1.21-2.85-1.48-4s-.4-2-.51-2.65c-.05-.28-.09-.51-.12-.7A.86.86,0,0,1,398.28,378Z" style="fill:#263238"></path><path d="M420.39,467.5c-4.93-3-6.3-11.91-4.21-17.28s5.75-10.26,6.34-16c.45-4.41-1-8.94.08-13.25,1.42-5.8,7.12-10.28,7.09-16.25,0-3.36-1.91-6.53-1.73-9.88.21-4.1,3.38-7.35,5.35-11,3-5.52,3.26-12.07,4.32-18.28s3.46-12.85,9-15.87c.79,5.28,2.16,8.9,1.68,16-.17,2.57-3.18,7.47-3.62,13.09-.26,3.36-.45,6.73-.67,10.09a32.46,32.46,0,0,1-1.64,9.66c-.92,2.34-2.37,4.47-3.05,6.89-1.29,4.55.34,9.5-.7,14.11-.89,3.91-3.61,7.26-4.19,11.23-.81,5.57,2.77,11.38.89,16.69-.93,2.63-3.11,4.74-3.75,7.46-.49,2.11,0,4.35-.42,6.47-.72,3.42-7.26,6.26-10.75,6" style="fill:#F97F29"></path><path d="M445.22,355a1.36,1.36,0,0,1,0,.3l-.12.86c-.12.76-.25,1.88-.52,3.33s-1,3.08-1.65,5.05-1.29,4.24-1.86,6.78-1.07,5.34-1.58,8.37a35.08,35.08,0,0,1-2.59,9.46c-.71,1.58-1.49,3.16-2.09,4.85a21.72,21.72,0,0,0-1.07,5.34,109,109,0,0,1-1.52,11.53c-1.56,7.81-3.05,15.25-4.4,22s-2.71,12.81-3.79,17.93l-2.6,12.08c-.31,1.39-.55,2.49-.73,3.27-.08.36-.15.64-.2.85a1.1,1.1,0,0,1-.09.29s0-.1,0-.3.09-.5.16-.86l.64-3.29c.58-2.9,1.41-7,2.44-12.11s2.3-11.2,3.69-18,2.81-14.21,4.36-22a108.24,108.24,0,0,0,1.52-11.49,22.06,22.06,0,0,1,1.11-5.46c.62-1.72,1.41-3.31,2.12-4.87a35,35,0,0,0,2.6-9.35c.53-3,1-5.84,1.65-8.38a69.27,69.27,0,0,1,1.93-6.78c.64-2,1.42-3.6,1.73-5s.45-2.54.6-3.29c.07-.36.13-.64.17-.86A1.25,1.25,0,0,1,445.22,355Z" style="fill:#263238"></path><path d="M103,441.46c1.29,1.81,3.76,1.18,4.9.06a9.32,9.32,0,0,0,2-4.27c1-3.52,2-7.21,1.17-10.78a6,6,0,0,0-1.4-2.91,3.16,3.16,0,0,0-3-1,4.62,4.62,0,0,0-2.56,2.75,25.75,25.75,0,0,0-2.43,11,8.91,8.91,0,0,0,1.26,5.08" style="fill:#F97F29"></path><path d="M107.81,450.63a11.08,11.08,0,0,1,6.84-.9,5.74,5.74,0,0,1,3.4,1.48,2.44,2.44,0,0,1,.07,3.38,3.26,3.26,0,0,1-2.13.56c-1.81,0-3.82-.3-5.26.8-.82.63-1.36,1.67-2.34,2a2.34,2.34,0,0,1-2.58-1.12,4,4,0,0,1-.32-2.94A4.5,4.5,0,0,1,107.81,450.63Z" style="fill:#F97F29"></path><path d="M99.47,444.11a6.62,6.62,0,0,0,1-6.11,11.72,11.72,0,0,0-3.66-5.2,19.44,19.44,0,0,0-6.49-3.75,6.81,6.81,0,0,0-2.92-.46,3,3,0,0,0-2.42,1.5c-.67,1.3,0,2.87.72,4.14a49.33,49.33,0,0,0,4.3,6.43,11.52,11.52,0,0,0,4.71,3.95c1.95.72,4,.62,5-.74" style="fill:#F97F29"></path><path d="M103.13,468.92a4.16,4.16,0,0,0,.1-.83c.06-.61.12-1.36.2-2.26a32,32,0,0,1,.48-3.32,26.23,26.23,0,0,1,1.16-3.92,14.65,14.65,0,0,1,2-3.55,7.51,7.51,0,0,1,2.5-2.12,6.93,6.93,0,0,1,2.12-.68,4.09,4.09,0,0,0,.82-.13,4.39,4.39,0,0,0-.83,0,6.39,6.39,0,0,0-2.21.59,7.54,7.54,0,0,0-2.64,2.14,14.4,14.4,0,0,0-2,3.63,24.57,24.57,0,0,0-1.15,4,28.73,28.73,0,0,0-.41,3.36c-.06,1-.08,1.73-.09,2.27A3.13,3.13,0,0,0,103.13,468.92Z" style="fill:#263238"></path><path d="M103.26,467.18a1.21,1.21,0,0,0,0-.39c0-.29,0-.65,0-1.09,0-1,0-2.33,0-4,0-3.4.3-8.1.81-13.27s1.24-9.83,1.89-13.17c.16-.83.31-1.59.46-2.25s.26-1.23.38-1.69.18-.79.25-1.07a1.67,1.67,0,0,0,.06-.38,1.5,1.5,0,0,0-.13.36c-.08.28-.18.63-.31,1.06s-.28,1-.43,1.68-.34,1.41-.51,2.25a125.65,125.65,0,0,0-2,13.18c-.51,5.18-.72,9.89-.71,13.3,0,1.71,0,3.09.1,4,0,.45,0,.81.07,1.1A2.91,2.91,0,0,0,103.26,467.18Z" style="fill:#263238"></path><path d="M103.2,458.09a9.12,9.12,0,0,0,0-1.15c-.05-.73-.16-1.8-.38-3.1a42,42,0,0,0-1-4.51,40.73,40.73,0,0,0-2-5.34,28.31,28.31,0,0,0-5.64-8.6,15.13,15.13,0,0,0-1.32-1.2c-.2-.17-.38-.33-.56-.47l-.51-.34a7.54,7.54,0,0,0-1-.61A34.32,34.32,0,0,1,94,435.56a29.91,29.91,0,0,1,5.5,8.57,41.66,41.66,0,0,1,2,5.29,42.81,42.81,0,0,1,1.12,4.47c.25,1.28.4,2.34.49,3.07A7.18,7.18,0,0,0,103.2,458.09Z" style="fill:#263238"></path></g><g id="freepik--Leaves--inject-2"><path d="M100.27,334.73a13,13,0,0,0,.41,2.83,13.71,13.71,0,0,0-4.06-3.18,29.31,29.31,0,0,0-8-2.34l-.25,0a18.69,18.69,0,0,0,4.57,8.62,11.49,11.49,0,0,0,1.47,1.24c-.59.13-1.19.27-1.77.43-4,1.06-9.61,4.36-12.37,5.93A34.59,34.59,0,0,0,95,350.82c.31,0,.62,0,.92-.06a14.09,14.09,0,0,0-1.33,2.1,29.41,29.41,0,0,0-2.34,8c0,.09,0,.17,0,.25a18.79,18.79,0,0,0,8.62-4.57,12.88,12.88,0,0,0,2.43-3.48,13.1,13.1,0,0,0,.48,2.08,17.33,17.33,0,0,0,4.54,6.91l0-.21a28.49,28.49,0,0,0,.87-7.12,14.86,14.86,0,0,0-2-6.54,43.89,43.89,0,0,0-2.54-3.72h0a42.5,42.5,0,0,0,1.16-4.35,14.89,14.89,0,0,0-.33-6.81,28.54,28.54,0,0,0-3.19-6.43,1.74,1.74,0,0,1-.11-.18A17.31,17.31,0,0,0,100.27,334.73Z" style="fill:#F97F29"></path><path d="M113.76,342.12c0,.14-5,1.43-11.21,2.88s-11.3,2.5-11.34,2.36,5-1.42,11.22-2.87S113.73,342,113.76,342.12Z" style="fill:#263238"></path><path d="M101.84,344.93a11.64,11.64,0,0,1-2.18,4.35,5.91,5.91,0,0,1,.86-2.29C101.12,345.79,101.71,344.86,101.84,344.93Z" style="fill:#263238"></path><path d="M99.48,345.69c-.11.09-.7-.45-1.44-1.07s-1.36-1.13-1.29-1.26.85.2,1.63.86S99.59,345.6,99.48,345.69Z" style="fill:#263238"></path><path d="M385.65,233.7a9.39,9.39,0,0,0,.51,1.92,9.41,9.41,0,0,0-3.06-1.87,20.28,20.28,0,0,0-5.73-.95h-.17a13.1,13.1,0,0,0,3.86,5.58,9.36,9.36,0,0,0,1.12.73c-.4.14-.8.28-1.2.44-2.64,1.06-6.27,3.8-8.05,5.1a24.1,24.1,0,0,0,10.42.59l.63-.12a10.2,10.2,0,0,0-.75,1.56,20.34,20.34,0,0,0-1,5.73l0,.18a13.15,13.15,0,0,0,5.58-3.86,9.33,9.33,0,0,0,1.4-2.6,9.54,9.54,0,0,0,.49,1.39,12.12,12.12,0,0,0,3.71,4.4v-.15a19.85,19.85,0,0,0,0-5,10.36,10.36,0,0,0-1.88-4.35,29.56,29.56,0,0,0-2.06-2.36h0A29.36,29.36,0,0,0,390,237a10.43,10.43,0,0,0-.79-4.67,19.63,19.63,0,0,0-2.73-4.18l-.09-.11A12.2,12.2,0,0,0,385.65,233.7Z" style="fill:#F97F29"></path><path d="M395.57,237.69a61.27,61.27,0,0,1-7.48,3,63.48,63.48,0,0,1-7.66,2.49,61.27,61.27,0,0,1,7.48-3A63.48,63.48,0,0,1,395.57,237.69Z" style="fill:#263238"></path><path d="M387.56,240.61c.14,0,0,.8-.32,1.67s-.69,1.55-.82,1.51,0-.8.33-1.68S387.43,240.56,387.56,240.61Z" style="fill:#263238"></path><path d="M386,241.33c-.1.1-.57-.19-1.13-.56s-1-.69-.94-.83.63,0,1.23.4S386.1,241.22,386,241.33Z" style="fill:#263238"></path><path d="M191.86,261.46a7.49,7.49,0,0,0,1.39.77,7.62,7.62,0,0,0-2.77.72,16.29,16.29,0,0,0-3.72,2.77l-.11.09a10.39,10.39,0,0,0,5.35.87,7.43,7.43,0,0,0,1-.23c-.14.3-.28.61-.41.92a36.09,36.09,0,0,0-1.52,7.46,19.29,19.29,0,0,0,6.11-5.66l.28-.43A6.93,6.93,0,0,0,198,270a16.24,16.24,0,0,0,2.76,3.72l.1.11a10.48,10.48,0,0,0,.86-5.35,7.25,7.25,0,0,0-.72-2.24,7.46,7.46,0,0,0,1.08.49,9.6,9.6,0,0,0,4.58.31l-.08-.1a15.94,15.94,0,0,0-2.86-2.77,8.32,8.32,0,0,0-3.54-1.33c-.81-.12-1.16-.05-2.49-.12h0a23.58,23.58,0,0,0-1.54-2,8.31,8.31,0,0,0-3.12-2.14,15.91,15.91,0,0,0-3.91-.74H189A9.64,9.64,0,0,0,191.86,261.46Z" style="fill:#F97F29"></path><path d="M199.65,258a40.21,40.21,0,0,1-2.39,6,39.08,39.08,0,0,1-2.85,5.75,38.34,38.34,0,0,1,2.38-6A40.15,40.15,0,0,1,199.65,258Z" style="fill:#263238"></path><path d="M196.89,264.18c.13-.06.5.43.83,1.1s.49,1.26.36,1.32-.5-.42-.83-1.09S196.76,264.25,196.89,264.18Z" style="fill:#263238"></path><path d="M196.44,265.48c0,.15-.42.28-.93.39s-1,.17-1,0,.34-.42.9-.55S196.43,265.34,196.44,265.48Z" style="fill:#263238"></path><path d="M139.5,225c-.28.8.29,1.27,1,1.55-.35,0-.69.06-1,.12a3.85,3.85,0,0,0-2,.83c-.94,1,.06,2,1.06,2.5a3.49,3.49,0,0,0-2.2,2.46,1.65,1.65,0,0,0,.87,1.68,2.74,2.74,0,0,0,2.14-.05,4,4,0,0,0,1.27-.76c0,1.12.51,2.48,1.79,2A3.66,3.66,0,0,0,144,234a8.07,8.07,0,0,0,.6-.92,2.7,2.7,0,0,0,0,.57,1.17,1.17,0,0,0,.54.87,1.1,1.1,0,0,0,1.31-.23,7,7,0,0,0,2.1-3.37,8.63,8.63,0,0,0,.54-4.2c-.27-1.46-2-2.11-3.23-2.45a11.54,11.54,0,0,0-3.7-.41C141.37,224,139.81,224.16,139.5,225Z" style="fill:#F97F29"></path><path d="M151.49,223.76a49.17,49.17,0,0,1-6,4.17,51.5,51.5,0,0,1-6.23,3.73,49.84,49.84,0,0,1,5.95-4.17A51.13,51.13,0,0,1,151.49,223.76Z" style="fill:#263238"></path><path d="M146.84,226.67a4.84,4.84,0,0,1-.35,2.18,5,5,0,0,1-.85,2,9.3,9.3,0,0,1,1.2-4.22Z" style="fill:#263238"></path><path d="M139.86,228.3c0-.14.83-.13,1.79,0s1.73.4,1.71.54-.83.13-1.79,0S139.84,228.44,139.86,228.3Z" style="fill:#263238"></path><path d="M142.11,229.78c.14,0,.19.46.11,1s-.26.91-.4.88-.19-.45-.11-1S142,229.76,142.11,229.78Z" style="fill:#263238"></path><path d="M143.65,226.52c0-.14.56-.19,1.2,0s1.11.47,1.05.6-.57.06-1.18-.09S143.63,226.66,143.65,226.52Z" style="fill:#263238"></path><path d="M397.87,144.56c-.44,1.26.46,2,1.61,2.45a15,15,0,0,0-1.63.18,6.06,6.06,0,0,0-3.19,1.3c-1.49,1.52.09,3.18,1.67,4a5.51,5.51,0,0,0-3.48,3.87,2.63,2.63,0,0,0,1.38,2.66,4.29,4.29,0,0,0,3.37-.09,6,6,0,0,0,2-1.19c0,1.76.81,3.91,2.83,3.23a5.81,5.81,0,0,0,2.48-2.18,14.18,14.18,0,0,0,.95-1.47,3.92,3.92,0,0,0,0,.91,1.79,1.79,0,0,0,.84,1.37,1.76,1.76,0,0,0,2.08-.36,11.2,11.2,0,0,0,3.31-5.32,13.8,13.8,0,0,0,.85-6.63c-.43-2.3-3.09-3.33-5.1-3.86a18.25,18.25,0,0,0-5.83-.65C400.82,142.84,398.36,143.17,397.87,144.56Z" style="fill:#F97F29"></path><path d="M416.79,142.54c.07.13-4.17,3-9.48,6.45s-9.68,6.13-9.76,6,4.16-3,9.48-6.45S416.71,142.42,416.79,142.54Z" style="fill:#263238"></path><path d="M409.46,147.12a11.81,11.81,0,0,1-.7,3.4,11.7,11.7,0,0,1-1.21,3.26,12.11,12.11,0,0,1,.71-3.4A11.51,11.51,0,0,1,409.46,147.12Z" style="fill:#263238"></path><path d="M398.44,149.7a15,15,0,0,1,5.52.92,7.84,7.84,0,0,1-2.8-.2A8,8,0,0,1,398.44,149.7Z" style="fill:#263238"></path><path d="M402,152c.14,0,.15.69,0,1.5s-.34,1.44-.49,1.42-.15-.7,0-1.5S401.85,152,402,152Z" style="fill:#263238"></path><path d="M404.41,146.89c0-.14.87-.14,1.87.12s1.75.67,1.69.8-.85-.05-1.82-.3S404.39,147,404.41,146.89Z" style="fill:#263238"></path><path d="M113.14,285.41s8,4.84,12.78-4C125.92,281.46,117.05,277.26,113.14,285.41Z" style="fill:#F97F29"></path><path d="M128.69,280.45A33.76,33.76,0,0,1,123,282.5a34.6,34.6,0,0,1-5.82,1.56,33.76,33.76,0,0,1,5.66-2.05A34.6,34.6,0,0,1,128.69,280.45Z" style="fill:#263238"></path><path d="M118.16,282.16c0-.13.59-.05,1.22.18s1.08.53,1,.67-.59.05-1.22-.18S118.11,282.3,118.16,282.16Z" style="fill:#263238"></path><path d="M123.43,282.05c.12.08-.11.63-.51,1.22s-.83,1-1,.91.11-.62.52-1.21S123.32,282,123.43,282.05Z" style="fill:#263238"></path></g><g id="freepik--Rain--inject-2"><path d="M400,65.25c-.11-.09,4.31-5.57,9.86-12.23S420,41,420.06,41.13s-4.3,5.56-9.85,12.22S400.07,65.34,400,65.25Z" style="fill:#263238"></path><path d="M30.49,312.59c-.11-.09,4.3-5.57,9.85-12.23s10.15-12,10.26-11.89S46.3,294,40.74,300.7,30.6,312.68,30.49,312.59Z" style="fill:#263238"></path><path d="M438.34,203.26c-.11-.1,4.3-5.57,9.85-12.23s10.14-12,10.25-11.9-4.3,5.57-9.85,12.23S438.45,203.35,438.34,203.26Z" style="fill:#263238"></path><path d="M366.13,425.79c-.11-.09,4.3-5.57,9.85-12.23s10.14-12,10.25-11.89-4.29,5.56-9.85,12.23S366.24,425.88,366.13,425.79Z" style="fill:#263238"></path><path d="M341.28,355.84c-.11-.09,4.3-5.56,9.85-12.22s10.14-12,10.25-11.9-4.3,5.57-9.85,12.23S341.39,355.94,341.28,355.84Z" style="fill:#263238"></path><path d="M422.84,312.49c-.11-.09,4.3-5.57,9.85-12.23s10.14-12,10.25-11.89-4.3,5.56-9.85,12.23S423,312.58,422.84,312.49Z" style="fill:#263238"></path><path d="M444.81,125.05c-.11-.09,4.3-5.57,9.85-12.23s10.14-12,10.25-11.9-4.3,5.57-9.85,12.23S444.92,125.14,444.81,125.05Z" style="fill:#263238"></path><path d="M133.84,332.62c-.11-.09,4.3-5.56,9.85-12.22s10.15-12,10.26-11.9-4.3,5.57-9.86,12.23S134,332.72,133.84,332.62Z" style="fill:#263238"></path><path d="M323.92,218.72c-.11-.09,4.3-5.57,9.85-12.23s10.14-12,10.25-11.89-4.3,5.56-9.85,12.22S324,218.81,323.92,218.72Z" style="fill:#263238"></path><path d="M100.47,220.42c-.11-.09,4.3-5.57,9.85-12.23s10.14-12,10.25-11.89-4.3,5.56-9.85,12.23S100.58,220.51,100.47,220.42Z" style="fill:#263238"></path><path d="M158.78,420.7c-.11-.09,4.3-5.56,9.85-12.22s10.14-12,10.25-11.9-4.3,5.57-9.85,12.23S158.89,420.8,158.78,420.7Z" style="fill:#263238"></path><path d="M304.17,90.44c-.11-.1,4.3-5.57,9.86-12.23s10.14-12,10.25-11.9-4.3,5.57-9.85,12.23S304.28,90.53,304.17,90.44Z" style="fill:#263238"></path><path d="M114.14,129.14c-.11-.09,4.3-5.57,9.85-12.23s10.14-12,10.25-11.89-4.3,5.56-9.85,12.23S114.25,129.23,114.14,129.14Z" style="fill:#263238"></path><path d="M203.32,65.25c-.11-.09,4.31-5.57,9.86-12.23s10.14-12,10.25-11.89-4.3,5.56-9.85,12.22S203.44,65.34,203.32,65.25Z" style="fill:#263238"></path><path d="M51.56,184.59c-.11-.09,4.3-5.57,9.85-12.23s10.15-12,10.26-11.9-4.3,5.57-9.86,12.23S51.67,184.68,51.56,184.59Z" style="fill:#263238"></path><path d="M55.32,90.44c-.11-.1,4.3-5.57,9.85-12.23s10.14-12,10.25-11.9-4.3,5.57-9.85,12.23S55.43,90.53,55.32,90.44Z" style="fill:#263238"></path></g></svg>