<svg xmlns="http://www.w3.org/2000/svg" viewBox="0 0 500 500"><g id="freepik--Background--inject-17"><path id="freepik--background--inject-17" d="M120,74.44C33.17,134.7,8.29,226.12,9.66,306.63c.88,52.14,19.43,99.2,57.75,126.86,97.49,70.35,251.84,61,329,21.1,36-18.61,62.1-38.54,77.18-72.7,30.58-69.24,24.71-174.48-28.43-255.63C375.91,20.5,227.27,0,120,74.44Z" style="fill:#455a64"></path></g><g id="freepik--Floor--inject-17"><g id="freepik--floor--inject-17"><ellipse cx="250" cy="356.53" rx="227.47" ry="131.33" style="fill:#F97F29"></ellipse><ellipse cx="250" cy="356.53" rx="227.47" ry="131.33" style="fill:#fff;opacity:0.85"></ellipse><path d="M108.67,426.23c11.73-7.12,21.5.37,23.52,5.46,5.61-4.57,14.94-2.36,19.45,7.23a11.63,11.63,0,0,1,10.69-7c-3.1-2.52-9.39.37-10.84,2.75,0,0-3.3-7.15-9.9-7.88a16.26,16.26,0,0,0-8.55,1.31S122.82,412.81,108.67,426.23Z" style="fill:#F97F29;opacity:0.30000000000000004"></path><path d="M142.53,415.78c-4.14-2.39-14.08-1.22-19.41,5.25a14,14,0,0,1,3.8,1.49c1.29-3.37,11.26-8,15.78-4.71,3.23-3.3,6.8-2.7,7.68-2.19C147.71,414.08,145.68,414,142.53,415.78Z" style="fill:#F97F29;opacity:0.2"></path><path d="M126.66,414a8.72,8.72,0,0,1-.32,2.74,13.33,13.33,0,0,1-.65,1.87,15.83,15.83,0,0,0-2.57,2.48,12.48,12.48,0,0,0-6.17.14c-.33-.57-.69-1.11-1.07-1.64l-.55-.78-.23-.3-.25-.29c-.24-.26-.49-.51-.71-.78l-.07-.08-.07-.07c-.19-.18-.38-.36-.58-.52s-.7-.53-1-.78a4.48,4.48,0,0,1-1.42-1.17.6.6,0,0,1,0-.72c.39-.38.91-.08,1.36.06s.89.29,1.32.47a12.55,12.55,0,0,1,2.82,1.51,11.35,11.35,0,0,1,2.64,2.92,14.62,14.62,0,0,0,.06-3,29.42,29.42,0,0,0-.61-3.08c-.14-.61-.28-1.21-.43-1.82s-.31-.95-.46-1.44c-.06-.2-.1-.47.09-.56.38-.19,1.11.9,1.3,1.14a14.38,14.38,0,0,1,1.1,1.58,10.61,10.61,0,0,1,1,1.84,14.25,14.25,0,0,1,.51,1.65,11.61,11.61,0,0,1,.31,2.88c0,.22,0,.45,0,.67a.15.15,0,0,0,.16,0,14.35,14.35,0,0,0,2.92-7.23,1.92,1.92,0,0,1,.21-.83.32.32,0,0,1,.11-.12.26.26,0,0,1,.29.05,3.48,3.48,0,0,1,.65,1.51A7.74,7.74,0,0,1,126.66,414Z" style="fill:#F97F29"></path><path d="M126.66,414a8.72,8.72,0,0,1-.32,2.74,13.33,13.33,0,0,1-.65,1.87,15.83,15.83,0,0,0-2.57,2.48,12.48,12.48,0,0,0-6.17.14c-.33-.57-.69-1.11-1.07-1.64l-.55-.78-.23-.3-.25-.29c-.24-.26-.49-.51-.71-.78l-.07-.08-.07-.07c-.19-.18-.38-.36-.58-.52s-.7-.53-1-.78a4.48,4.48,0,0,1-1.42-1.17.6.6,0,0,1,0-.72c.39-.38.91-.08,1.36.06s.89.29,1.32.47a12.55,12.55,0,0,1,2.82,1.51,11.35,11.35,0,0,1,2.64,2.92,14.62,14.62,0,0,0,.06-3,29.42,29.42,0,0,0-.61-3.08c-.14-.61-.28-1.21-.43-1.82s-.31-.95-.46-1.44c-.06-.2-.1-.47.09-.56.38-.19,1.11.9,1.3,1.14a14.38,14.38,0,0,1,1.1,1.58,10.61,10.61,0,0,1,1,1.84,14.25,14.25,0,0,1,.51,1.65,11.61,11.61,0,0,1,.31,2.88c0,.22,0,.45,0,.67a.15.15,0,0,0,.16,0,14.35,14.35,0,0,0,2.92-7.23,1.92,1.92,0,0,1,.21-.83.32.32,0,0,1,.11-.12.26.26,0,0,1,.29.05,3.48,3.48,0,0,1,.65,1.51A7.74,7.74,0,0,1,126.66,414Z" style="opacity:0.4"></path></g></g><g id="freepik--Plants--inject-17"><g id="freepik--plants--inject-17"><path d="M346.38,428.26a8.54,8.54,0,0,0,1.7-7c-.56-3.61-.7-6.88-1.26-7.5s-2.59,3.79-3,7.67S344.88,426.88,346.38,428.26Z" style="fill:#F97F29"></path><path d="M345,432.16c-.37.58-3.11-1.26-4.56-3.9s-1.65-5.2-1.46-5.54,3.84,2.64,4.86,4.74S345.2,431.78,345,432.16Z" style="fill:#F97F29"></path><path d="M346,439.12c-.27.74-3.71-.68-5.92-3.27s-3-5.41-2.88-5.83,4.83,2.06,6.44,4.16S346.13,438.65,346,439.12Z" style="fill:#F97F29"></path><path d="M348.08,436.09c-.77-.13-.05-3.78,2.05-6.46s4.7-4,5.14-4-.3,4.15-2.81,7.14C350.76,434.82,348.58,436.17,348.08,436.09Z" style="fill:#F97F29"></path><path d="M349.39,444.79h-.57c-.62-.73-1.06-3.78-.28-6.59.9-3.28,2.78-5.53,3.2-5.65s1.33,3.93.17,7.66A11.58,11.58,0,0,1,349.39,444.79Z" style="fill:#F97F29"></path><path d="M344.32,441.1a14.48,14.48,0,0,1,2.87,3.69h-3.88a12.51,12.51,0,0,1-2.24-1.47c-2.59-2.2-3.84-4.85-3.78-5.29S342.39,439.28,344.32,441.1Z" style="fill:#F97F29"></path><path d="M348.16,436.07a10.23,10.23,0,0,0-.53,1.62c-.12.5-.23,1-.3,1.51q.35,2.81.89,5.59h-.63c-.22-.86-.42-1.72-.57-2.59l-.12-.36a10,10,0,0,0-.69-1.48c-.26-.46-.57-.9-.87-1.33a7.73,7.73,0,0,1-.93-1.3c0-.07,0-.27.1-.23a1.58,1.58,0,0,1,.59.44c.22.21.42.42.63.64a7.71,7.71,0,0,1,.94,1.32c-.1-.85-.19-1.71-.25-2.57-.28-.9-.55-1.82-.9-2.7-.26-.64-.52-1.27-.82-1.89a13.46,13.46,0,0,1-1-2.14c0-.07,0-.24.12-.17a4.91,4.91,0,0,1,1.31,1.74,13.88,13.88,0,0,1,1,2c.06.14.11.28.16.41a46.41,46.41,0,0,1,.25-9.13c0-.15.15-.12.17,0,.29,3.3.09,6.63.29,9.94,0,.63.1,1.26.16,1.88a8.59,8.59,0,0,1,.64-1.64,4.73,4.73,0,0,1,1.09-1.55c.14-.12.2.16.16.25C348.75,435,348.41,435.49,348.16,436.07Z" style="fill:#F97F29"></path><path d="M365,423.66a3.92,3.92,0,0,0,.52,4.5,4.09,4.09,0,0,0,4-2.2,2.52,2.52,0,1,0-4.47-2.3Z" style="fill:#F97F29"></path><path d="M369.46,430.9a3.93,3.93,0,0,0-2.8,3.56,4.1,4.1,0,0,0,4.37,1.21,2.52,2.52,0,1,0-1.57-4.77Z" style="fill:#F97F29"></path><path d="M363.47,441.49a3.94,3.94,0,0,0-.17,4.53,4.1,4.1,0,0,0,4.24-1.59,2.52,2.52,0,1,0-4.07-2.94Z" style="fill:#F97F29"></path><path d="M355.33,430.66a3.93,3.93,0,0,0,3.75,2.54,4.09,4.09,0,0,0,.9-4.44,2.52,2.52,0,1,0-4.65,1.9Z" style="fill:#F97F29"></path><path d="M351.39,440.46a3.93,3.93,0,0,0,4.07,2,4.09,4.09,0,0,0,.26-4.52,2.52,2.52,0,1,0-4.33,2.55Z" style="fill:#F97F29"></path><path d="M363.62,432.64a44.43,44.43,0,0,0-2.34,5.73,35.91,35.91,0,0,0-1.44,6.4,31.15,31.15,0,0,0-.27,3.61c0,.6.06,1.23.09,1.86l.39-.5c.66-.85,1.33-1.69,2-2.54s1.18-1.43,1.68-2.21c.11-.18.2.12.16.22a11.35,11.35,0,0,1-1.65,2.53c-.66.85-1.32,1.71-2,2.56-.19.25-.38.5-.58.74s-.27.35-.42.53a19.78,19.78,0,0,1-2.07,2.22h-.74a21,21,0,0,0,2.69-2.88l0-.57c0-.58-.05-1.16-.05-1.73a32.81,32.81,0,0,1,.18-3.29,35.54,35.54,0,0,1,1.37-6.54,43.66,43.66,0,0,1,2.29-5.84c.49-1,1-2,1.59-3a16.06,16.06,0,0,1,2-3c0-.05.08.07.06.1C365.72,429,364.55,430.75,363.62,432.64Z" style="fill:#F97F29"></path><path d="M362.06,424.79c0-.09.12-.06.14,0a10,10,0,0,1,.21,1.73c0,.72.09,1.43.16,2.15.15,1.52.41,3,.63,4.53,0,.28-.36.62-.47.25a23.46,23.46,0,0,1-.69-4.09A14.72,14.72,0,0,1,362.06,424.79Z" style="fill:#F97F29"></path><path d="M358.86,431.78c0-.11.13-.12.15,0,.07.34.18.65.23,1l.18,1.08c.11.69.22,1.37.36,2,.29,1.32.66,2.62,1,3.93,0,.17-.19.44-.3.21a16.48,16.48,0,0,1-1.24-3.93c-.13-.67-.26-1.35-.33-2A13.13,13.13,0,0,1,358.86,431.78Z" style="fill:#F97F29"></path><path d="M361.72,437.48a13.63,13.63,0,0,1,1.74-1.57,11.71,11.71,0,0,1,2.06-1.26,6.17,6.17,0,0,1,2.31-.76c.14,0,.12.25,0,.3-.7.34-1.43.61-2.14,1a14.12,14.12,0,0,0-1.86,1.12,12.46,12.46,0,0,0-1.67,1.41c-.24.23-.46.48-.68.73a4.46,4.46,0,0,0-.34.42c-.1.15-.14.32-.24.47s-.13.12-.19,0C360.33,438.81,361.39,437.83,361.72,437.48Z" style="fill:#F97F29"></path><path d="M355,441.66a.08.08,0,0,1,.06,0c.26,0,.34.37.44.56s.32.54.48.81a14.12,14.12,0,0,0,2.44,2.89c.38.33,1.1.79,1,1.36,0,.1-.12.3-.25.25s-.45-.42-.65-.61-.47-.41-.7-.62a12.44,12.44,0,0,1-1.32-1.4,12.72,12.72,0,0,1-1.09-1.55C355.24,442.87,354.79,442.17,355,441.66Z" style="fill:#F97F29"></path><path d="M365.41,450c-.59.58-1.19,1.16-1.8,1.73-.77.7-1.56,1.39-2.4,2h-1a35.14,35.14,0,0,0,2.94-2.38c.56-.52,1.12-1.05,1.67-1.59a9.38,9.38,0,0,0,1.56-1.71c.07-.11.15,0,.14.11A3.09,3.09,0,0,1,365.41,450Z" style="fill:#F97F29"></path><path d="M354.44,450.93q0,.82.06,1.65c0,.4.12.81.17,1.21H354c-.08-.35-.14-.7-.19-1a11.48,11.48,0,0,1-.12-1.76,6,6,0,0,1,.67-3.32.09.09,0,0,1,.16,0,3.2,3.2,0,0,1,0,1.54C354.49,449.79,354.44,450.36,354.44,450.93Z" style="fill:#F97F29"></path><g style="opacity:0.55"><path d="M365,423.66a3.92,3.92,0,0,0,.52,4.5,4.09,4.09,0,0,0,4-2.2,2.52,2.52,0,1,0-4.47-2.3Z" style="fill:#fff"></path><path d="M369.46,430.9a3.93,3.93,0,0,0-2.8,3.56,4.1,4.1,0,0,0,4.37,1.21,2.52,2.52,0,1,0-1.57-4.77Z" style="fill:#fff"></path><path d="M363.47,441.49a3.94,3.94,0,0,0-.17,4.53,4.1,4.1,0,0,0,4.24-1.59,2.52,2.52,0,1,0-4.07-2.94Z" style="fill:#fff"></path><path d="M355.33,430.66a3.93,3.93,0,0,0,3.75,2.54,4.09,4.09,0,0,0,.9-4.44,2.52,2.52,0,1,0-4.65,1.9Z" style="fill:#fff"></path><path d="M351.39,440.46a3.93,3.93,0,0,0,4.07,2,4.09,4.09,0,0,0,.26-4.52,2.52,2.52,0,1,0-4.33,2.55Z" style="fill:#fff"></path><path d="M363.62,432.64a44.43,44.43,0,0,0-2.34,5.73,35.91,35.91,0,0,0-1.44,6.4,31.15,31.15,0,0,0-.27,3.61c0,.6.06,1.23.09,1.86l.39-.5c.66-.85,1.33-1.69,2-2.54s1.18-1.43,1.68-2.21c.11-.18.2.12.16.22a11.35,11.35,0,0,1-1.65,2.53c-.66.85-1.32,1.71-2,2.56-.19.25-.38.5-.58.74s-.27.35-.42.53a19.78,19.78,0,0,1-2.07,2.22h-.74a21,21,0,0,0,2.69-2.88l0-.57c0-.58-.05-1.16-.05-1.73a32.81,32.81,0,0,1,.18-3.29,35.54,35.54,0,0,1,1.37-6.54,43.66,43.66,0,0,1,2.29-5.84c.49-1,1-2,1.59-3a16.06,16.06,0,0,1,2-3c0-.05.08.07.06.1C365.72,429,364.55,430.75,363.62,432.64Z" style="fill:#fff"></path><path d="M362.06,424.79c0-.09.12-.06.14,0a10,10,0,0,1,.21,1.73c0,.72.09,1.43.16,2.15.15,1.52.41,3,.63,4.53,0,.28-.36.62-.47.25a23.46,23.46,0,0,1-.69-4.09A14.72,14.72,0,0,1,362.06,424.79Z" style="fill:#fff"></path><path d="M358.86,431.78c0-.11.13-.12.15,0,.07.34.18.65.23,1l.18,1.08c.11.69.22,1.37.36,2,.29,1.32.66,2.62,1,3.93,0,.17-.19.44-.3.21a16.48,16.48,0,0,1-1.24-3.93c-.13-.67-.26-1.35-.33-2A13.13,13.13,0,0,1,358.86,431.78Z" style="fill:#fff"></path><path d="M361.72,437.48a13.63,13.63,0,0,1,1.74-1.57,11.71,11.71,0,0,1,2.06-1.26,6.17,6.17,0,0,1,2.31-.76c.14,0,.12.25,0,.3-.7.34-1.43.61-2.14,1a14.12,14.12,0,0,0-1.86,1.12,12.46,12.46,0,0,0-1.67,1.41c-.24.23-.46.48-.68.73a4.46,4.46,0,0,0-.34.42c-.1.15-.14.32-.24.47s-.13.12-.19,0C360.33,438.81,361.39,437.83,361.72,437.48Z" style="fill:#fff"></path><path d="M355,441.66a.08.08,0,0,1,.06,0c.26,0,.34.37.44.56s.32.54.48.81a14.12,14.12,0,0,0,2.44,2.89c.38.33,1.1.79,1,1.36,0,.1-.12.3-.25.25s-.45-.42-.65-.61-.47-.41-.7-.62a12.44,12.44,0,0,1-1.32-1.4,12.72,12.72,0,0,1-1.09-1.55C355.24,442.87,354.79,442.17,355,441.66Z" style="fill:#fff"></path><path d="M365.41,450c-.59.58-1.19,1.16-1.8,1.73-.77.7-1.56,1.39-2.4,2h-1a35.14,35.14,0,0,0,2.94-2.38c.56-.52,1.12-1.05,1.67-1.59a9.38,9.38,0,0,0,1.56-1.71c.07-.11.15,0,.14.11A3.09,3.09,0,0,1,365.41,450Z" style="fill:#fff"></path><path d="M354.44,450.93q0,.82.06,1.65c0,.4.12.81.17,1.21H354c-.08-.35-.14-.7-.19-1a11.48,11.48,0,0,1-.12-1.76,6,6,0,0,1,.67-3.32.09.09,0,0,1,.16,0,3.2,3.2,0,0,1,0,1.54C354.49,449.79,354.44,450.36,354.44,450.93Z" style="fill:#fff"></path></g></g><g id="freepik--plants--inject-17"><path d="M82.07,341.68a33.81,33.81,0,0,1,2.78,4.42,45,45,0,0,1,3.38,9.25h.6v0a28.12,28.12,0,0,0-3.53-9.77,35.12,35.12,0,0,0-2.79-4.23,18.12,18.12,0,0,0-3.74-3.93c-.1-.08-.13.17-.09.22C79.78,339,81,340.27,82.07,341.68Z" style="fill:#F97F29"></path><path d="M81,340.11a8.54,8.54,0,0,1-5.71-4.46c-1.81-3.17-3.73-5.82-3.68-6.65s4.38,1.35,7.09,4.15S81.27,338.09,81,340.11Z" style="fill:#F97F29"></path><path d="M80.39,343.08c.11-.63-1.4-1.93-4.36-2.61s-6.9-.41-7.11,0,3.48,2.75,6.64,3.11S80.29,343.67,80.39,343.08Z" style="fill:#F97F29"></path><path d="M87.32,328.54c-.49-.21-2.89,4.2-3.06,7.86-.16,3.18.15,4.93.68,5.38a.79.79,0,0,1,0,.13,9,9,0,0,0-.16,1.72,5.86,5.86,0,0,0,.78,3.34c0,.06.09,0,.08-.08-.08-1-.28-2-.29-3.07a11.79,11.79,0,0,1,.14-2c.76-.29,1.91-2.08,2.4-5.15C88.41,333.25,87.81,328.75,87.32,328.54Z" style="fill:#F97F29"></path><path d="M85.51,350.1c.18-.62-1.2-2.06-4.08-3s-6.83-1.09-7.07-.7,3.19,3.08,6.3,3.75S85.35,350.68,85.51,350.1Z" style="fill:#F97F29"></path><path d="M80.84,355.36h5.25a12.18,12.18,0,0,0-1.06-.79c-2.53-1.69-6.31-2.85-6.65-2.53S79.25,353.87,80.84,355.36Z" style="fill:#F97F29"></path><path d="M84.71,344.67a2,2,0,0,0-1-.84,8.14,8.14,0,0,0-1.44-.57,15.34,15.34,0,0,0-3.23-.53c-.11,0-.15.25,0,.28,1,.32,2,.54,3,.82a8.31,8.31,0,0,1,1.37.5c.21.11.41.21.61.33s.39.29.59.25S84.74,344.72,84.71,344.67Z" style="fill:#F97F29"></path><path d="M86,349.88a7,7,0,0,0-1.16-.42,4.23,4.23,0,0,0-1.22-.13c-.1,0-.13.19,0,.22.74.24,1.47.52,2.18.83a7.06,7.06,0,0,1,1,.52,1.7,1.7,0,0,1,.62.63c.12.22.37.18.35-.09C87.61,350.64,86.57,350.18,86,349.88Z" style="fill:#F97F29"></path><path d="M90.73,355.36h.58c.62-.72,1-3.77.28-6.58-.9-3.28-2.78-5.53-3.21-5.65s-1.32,3.93-.17,7.66A11.57,11.57,0,0,0,90.73,355.36Z" style="fill:#F97F29"></path><g style="opacity:0.15"><path d="M82.07,341.68a33.81,33.81,0,0,1,2.78,4.42,45,45,0,0,1,3.38,9.25h.6v0a28.12,28.12,0,0,0-3.53-9.77,35.12,35.12,0,0,0-2.79-4.23,18.12,18.12,0,0,0-3.74-3.93c-.1-.08-.13.17-.09.22C79.78,339,81,340.27,82.07,341.68Z"></path><path d="M81,340.11a8.54,8.54,0,0,1-5.71-4.46c-1.81-3.17-3.73-5.82-3.68-6.65s4.38,1.35,7.09,4.15S81.27,338.09,81,340.11Z"></path><path d="M80.39,343.08c.11-.63-1.4-1.93-4.36-2.61s-6.9-.41-7.11,0,3.48,2.75,6.64,3.11S80.29,343.67,80.39,343.08Z"></path><path d="M87.32,328.54c-.49-.21-2.89,4.2-3.06,7.86-.16,3.18.15,4.93.68,5.38a.79.79,0,0,1,0,.13,9,9,0,0,0-.16,1.72,5.86,5.86,0,0,0,.78,3.34c0,.06.09,0,.08-.08-.08-1-.28-2-.29-3.07a11.79,11.79,0,0,1,.14-2c.76-.29,1.91-2.08,2.4-5.15C88.41,333.25,87.81,328.75,87.32,328.54Z"></path><path d="M85.51,350.1c.18-.62-1.2-2.06-4.08-3s-6.83-1.09-7.07-.7,3.19,3.08,6.3,3.75S85.35,350.68,85.51,350.1Z"></path><path d="M80.84,355.36h5.25a12.18,12.18,0,0,0-1.06-.79c-2.53-1.69-6.31-2.85-6.65-2.53S79.25,353.87,80.84,355.36Z"></path><path d="M84.71,344.67a2,2,0,0,0-1-.84,8.14,8.14,0,0,0-1.44-.57,15.34,15.34,0,0,0-3.23-.53c-.11,0-.15.25,0,.28,1,.32,2,.54,3,.82a8.31,8.31,0,0,1,1.37.5c.21.11.41.21.61.33s.39.29.59.25S84.74,344.72,84.71,344.67Z"></path><path d="M86,349.88a7,7,0,0,0-1.16-.42,4.23,4.23,0,0,0-1.22-.13c-.1,0-.13.19,0,.22.74.24,1.47.52,2.18.83a7.06,7.06,0,0,1,1,.52,1.7,1.7,0,0,1,.62.63c.12.22.37.18.35-.09C87.61,350.64,86.57,350.18,86,349.88Z"></path><path d="M90.73,355.36h.58c.62-.72,1-3.77.28-6.58-.9-3.28-2.78-5.53-3.21-5.65s-1.32,3.93-.17,7.66A11.57,11.57,0,0,0,90.73,355.36Z"></path></g><path d="M93.74,338.84a8.54,8.54,0,0,1-1.69-7c.55-3.61.69-6.88,1.25-7.5s2.59,3.79,3,7.67S95.24,337.45,93.74,338.84Z" style="fill:#F97F29"></path><path d="M95.17,342.73c.37.59,3.11-1.26,4.57-3.89s1.65-5.2,1.45-5.54-3.83,2.64-4.85,4.74S94.93,342.36,95.17,342.73Z" style="fill:#F97F29"></path><path d="M94.17,349.7c.28.74,3.71-.69,5.92-3.27s3-5.41,2.89-5.83-4.84,2-6.44,4.16S94,349.23,94.17,349.7Z" style="fill:#F97F29"></path><path d="M92,346.66c.78-.12.06-3.77-2-6.45s-4.71-4-5.15-4,.3,4.15,2.81,7.14C89.36,345.4,91.54,346.75,92,346.66Z" style="fill:#F97F29"></path><path d="M95.81,351.68a14.48,14.48,0,0,0-2.88,3.68h3.89a11.86,11.86,0,0,0,2.23-1.46c2.6-2.2,3.85-4.85,3.78-5.29S97.73,349.86,95.81,351.68Z" style="fill:#F97F29"></path><path d="M92,346.65a11.36,11.36,0,0,1,.53,1.62c.12.5.23,1,.3,1.51-.23,1.87-.54,3.73-.9,5.58h.63c.22-.85.42-1.71.57-2.58l.12-.36a11.08,11.08,0,0,1,.69-1.48c.26-.46.57-.9.87-1.33a8.23,8.23,0,0,0,.94-1.3c0-.07,0-.27-.1-.23a1.61,1.61,0,0,0-.6.44c-.21.2-.42.42-.62.64a7.25,7.25,0,0,0-1,1.32c.1-.86.19-1.71.26-2.57.28-.9.54-1.82.89-2.7.26-.64.53-1.27.82-1.89a13.46,13.46,0,0,0,1-2.14c0-.07,0-.24-.11-.17A4.82,4.82,0,0,0,95,342.75a15,15,0,0,0-1,2l-.15.41a47.19,47.19,0,0,0-.25-9.13c0-.15-.16-.12-.17,0-.29,3.31-.1,6.64-.3,9.95,0,.63-.1,1.25-.16,1.88a9.27,9.27,0,0,0-.63-1.64,4.76,4.76,0,0,0-1.1-1.55c-.14-.12-.2.16-.16.25C91.37,345.53,91.72,346.07,92,346.65Z" style="fill:#F97F29"></path><path d="M64.67,348.17a3.94,3.94,0,0,1-.52,4.5,4.12,4.12,0,0,1-4-2.2,2.53,2.53,0,1,1,4.48-2.3Z" style="fill:#F97F29"></path><path d="M60.22,355.4A3.93,3.93,0,0,1,63,359a4.1,4.1,0,0,1-4.36,1.21,2.52,2.52,0,1,1,1.57-4.78Z" style="fill:#F97F29"></path><path d="M66.21,366a3.92,3.92,0,0,1,.17,4.52,4.08,4.08,0,0,1-4.24-1.58A2.52,2.52,0,1,1,66.21,366Z" style="fill:#F97F29"></path><path d="M74.35,355.17a3.93,3.93,0,0,1-3.75,2.53,4.08,4.08,0,0,1-.91-4.43,2.52,2.52,0,1,1,4.66,1.9Z" style="fill:#F97F29"></path><path d="M78.29,365a3.93,3.93,0,0,1-4.08,2,4.1,4.1,0,0,1-.26-4.52A2.52,2.52,0,1,1,78.29,365Z" style="fill:#F97F29"></path><path d="M66.06,357.15a42.33,42.33,0,0,1,2.33,5.72,35.28,35.28,0,0,1,1.45,6.4,31.3,31.3,0,0,1,.26,3.61c0,.6-.06,1.24-.09,1.86l-.38-.49c-.66-.85-1.33-1.69-2-2.54s-1.18-1.43-1.68-2.22c-.11-.17-.21.13-.17.23a11.11,11.11,0,0,0,1.66,2.52l2,2.57.59.74c.18.24.27.35.42.53a21.55,21.55,0,0,0,2.06,2.21h.75a21.47,21.47,0,0,1-2.69-2.87l0-.58c0-.57,0-1.15,0-1.73a32.81,32.81,0,0,0-.19-3.29,33.86,33.86,0,0,0-1.37-6.53,41.94,41.94,0,0,0-2.28-5.85c-.49-1-1-2-1.59-3a16.14,16.14,0,0,0-2-3s-.08.08-.07.11C64,353.46,65.13,355.25,66.06,357.15Z" style="fill:#F97F29"></path><path d="M67.61,349.3c0-.1-.12-.06-.14,0a11.18,11.18,0,0,0-.2,1.73c0,.72-.09,1.44-.16,2.15-.15,1.53-.41,3-.64,4.54,0,.27.37.61.48.24a23.5,23.5,0,0,0,.69-4.08A14.72,14.72,0,0,0,67.61,349.3Z" style="fill:#F97F29"></path><path d="M70.82,356.28c0-.11-.13-.12-.15,0-.07.33-.18.64-.24,1s-.11.72-.17,1.08c-.11.68-.22,1.36-.37,2-.28,1.32-.65,2.61-1,3.92,0,.17.19.45.3.21a16.32,16.32,0,0,0,1.23-3.93,19.35,19.35,0,0,0,.34-2A14.34,14.34,0,0,0,70.82,356.28Z" style="fill:#F97F29"></path><path d="M68,362a14.43,14.43,0,0,0-1.74-1.57,12.76,12.76,0,0,0-2.06-1.26,6.22,6.22,0,0,0-2.32-.76c-.13,0-.11.26,0,.3.7.35,1.44.61,2.14,1a13.56,13.56,0,0,1,1.86,1.13,13.27,13.27,0,0,1,1.68,1.4c.23.24.46.48.68.74a4.78,4.78,0,0,1,.34.42c.1.15.14.31.24.46s.12.13.18.05C69.35,363.31,68.29,362.34,68,362Z" style="fill:#F97F29"></path><path d="M74.63,366.16a.07.07,0,0,0,0,0c-.26,0-.34.37-.44.56s-.32.55-.49.82a13.34,13.34,0,0,1-1.09,1.5,13.54,13.54,0,0,1-1.35,1.38c-.37.33-1.09.8-1,1.36,0,.1.11.31.25.26s.44-.42.65-.62.47-.41.7-.62a11.55,11.55,0,0,0,1.32-1.39,12,12,0,0,0,1.08-1.56C74.44,367.38,74.89,366.67,74.63,366.16Z" style="fill:#F97F29"></path><path d="M64.26,374.54c.6.58,1.2,1.17,1.81,1.73a27.27,27.27,0,0,0,2.4,2h1a33.24,33.24,0,0,1-2.94-2.38c-.57-.52-1.12-1.05-1.67-1.58a10.09,10.09,0,0,1-1.56-1.71c-.07-.12-.15,0-.14.11A3,3,0,0,0,64.26,374.54Z" style="fill:#F97F29"></path><path d="M75.23,375.44c0,.55,0,1.1,0,1.64s-.12.81-.17,1.21h.69c.08-.34.14-.7.19-1A13,13,0,0,0,76,375.5a6.13,6.13,0,0,0-.67-3.33.09.09,0,0,0-.16,0,3.25,3.25,0,0,0,0,1.55C75.18,374.3,75.23,374.87,75.23,375.44Z" style="fill:#F97F29"></path><g style="opacity:0.55"><path d="M64.67,348.17a3.94,3.94,0,0,1-.52,4.5,4.12,4.12,0,0,1-4-2.2,2.53,2.53,0,1,1,4.48-2.3Z" style="fill:#fff"></path><path d="M60.22,355.4A3.93,3.93,0,0,1,63,359a4.1,4.1,0,0,1-4.36,1.21,2.52,2.52,0,1,1,1.57-4.78Z" style="fill:#fff"></path><path d="M66.21,366a3.92,3.92,0,0,1,.17,4.52,4.08,4.08,0,0,1-4.24-1.58A2.52,2.52,0,1,1,66.21,366Z" style="fill:#fff"></path><path d="M74.35,355.17a3.93,3.93,0,0,1-3.75,2.53,4.08,4.08,0,0,1-.91-4.43,2.52,2.52,0,1,1,4.66,1.9Z" style="fill:#fff"></path><path d="M78.29,365a3.93,3.93,0,0,1-4.08,2,4.1,4.1,0,0,1-.26-4.52A2.52,2.52,0,1,1,78.29,365Z" style="fill:#fff"></path><path d="M66.06,357.15a42.33,42.33,0,0,1,2.33,5.72,35.28,35.28,0,0,1,1.45,6.4,31.3,31.3,0,0,1,.26,3.61c0,.6-.06,1.24-.09,1.86l-.38-.49c-.66-.85-1.33-1.69-2-2.54s-1.18-1.43-1.68-2.22c-.11-.17-.21.13-.17.23a11.11,11.11,0,0,0,1.66,2.52l2,2.57.59.74c.18.24.27.35.42.53a21.55,21.55,0,0,0,2.06,2.21h.75a21.47,21.47,0,0,1-2.69-2.87l0-.58c0-.57,0-1.15,0-1.73a32.81,32.81,0,0,0-.19-3.29,33.86,33.86,0,0,0-1.37-6.53,41.94,41.94,0,0,0-2.28-5.85c-.49-1-1-2-1.59-3a16.14,16.14,0,0,0-2-3s-.08.08-.07.11C64,353.46,65.13,355.25,66.06,357.15Z" style="fill:#fff"></path><path d="M67.61,349.3c0-.1-.12-.06-.14,0a11.18,11.18,0,0,0-.2,1.73c0,.72-.09,1.44-.16,2.15-.15,1.53-.41,3-.64,4.54,0,.27.37.61.48.24a23.5,23.5,0,0,0,.69-4.08A14.72,14.72,0,0,0,67.61,349.3Z" style="fill:#fff"></path><path d="M70.82,356.28c0-.11-.13-.12-.15,0-.07.33-.18.64-.24,1s-.11.72-.17,1.08c-.11.68-.22,1.36-.37,2-.28,1.32-.65,2.61-1,3.92,0,.17.19.45.3.21a16.32,16.32,0,0,0,1.23-3.93,19.35,19.35,0,0,0,.34-2A14.34,14.34,0,0,0,70.82,356.28Z" style="fill:#fff"></path><path d="M68,362a14.43,14.43,0,0,0-1.74-1.57,12.76,12.76,0,0,0-2.06-1.26,6.22,6.22,0,0,0-2.32-.76c-.13,0-.11.26,0,.3.7.35,1.44.61,2.14,1a13.56,13.56,0,0,1,1.86,1.13,13.27,13.27,0,0,1,1.68,1.4c.23.24.46.48.68.74a4.78,4.78,0,0,1,.34.42c.1.15.14.31.24.46s.12.13.18.05C69.35,363.31,68.29,362.34,68,362Z" style="fill:#fff"></path><path d="M74.63,366.16a.07.07,0,0,0,0,0c-.26,0-.34.37-.44.56s-.32.55-.49.82a13.34,13.34,0,0,1-1.09,1.5,13.54,13.54,0,0,1-1.35,1.38c-.37.33-1.09.8-1,1.36,0,.1.11.31.25.26s.44-.42.65-.62.47-.41.7-.62a11.55,11.55,0,0,0,1.32-1.39,12,12,0,0,0,1.08-1.56C74.44,367.38,74.89,366.67,74.63,366.16Z" style="fill:#fff"></path><path d="M64.26,374.54c.6.58,1.2,1.17,1.81,1.73a27.27,27.27,0,0,0,2.4,2h1a33.24,33.24,0,0,1-2.94-2.38c-.57-.52-1.12-1.05-1.67-1.58a10.09,10.09,0,0,1-1.56-1.71c-.07-.12-.15,0-.14.11A3,3,0,0,0,64.26,374.54Z" style="fill:#fff"></path><path d="M75.23,375.44c0,.55,0,1.1,0,1.64s-.12.81-.17,1.21h.69c.08-.34.14-.7.19-1A13,13,0,0,0,76,375.5a6.13,6.13,0,0,0-.67-3.33.09.09,0,0,0-.16,0,3.25,3.25,0,0,0,0,1.55C75.18,374.3,75.23,374.87,75.23,375.44Z" style="fill:#fff"></path></g><path d="M88.53,361.63a3.92,3.92,0,0,1-3.7,2.61,4.09,4.09,0,0,1-1-4.42,2.52,2.52,0,1,1,4.69,1.81Z" style="fill:#F97F29"></path><path d="M91.54,368.84a3.93,3.93,0,0,1-4.46-.81,4.11,4.11,0,0,1,2.46-3.8,2.52,2.52,0,1,1,2,4.61Z" style="fill:#F97F29"></path><path d="M88.8,367.32a2.25,2.25,0,0,0-1.24.24,5.58,5.58,0,0,0-1,.48,8.93,8.93,0,0,0-1.93,1.48,8.8,8.8,0,0,0-1.42,1.8c0-.26,0-.53.07-.79a18.26,18.26,0,0,1,.55-2.84c.26-.89.62-1.73,1-2.59a5.29,5.29,0,0,0,.5-2.47c0-.06-.07-.06-.1,0a7,7,0,0,0-.58,1.38c-.16.44-.35.86-.52,1.29a19.22,19.22,0,0,0-.83,2.46c0-.22-.06-.43-.09-.63a6.89,6.89,0,0,0-1.34-3.32c-.1-.12-.15.15-.13.21.3,1,.7,1.88.91,2.88a16.94,16.94,0,0,1,.25,2.75,11.29,11.29,0,0,0-.11,2.78h.71a6.1,6.1,0,0,1,.37-.72,9.22,9.22,0,0,1,1.47-1.76A11,11,0,0,1,87,368.59c.3-.18.6-.34.91-.5s.73-.27.93-.54C88.87,367.5,88.88,367.35,88.8,367.32Z" style="fill:#F97F29"></path><g style="opacity:0.35000000000000003"><path d="M88.53,361.63a3.92,3.92,0,0,1-3.7,2.61,4.09,4.09,0,0,1-1-4.42,2.52,2.52,0,1,1,4.69,1.81Z" style="fill:#fff"></path><path d="M91.54,368.84a3.93,3.93,0,0,1-4.46-.81,4.11,4.11,0,0,1,2.46-3.8,2.52,2.52,0,1,1,2,4.61Z" style="fill:#fff"></path><path d="M88.8,367.32a2.25,2.25,0,0,0-1.24.24,5.58,5.58,0,0,0-1,.48,8.93,8.93,0,0,0-1.93,1.48,8.8,8.8,0,0,0-1.42,1.8c0-.26,0-.53.07-.79a18.26,18.26,0,0,1,.55-2.84c.26-.89.62-1.73,1-2.59a5.29,5.29,0,0,0,.5-2.47c0-.06-.07-.06-.1,0a7,7,0,0,0-.58,1.38c-.16.44-.35.86-.52,1.29a19.22,19.22,0,0,0-.83,2.46c0-.22-.06-.43-.09-.63a6.89,6.89,0,0,0-1.34-3.32c-.1-.12-.15.15-.13.21.3,1,.7,1.88.91,2.88a16.94,16.94,0,0,1,.25,2.75,11.29,11.29,0,0,0-.11,2.78h.71a6.1,6.1,0,0,1,.37-.72,9.22,9.22,0,0,1,1.47-1.76A11,11,0,0,1,87,368.59c.3-.18.6-.34.91-.5s.73-.27.93-.54C88.87,367.5,88.88,367.35,88.8,367.32Z" style="fill:#fff"></path></g><path d="M60.59,372.66a3.93,3.93,0,0,1,.55,4.49,4.09,4.09,0,0,1-4.36-1.21,2.52,2.52,0,1,1,3.81-3.28Z" style="fill:#F97F29"></path><path d="M60.33,376.61a5.47,5.47,0,0,1,.41.54c.24.36.48.71.71,1.07a10.5,10.5,0,0,1,.57,1,3.29,3.29,0,0,1,.16.44h.59a4,4,0,0,0-.14-.39A5.51,5.51,0,0,0,62,378a14.11,14.11,0,0,0-.85-1.18c-.16-.19-.31-.38-.48-.56a1.25,1.25,0,0,0-.58-.44c-.18-.05-.16.26-.11.34A2.1,2.1,0,0,0,60.33,376.61Z" style="fill:#F97F29"></path><g style="opacity:0.35000000000000003"><path d="M60.59,372.66a3.93,3.93,0,0,1,.55,4.49,4.09,4.09,0,0,1-4.36-1.21,2.52,2.52,0,1,1,3.81-3.28Z" style="fill:#fff"></path><path d="M60.33,376.61a5.47,5.47,0,0,1,.41.54c.24.36.48.71.71,1.07a10.5,10.5,0,0,1,.57,1,3.29,3.29,0,0,1,.16.44h.59a4,4,0,0,0-.14-.39A5.51,5.51,0,0,0,62,378a14.11,14.11,0,0,0-.85-1.18c-.16-.19-.31-.38-.48-.56a1.25,1.25,0,0,0-.58-.44c-.18-.05-.16.26-.11.34A2.1,2.1,0,0,0,60.33,376.61Z" style="fill:#fff"></path></g></g></g><g id="freepik--Footprints--inject-17"><g id="freepik--footprints--inject-17"><path d="M353.87,373.9c-5.66,2.25-6.54,4.53-2.82,7s11.73,2,15.62-.16c5-2.8,4.51-5.15,9.56-6.29s9.69-2.38,5-5.25c-3.36-2.08-8.41-2.64-13.7.67S358.12,372.22,353.87,373.9Z" style="fill:#F97F29;opacity:0.30000000000000004"></path><path d="M437.82,331.56c-5.86,1.68-7,3.87-3.49,6.65s11.48,3.15,15.56,1.36c5.24-2.3,5-4.69,10.13-5.33s9.88-1.42,5.54-4.74c-3.14-2.39-8.12-3.44-13.71-.67S442.21,330.3,437.82,331.56Z" style="fill:#F97F29;opacity:0.30000000000000004"></path><path d="M435.64,358.37c-5.41,2.8-6.06,5.16-2.11,7.2s11.87.85,15.52-1.71c4.69-3.28,4-5.57,8.89-7.21s9.4-3.33,4.5-5.73c-3.55-1.73-8.64-1.79-13.57,2S439.7,356.27,435.64,358.37Z" style="fill:#F97F29;opacity:0.30000000000000004"></path><path d="M285.89,372.62c8,3.5,9.16,6.82,3.7,10.12s-16.92,2.32-22.4-1c-7-4.26-7.07-7.11-13.4-9.5-7-2.63-12.44-4.9-5.64-8.8,4.92-2.81,10.86-2.35,18.28,2.65S279.88,370,285.89,372.62Z" style="fill:#F97F29;opacity:0.30000000000000004"></path><path d="M176.27,317.32c7.85,2.48,9.26,5.47,4.47,9.1s-15.6,3.85-21.05,1.29c-7-3.28-7.32-5.94-13.49-7.54-6.77-1.77-12.12-3.35-6.14-7.67,4.32-3.13,9.92-3.28,17.36.65S170.39,315.47,176.27,317.32Z" style="fill:#F97F29;opacity:0.30000000000000004"></path><path d="M203.84,357.37c-3.16,1-4.32,5-5,12.57s-4.35,12.23-4.08,19.18c.35,9,13.69,15.1,18.67,9s3.19-15.08,2.08-22.36-.12-11.42-2.08-15.16S206.72,356.46,203.84,357.37Z" style="fill:#F97F29;opacity:0.30000000000000004"></path><path d="M182.93,350.63c7.48,3.38,8.52,6.51,3.35,9.54s-15.92,2-21-1.22c-6.53-4.08-5.73-7.22-12.47-9.08s-12.89-3.82-6.45-7.39c4.65-2.58,11.49-3,18.4,1.78S177.32,348.09,182.93,350.63Z" style="fill:#F97F29;opacity:0.30000000000000004"></path><path d="M412,374.47c.22,4.13-.57,7.34.71,11.36a10.31,10.31,0,0,0,2.68,4.26c5.27,4.4,10.87-1.61,11.24-5.13.33-3.27-1.26-5.85-2.17-8.87-1.12-3.71-.39-10.3-5.61-11a6.92,6.92,0,0,0-2.52.21C412.5,366.29,411.84,371.23,412,374.47Z" style="fill:#F97F29;opacity:0.30000000000000004"></path></g></g><g id="freepik--Shadows--inject-17"><ellipse id="freepik--Shadow--inject-17" cx="242.49" cy="382.71" rx="59.21" ry="34.18" style="fill:#F97F29;opacity:0.30000000000000004"></ellipse><ellipse id="freepik--shadow--inject-17" cx="388.1" cy="379.66" rx="44.79" ry="25.86" style="fill:#F97F29;opacity:0.30000000000000004"></ellipse></g><g id="freepik--Tree--inject-17"><g id="freepik--Pine--inject-17"><g id="freepik--pine--inject-17"><path d="M95.81,144.71V282.07c0,1.65,1.08,3.29,3.26,4.55a17.41,17.41,0,0,0,15.78,0c2.18-1.26,3.27-2.9,3.27-4.55V144.71Z" style="fill:#b16668"></path><path d="M180.88,215.8,111.77,48.92h-9.62L33,215.81a8.83,8.83,0,0,0,6.44,12l1.13.23a8.84,8.84,0,0,1,7,9.75h0A8.83,8.83,0,0,0,59,247.37l3.41-1.05a8.83,8.83,0,0,1,10.64,4.79l3.43,7.58a8.84,8.84,0,0,0,12.55,3.95l13.41-7.95a8.8,8.8,0,0,1,9,0l13.41,7.95a8.83,8.83,0,0,0,12.55-3.95l3.44-7.58a8.81,8.81,0,0,1,10.63-4.79l3.42,1.05a8.84,8.84,0,0,0,11.36-9.54h0a8.81,8.81,0,0,1,7-9.75l1.13-.23A8.84,8.84,0,0,0,180.88,215.8Z" style="fill:#F97F29"></path><path d="M180.88,215.8,111.77,48.92h-9.62L33,215.81a8.83,8.83,0,0,0,6.44,12l1.13.23a8.84,8.84,0,0,1,7,9.75h0A8.83,8.83,0,0,0,59,247.37l3.41-1.05a8.83,8.83,0,0,1,10.64,4.79l3.43,7.58a8.84,8.84,0,0,0,12.55,3.95l13.41-7.95a8.8,8.8,0,0,1,9,0l13.41,7.95a8.83,8.83,0,0,0,12.55-3.95l3.44-7.58a8.81,8.81,0,0,1,10.63-4.79l3.42,1.05a8.84,8.84,0,0,0,11.36-9.54h0a8.81,8.81,0,0,1,7-9.75l1.13-.23A8.84,8.84,0,0,0,180.88,215.8Z" style="opacity:0.15"></path><path d="M94.43,67.56,102.15,50h9.62l12.77,29.72,41.71,100.72a5.11,5.11,0,0,1-4.35,4.13h0a6.67,6.67,0,0,0-5.55,7.36l.15,1.28a6.68,6.68,0,0,1-9,7l-3.42-1.31a6.67,6.67,0,0,0-8.47,3.53L131.36,212a6.68,6.68,0,0,1-9.52,3l-11.46-7.64a6.66,6.66,0,0,0-6.84,0L90.75,215a6.67,6.67,0,0,1-9.52-3L77,202.47a6.67,6.67,0,0,0-8.47-3.53l-3.42,1.31a6.68,6.68,0,0,1-9-7l.15-1.27a6.68,6.68,0,0,0-5.55-7.37,5.06,5.06,0,0,1-3.7-2.46Z" style="opacity:0.15"></path><path d="M165.47,167.28l-53.7-125h-9.62l-55,125c-2,4-.85,8.81,3.57,9.54a6.67,6.67,0,0,1,5.55,7.36l-.15,1.28a6.68,6.68,0,0,0,9,7l3.42-1.3A6.67,6.67,0,0,1,77,194.69l4.24,9.51a6.67,6.67,0,0,0,9.52,3l12.79-7.63a6.66,6.66,0,0,1,6.84,0l11.46,7.63a6.68,6.68,0,0,0,9.52-3l4.24-9.52a6.67,6.67,0,0,1,8.47-3.52l3.42,1.3a6.68,6.68,0,0,0,9-7l-.15-1.28a6.67,6.67,0,0,1,5.55-7.36h0C166.32,176.09,167.45,171.3,165.47,167.28Z" style="fill:#F97F29"></path><path d="M102.15,42.25h9.62l39.14,91.11a5.83,5.83,0,0,1-1,.69l-.3.17a6,6,0,0,0-3.05,5.76h0a6,6,0,0,1-7.53,6.33l-2.33-.62a6,6,0,0,0-6.84,3l-3.2,6a6,6,0,0,1-8.09,2.49l-8.83-4.61a6,6,0,0,0-5.58,0l-8.83,4.61a6,6,0,0,1-8.09-2.49l-3.2-6a6,6,0,0,0-6.84-3l-2.33.62A6,6,0,0,1,67.36,140a6,6,0,0,0-3.06-5.76l-.3-.16a6.23,6.23,0,0,1-1.65-1.4Z" style="opacity:0.15"></path><path d="M152.1,118.1,111.73,33.26l-.31-.51a5.14,5.14,0,0,0-8.92,0l-.32.52L61.83,118.1A6,6,0,0,0,64,126.51l.3.17a6,6,0,0,1,3.06,5.76,6,6,0,0,0,7.52,6.32l2.33-.61a6,6,0,0,1,6.84,3l3.2,6a6,6,0,0,0,8.09,2.49l8.83-4.62a6,6,0,0,1,5.58,0l8.83,4.62a6,6,0,0,0,8.09-2.49l3.2-6a6,6,0,0,1,6.84-3l2.33.61a6,6,0,0,0,7.53-6.32h0a6,6,0,0,1,3.05-5.75l.3-.17A6,6,0,0,0,152.1,118.1Z" style="fill:#F97F29"></path><path d="M152.1,118.1,111.73,33.26l-.31-.51a5.14,5.14,0,0,0-8.92,0l-.32.52L61.83,118.1A6,6,0,0,0,64,126.51l.3.17a6,6,0,0,1,3.06,5.76,6,6,0,0,0,7.52,6.32l2.33-.61a6,6,0,0,1,6.84,3l3.2,6a6,6,0,0,0,8.09,2.49l8.83-4.62a6,6,0,0,1,5.58,0l8.83,4.62a6,6,0,0,0,8.09-2.49l3.2-6a6,6,0,0,1,6.84-3l2.33.61a6,6,0,0,0,7.53-6.32h0a6,6,0,0,1,3.05-5.75l.3-.17A6,6,0,0,0,152.1,118.1Z" style="fill:#fff;opacity:0.2"></path><path d="M76.62,91.5a4.62,4.62,0,0,0,5.77,4.85l1.79-.48a4.61,4.61,0,0,1,5.23,2.28l2.45,4.58a4.62,4.62,0,0,0,6.2,1.9l6.77-3.53a4.58,4.58,0,0,1,4.26,0l6.77,3.54a4.63,4.63,0,0,0,6.2-1.91l2.45-4.58a4.61,4.61,0,0,1,5.23-2.28l1.79.48a4.62,4.62,0,0,0,5.77-4.85h0a4.57,4.57,0,0,1,.75-2.92L111.73,33.26l-.31-.51a5.14,5.14,0,0,0-8.92,0l-.32.52L75.87,88.58A4.59,4.59,0,0,1,76.62,91.5Z" style="fill:#fff;opacity:0.9"></path><path d="M101.58,286.38a6.85,6.85,0,0,0-13.7,0v.38a3.55,3.55,0,0,0,2,2.61,10.74,10.74,0,0,0,9.69,0,3.54,3.54,0,0,0,2-2.61v-.38Z" style="fill:#37474f"></path><path d="M99.57,289.37a3.54,3.54,0,0,0,2-2.61v-.38A6.85,6.85,0,0,0,98,280.56c0,.06,3.4,4.3.91,7.13-1.72,1.95-7.63,2.3-10.23.76a5.2,5.2,0,0,0,1.18.92A10.74,10.74,0,0,0,99.57,289.37Z" style="fill:#263238"></path><path d="M90.5,289.82a4.84,4.84,0,0,0-9.67,0v.27a2.5,2.5,0,0,0,1.41,1.84,7.52,7.52,0,0,0,6.85,0,2.46,2.46,0,0,0,1.41-1.84.57.57,0,0,0,0-.13A.66.66,0,0,0,90.5,289.82Z" style="fill:#455a64"></path><path d="M89.09,291.93a2.46,2.46,0,0,0,1.41-1.84.57.57,0,0,0,0-.13.66.66,0,0,0,0-.14,4.75,4.75,0,0,0-.32-1.6c.12,2.07-.87,3.33-3.92,3.72s-5.05-.91-5.32-1.38a2.82,2.82,0,0,0,1.3,1.37A7.52,7.52,0,0,0,89.09,291.93Z" style="fill:#37474f"></path><path d="M126,285a4.8,4.8,0,0,0-9.6,0v.27a2.47,2.47,0,0,0,1.4,1.83,7.54,7.54,0,0,0,6.8,0,2.45,2.45,0,0,0,1.4-1.83.62.62,0,0,0,0-.13A.66.66,0,0,0,126,285Z" style="fill:#455a64"></path><path d="M124.58,287.08a2.45,2.45,0,0,0,1.4-1.83.62.62,0,0,0,0-.13.66.66,0,0,0,0-.14,4.69,4.69,0,0,0-.32-1.59c.12,2.06-.86,3.31-3.89,3.69s-5-.9-5.28-1.36a2.82,2.82,0,0,0,1.29,1.36A7.54,7.54,0,0,0,124.58,287.08Z" style="fill:#37474f"></path></g><g style="opacity:0.9"><circle cx="88.55" cy="108.16" r="3" style="fill:#fff;opacity:0.9"></circle><circle cx="124.55" cy="194.16" r="3" style="fill:#fff;opacity:0.9"></circle><circle cx="85.55" cy="250.16" r="3" style="fill:#fff;opacity:0.9"></circle><circle cx="101.55" cy="111.16" r="2" style="fill:#fff;opacity:0.9"></circle><circle cx="114.55" cy="190.16" r="2" style="fill:#fff;opacity:0.9"></circle><circle cx="95.55" cy="247.16" r="2" style="fill:#fff;opacity:0.9"></circle><circle cx="92.55" cy="114.16" r="1" style="fill:#fff;opacity:0.9"></circle><circle cx="124.55" cy="105.16" r="1" style="fill:#fff;opacity:0.9"></circle><circle cx="128.55" cy="186.16" r="1" style="fill:#fff;opacity:0.9"></circle></g></g></g><g id="freepik--character-2--inject-17"><g id="freepik--Character--inject-17"><g id="freepik--Bottom--inject-17"><path d="M366.88,261.36h44.34l2.36,56.26s3,3.43,3.77,11.6c.65,6.93,1.19,16.19,1.19,16.19a13,13,0,0,1-6.13,4.23,21,21,0,0,1-8.61.95S399.28,340,398.17,337c-1.47-4-2.41-6.82-4.82-13.6s-4.21-24-4.21-24l-2.94,18.18A58.94,58.94,0,0,1,385.15,333c-1.93,11.21-1.92,10.54-2.61,14.06,0,0-3.8-.21-8.94-.33s-7.36.71-7.36.71S365,330,365,320.94C365,310.63,365.93,270.84,366.88,261.36Z" style="fill:#455a64"></path><path d="M389.14,299.44c-1.64-6.55-3.88-17.13-3.88-17.13s-6.74.06-10.21-4.56c2,4.93,8.33,6.9,8.33,6.9l3.75,16-.93,17Z" style="fill:#37474f"></path><path d="M366.24,341.78c1.77,1.4,6.29.6,6.29.6l-4,17.15Z" style="fill:#F97F29"></path><path d="M366.24,341.78c1.77,1.4,6.29.6,6.29.6l-4,17.15Z" style="opacity:0.25"></path><path d="M349.74,375.58a3.27,3.27,0,0,0,.7,3.27c1.35,1.1,5.25,2.86,10.33,2.06s6.48-1.85,8.47-3.62,3.82-3.6,6.11-4.17c2.13-.53,5.36-1.48,6-2.16s.49-3.62.49-3.62Z" style="fill:#263238"></path><path d="M366.24,355.17a16.85,16.85,0,0,1-.51,5.22,5.6,5.6,0,0,1-1.78,2.46,25,25,0,0,1-4,3.2c-1.3.87-4.65,2.95-5.74,3.5-5.75,2.85-5.51,5-4.19,7.23,1.06,1.8,5.52,3,9.45,2.88a15.71,15.71,0,0,0,9.32-3.71,21.15,21.15,0,0,1,6.14-4.11c2.2-.91,6.61-2,6.85-3.48a19.85,19.85,0,0,0-.54-6.56c-.37-1.32.09-3.93.15-4.76.39-5.29,1.71-10.78,2.65-16.75-1.31-.85-7.19-1.44-11.15-.05-1.84.65-1.45,1.6-2,4.19-.7,3.43-1.12,7.22-2.2,12.76-.42-1.8-1.24-12.64-1.63-15.19a3.27,3.27,0,0,0-.51-1.51,1.1,1.1,0,0,0-1.42-.35s.36,3.86.54,5.64C366,347.93,366.25,352.45,366.24,355.17Z" style="fill:#F97F29"></path><path d="M365.39,374.73c-1-2.61-6.56-5.7-10.44-5.57l-.71.39c-5.75,2.85-5.51,5-4.19,7.23,1.06,1.8,5.52,3,9.45,2.88a15,15,0,0,0,6-1.56A5.19,5.19,0,0,0,365.39,374.73Z" style="opacity:0.25"></path><path d="M405.07,347.38c5.1.08,10.44-3,10.44-3l1.34,25.79Z" style="fill:#F97F29"></path><path d="M405.07,347.38c5.1.08,10.44-3,10.44-3l1.34,25.79Z" style="opacity:0.25"></path><path d="M411.58,380c.64,3.37,1.49,5.56,3,7.41a5.7,5.7,0,0,0,6.36,1.82c2.38-.84,5.42-3.14,5.75-6.14a17.62,17.62,0,0,0-1-8.07Z" style="fill:#263238"></path><path d="M409,365.36a46.21,46.21,0,0,1,1.7,10.74c.36,4.59,1.17,7.1,4,10.07,3.49,3.66,9.22.32,10.59-2.63s1.52-4.51.3-9c-1.07-3.95-2.17-5.33-3.42-10.15-1.94-7.54-2.17-15.7-3-23.43a11.52,11.52,0,0,0-3,.81A3.86,3.86,0,0,0,414,344a5.76,5.76,0,0,0-.16,1.94,213.46,213.46,0,0,0,2.32,21.39c-2.25-6-5.33-13.48-7.17-17.33a5.63,5.63,0,0,0-2.64-3.09c-1.63-.92-4.73-.56-5.67-.36C400.69,346.51,406.92,358.33,409,365.36Z" style="fill:#F97F29"></path><path d="M426.27,377.55c-4.16-1.63-12.59,1.23-14,5.27a13.85,13.85,0,0,0,2.46,3.35c3.49,3.66,9.22.32,10.59-2.63A9,9,0,0,0,426.27,377.55Z" style="opacity:0.25"></path></g><g id="freepik--Top--inject-17"><path d="M415.76,215a12.08,12.08,0,0,0-.4-4.67,6.87,6.87,0,0,0-2.73-4.15,9.64,9.64,0,0,1,5.78,4.66,9.88,9.88,0,0,0-4.39-8.42,17.39,17.39,0,0,0-9.37-2.82c-3-.12-6,.22-9-.18s-5.79-1.59-8.6-2.41l-12.82-3.69c-2.45,2.86-7.19,2.58-9.88,5.22-2,2-3.25,5.09-1.61,7.38-.2-1.95,3-3.34,4.83-2.65a9.88,9.88,0,0,0-4.65,7.1,7.85,7.85,0,0,0,3.59,7.5c2.17,1.26,4.84,1.25,7.34,1-.16,2.49,1.51,4.8,3.59,6.18A11.09,11.09,0,0,0,385,226.7a7.44,7.44,0,0,0,3.11-1.16c.24-.16,2.5-2.23,2.46-2.26,1.76,1.19,4.18,2.29,6.33,2.06a8.5,8.5,0,0,0,3.24-1,23.91,23.91,0,0,0,2.34-2,9.81,9.81,0,0,0,8.76-.17,9.14,9.14,0,0,0,4.09-5.19A10.22,10.22,0,0,0,415.76,215Z" style="fill:#263238"></path><path d="M325.14,240.49c-1.94.18-4.25-1.21-6.66-2.19s-5.85-2.73-6.47-1.07,1.46,2.57,2.76,3.75.6,1.77-1.38,1.28c-4.15-1-6.29-2.82-8.52-1.21-2.91,2.11-1.27,7.16,2.49,9.43,5.44,3.3,11,2.78,18.33,2.17Z" style="fill:#F97F29"></path><path d="M325.14,240.49c-1.94.18-4.25-1.21-6.66-2.19s-5.85-2.73-6.47-1.07,1.46,2.57,2.76,3.75.6,1.77-1.38,1.28c-4.15-1-6.29-2.82-8.52-1.21-2.91,2.11-1.27,7.16,2.49,9.43,5.44,3.3,11,2.78,18.33,2.17Z" style="fill:#fff;opacity:0.4"></path><path d="M372.38,215.4c7.21,6.09,4.17,15.4-2.54,22.79s-14.07,12.1-18.61,13.84-25.73,1.47-25.73,1.47l-1.16-13.89,22-2.94s7-7.13,11.36-11.41S365.66,215.78,372.38,215.4Z" style="fill:#F97F29"></path><path d="M372.38,215.4c7.21,6.09,4.17,15.4-2.54,22.79s-14.07,12.1-18.61,13.84-25.73,1.47-25.73,1.47l-1.16-13.89,22-2.94s7-7.13,11.36-11.41S365.66,215.78,372.38,215.4Z" style="opacity:0.4"></path><path d="M351.23,252a34.63,34.63,0,0,0,5-2.51c-2.94-3.7-9.73-1.38-10.16,3.41A22.27,22.27,0,0,0,351.23,252Z" style="fill:#fff"></path><path d="M361.76,288.48c.27-10.29,1.05-37.63,2.83-54.64,1.32-12.55,5.12-16,7.79-18.44,0,0,7.88-2.14,9.91-2.12,2.29,0,13.64-.27,13.64-.27,6.23,1.06,9.55,1.31,13.68,3.51,0,0,2,5.2,1.87,9.27-.05,2,1.2,13.4,1.25,18.11.07,6.91,2.39,40,2.53,44.58C403.9,293.38,385.8,293,385.8,293l-3.7-15.37-2.54,14.18S369.42,292.05,361.76,288.48Z" style="fill:#F97F29"></path><path d="M361.76,288.48c.27-10.29,1.05-37.63,2.83-54.64,1.32-12.55,5.12-16,7.79-18.44,0,0,7.88-2.14,9.91-2.12,2.29,0,13.64-.27,13.64-.27,6.23,1.06,9.55,1.31,13.68,3.51,0,0,2,5.2,1.87,9.27-.05,2,1.2,13.4,1.25,18.11.07,6.91,2.39,40,2.53,44.58C403.9,293.38,385.8,293,385.8,293l-3.7-15.37-2.54,14.18S369.42,292.05,361.76,288.48Z" style="opacity:0.15"></path><path d="M385.92,273.89c-1.35-.18-2.7-.3-4.06-.37-.71,0-1.42-.07-2.13-.07a10.72,10.72,0,0,0-1.88.06c-.77.15-.23,1,.34,1.09s1.39.08,2.07.12,1.37.06,2.05.11c1.24.07,2.47.16,3.7.27S386.8,274,385.92,273.89Z" style="fill:#fafafa"></path><circle cx="386.73" cy="274.49" r="1.75" style="fill:#fafafa"></circle><path d="M379.22,274a1.76,1.76,0,1,1-1.75-1.76A1.75,1.75,0,0,1,379.22,274Z" style="fill:#fafafa"></path><path d="M386.45,260c-1.35-.17-2.71-.3-4.07-.37-.71,0-1.42-.07-2.13-.07a10.72,10.72,0,0,0-1.88.06c-.77.15-.23,1,.34,1.09s1.39.08,2.07.12l2.05.11c1.24.07,2.47.17,3.7.28S387.32,260.14,386.45,260Z" style="fill:#fafafa"></path><path d="M389,260.62a1.75,1.75,0,1,1-1.75-1.75A1.75,1.75,0,0,1,389,260.62Z" style="fill:#fafafa"></path><path d="M379.74,260.13a1.75,1.75,0,1,1-1.75-1.75A1.75,1.75,0,0,1,379.74,260.13Z" style="fill:#fafafa"></path><path d="M387.2,245.19c-1.35-.18-2.7-.3-4.07-.38q-1.06-.06-2.13-.06a9.7,9.7,0,0,0-1.87.06c-.78.14-.24,1,.33,1.09s1.39.07,2.08.11l2,.11c1.24.07,2.47.17,3.7.28S388.07,245.3,387.2,245.19Z" style="fill:#fafafa"></path><path d="M389.76,245.79A1.76,1.76,0,1,1,388,244,1.76,1.76,0,0,1,389.76,245.79Z" style="fill:#fafafa"></path><circle cx="378.74" cy="245.29" r="1.75" style="fill:#fafafa"></circle><path d="M395.77,271.23s9.69-.71,15-2.49c.5,8.51,1.65,17.22-1.38,18a67.13,67.13,0,0,1-10,1.73C395.19,288.87,396,282.2,395.77,271.23Z" style="fill:#F97F29"></path><path d="M395.77,271.23s9.69-.71,15-2.49c.5,8.51,1.65,17.22-1.38,18a67.13,67.13,0,0,1-10,1.73C395.19,288.87,396,282.2,395.77,271.23Z" style="opacity:0.25"></path><path d="M368.85,261.77c-1.75.87-4.4.42-7,.38s-6.44-.41-6.41,1.36,2.3,1.86,3.93,2.49,1.21,1.43-.82,1.69c-4.24.55-6.87-.34-8.37,2-1.94,3,1.43,7.13,5.75,7.88,6.27,1.09,11.23-1.4,17.86-4.66Z" style="fill:#F97F29"></path><path d="M368.85,261.77c-1.75.87-4.4.42-7,.38s-6.44-.41-6.41,1.36,2.3,1.86,3.93,2.49,1.21,1.43-.82,1.69c-4.24.55-6.87-.34-8.37,2-1.94,3,1.43,7.13,5.75,7.88,6.27,1.09,11.23-1.4,17.86-4.66Z" style="fill:#fff;opacity:0.4"></path><path d="M409.61,216.52c8.93,3,9.49,12.83,5.93,22.15s-9.94,20.82-13.53,24.1-28.1,11-28.1,11l-6.12-12.51,23.44-12.52s6.19-12.74,8.85-18.23C402.64,225.19,406,218.37,409.61,216.52Z" style="fill:#F97F29"></path><path d="M409.61,216.52c8.93,3,9.49,12.83,5.93,22.15s-9.94,20.82-13.53,24.1-28.1,11-28.1,11l-6.12-12.51,23.44-12.52s6.19-12.74,8.85-18.23C402.64,225.19,406,218.37,409.61,216.52Z" style="opacity:0.4"></path><path d="M405.42,258.52c-3.92-1.8-8.68,2.74-8,6.78a20.48,20.48,0,0,0,4.59-2.53A25.72,25.72,0,0,0,405.42,258.52Z" style="fill:#fff"></path><path d="M376.67,222.67c-2.51-4.33-3.55-6.41-3.07-9.38s4.24-12.71,7.31-13.32,1.71,10.31,1.71,10.31l-.71,6.53Z" style="fill:#F97F29"></path><path d="M376.67,222.67c-2.51-4.33-3.55-6.41-3.07-9.38s4.24-12.71,7.31-13.32,1.71,10.31,1.71,10.31l-.71,6.53Z" style="fill:#fff;opacity:0.30000000000000004"></path><path d="M375.07,194.4a7.78,7.78,0,0,1-.49-1.53c-.12-.53-.55-2.57-.09-3a3.42,3.42,0,0,1-3.11.57,2.76,2.76,0,0,1-1.39-.71,2.61,2.61,0,0,1-.34-3.18,1.12,1.12,0,0,0,2,.63,1.6,1.6,0,0,0,.2-1.43,2.92,2.92,0,0,1,1.26-2.95l.21-.63c7-14.91,23-10.48,26.51-8.65a18.51,18.51,0,0,1,8.57,9.54c2.22,6.5,0,15.93-2.77,19.3-1.59,2-5.92,4.2-6.91,6.17-.2.38-9.09-1.34-12.6-3.5a43.92,43.92,0,0,1-5.54-4.27,28.12,28.12,0,0,1-4.82-5A7.3,7.3,0,0,1,375.07,194.4Z" style="fill:#263238"></path><path d="M373.11,191.08c-.33,2-.72,2.73-1.14,5.93a12.43,12.43,0,0,0,1.51,8.29c1.63,2.62,4.95,4.35,8.33,4.88.26,0,.54.08.81.12l-.51,4.65c-2.7,2.16,13.7,5.55,15.46,1.52l2.21-14.75s.75,1.76,3.67,1.2c1.93-.37,3.86-3.21,3.17-5.85a3,3,0,0,0-3.21-2.39c-2.24.11-2.52,3-4,2.47s-1.44-3.42-1.38-4.76c.24-5.16-.85-8.82-3.21-10.63a8.76,8.76,0,0,0-10.41.07c-2.33-4.74-8.42-4.25-10.21,1.75C373.26,186.84,373.49,188.8,373.11,191.08Z" style="fill:#ffa8a7"></path><path d="M393.1,197.53c-.12.88-1.25,1.46-2.52,1.28s-2.2-1-2.08-1.92,1.25-1.46,2.53-1.28S393.23,196.64,393.1,197.53Z" style="fill:#f28f8f"></path><path d="M375.79,194c-.13.89-1.26,1.46-2.53,1.29s-2.2-1-2.08-1.92,1.26-1.46,2.53-1.29S375.91,193.08,375.79,194Z" style="fill:#f28f8f"></path><path d="M382.62,210.28a28.44,28.44,0,0,0,10.22-1.92,10.68,10.68,0,0,0,4.15-2.81,9.53,9.53,0,0,1-2.65,3.92c-4,3.26-12,3.17-12,3.17Z" style="fill:#f28f8f"></path><path d="M373.21,183.69c-.29,1.39,0,2.93-.75,4.17a7.34,7.34,0,0,0,7.85-3.41,2.87,2.87,0,0,1-1.06,3.26,7.64,7.64,0,0,0,8.24-1.25,1.75,1.75,0,0,1-.28,1.43,7.16,7.16,0,0,1-1,1.13.25.25,0,0,0-.09.19c0,.06.07.09.12.13a9.31,9.31,0,0,0,8.39.94,3.71,3.71,0,0,0,2.25-1.91c.52-1.35.6-5.2-.41-6.2-2.35-2.33-6.39-3.8-9.62-4.49a28.16,28.16,0,0,0-4.81-.56,8.56,8.56,0,0,0-4.64,1.23,9.42,9.42,0,0,0-2.79,2.14A8,8,0,0,0,373.21,183.69Z" style="fill:#263238"></path><path d="M396.63,195.78a12.52,12.52,0,0,0-2,3.7c-.3,1.26-.16,2.8.9,3.55a3.79,3.79,0,0,1,1.61-4.13c.74-.57,2.23-1.28,3-1.77s.88-1.52,1.06-2.33c.23-1-.95-2.06-1.58-2.72s-1-1.05-1.51-1.57a13.35,13.35,0,0,1-1.23,4.81C396.81,195.48,396.72,195.63,396.63,195.78Z" style="fill:#263238"></path><path d="M387.28,193.26a1.65,1.65,0,1,0,1.94-1.37A1.68,1.68,0,0,0,387.28,193.26Z" style="fill:#263238"></path><path d="M392.28,190.75l-2.88-1.68a1.67,1.67,0,0,1,2.88,1.68Z" style="fill:#263238"></path><path d="M378.85,186.38l-3.29.81a1.69,1.69,0,0,1,3.29-.81Z" style="fill:#263238"></path><path d="M387.63,200.4l-5.31.9a2.65,2.65,0,0,0,3.05,2.29A2.82,2.82,0,0,0,387.63,200.4Z" style="fill:#b16668"></path><path d="M387.4,202a2.28,2.28,0,0,0-.85-.39,2.17,2.17,0,0,0-2.5,1.77s0,.05,0,.07a2.48,2.48,0,0,0,1.33.14A2.76,2.76,0,0,0,387.4,202Z" style="fill:#f28f8f"></path><path d="M375.28,190.89a1.64,1.64,0,1,0,1.94-1.37A1.67,1.67,0,0,0,375.28,190.89Z" style="fill:#263238"></path><polygon points="383.95 188.98 382.02 198.16 377.74 196.58 383.95 188.98" style="fill:#f28f8f"></polygon><path d="M410.91,188.76a35.07,35.07,0,0,1-4.6,13.67c-4.46-16.25-20.07-21.73-33.26-20.65,2.75-10,11.76-14.47,20.83-13.48C405,169.52,412.13,177.6,410.91,188.76Z" style="fill:#F97F29"></path><path d="M410.91,188.76a35.07,35.07,0,0,1-4.6,13.67c-4.46-16.25-20.07-21.73-33.26-20.65,2.75-10,11.76-14.47,20.83-13.48C405,169.52,412.13,177.6,410.91,188.76Z" style="fill:#fff;opacity:0.4"></path><path d="M404.29,179.47a.34.34,0,0,0,0-.1c0-.12,0-.23,0-.34a.41.41,0,0,1,0-.11c0-.12-.1-.31-.25-.31s-.24.16-.28.29-.06.19-.08.28a.69.69,0,0,0,0,.13.5.5,0,0,0,0,.12v0h0v0c0,.17-.1.35-.15.52a.89.89,0,0,0,0,.43.57.57,0,0,0,.21.3.29.29,0,0,0,.3,0,.49.49,0,0,0,.17-.25s0,0,0-.05a1,1,0,0,0,0-.17c0-.2.06-.39.08-.59A1.62,1.62,0,0,0,404.29,179.47Z" style="fill:#fafafa"></path><path d="M404.49,177c0-.13,0-.26,0-.39s0-.24-.07-.36a2.16,2.16,0,0,0-.17-.34.14.14,0,0,0-.19,0,.35.35,0,0,0-.12.25c0,.13,0,.25,0,.37a2.29,2.29,0,0,1,0,.25v.34h0v0a.48.48,0,0,0,0,.12c0,.16.07.4.26.43s.3-.16.32-.32A2.17,2.17,0,0,0,404.49,177Z" style="fill:#fafafa"></path><path d="M404.18,174.16l-.09-.42a3.46,3.46,0,0,0-.3-.75c-.06-.1-.15-.15-.25-.06a.39.39,0,0,0-.12.37,6.06,6.06,0,0,1,.15.74c0,.2.08,1,.43.8a.44.44,0,0,0,.18-.33A.83.83,0,0,0,404.18,174.16Z" style="fill:#fafafa"></path><path d="M407.69,178.28c0-.08,0-.15,0-.23a3.77,3.77,0,0,0-.18-.57,4.77,4.77,0,0,0-.22-.52,2.09,2.09,0,0,0-.36-.47c-.06-.06-.16,0-.2.07a.36.36,0,0,0,0,.29c.05.17.08.34.13.51s.11.31.14.45c.09.31.13.67.24,1,0,.13.19.27.34.2a.48.48,0,0,0,.22-.43.81.81,0,0,0,0-.16A.59.59,0,0,1,407.69,178.28Z" style="fill:#fafafa"></path><path d="M408.37,181.71l0-.27c0-.15-.07-.3-.11-.44a1.47,1.47,0,0,0-.13-.37.2.2,0,0,0-.15-.09c-.05,0-.09.05-.11.09a.19.19,0,0,0,0,.1s0,.09,0,.09,0,.22,0,.26l0,.13a2.74,2.74,0,0,1,.05.28v.07s0,.1,0,0a.57.57,0,0,1,0,.13,2,2,0,0,0,0,.34c0,.08.08.2.19.17a.32.32,0,0,0,.19-.26A.76.76,0,0,0,408.37,181.71Z" style="fill:#fafafa"></path><path d="M401.12,171.4c0-.08,0-.19-.12-.15a2,2,0,0,0-.22.08.82.82,0,0,0-.18.19,3.08,3.08,0,0,0-.24.27l-.12.2a.67.67,0,0,0-.12.36,1.48,1.48,0,0,0,0,.21.44.44,0,0,0,.11.24.2.2,0,0,0,.16.06.15.15,0,0,0,.1,0l0,0,.06,0a.41.41,0,0,0,.13-.1,1.83,1.83,0,0,0,.13-.24,2.44,2.44,0,0,0,.14-.28A1.43,1.43,0,0,1,401,172a1.27,1.27,0,0,0,.06-.18,1.57,1.57,0,0,0,.05-.3A.28.28,0,0,1,401.12,171.4Z" style="fill:#fafafa"></path><path d="M408.47,186.27c0-.05,0-.09,0-.13s0-.33,0-.49,0-.33,0-.49,0-.17,0-.25a1,1,0,0,0-.06-.39.15.15,0,0,0-.15-.11c-.07,0-.12.06-.16.12l-.07.08a.6.6,0,0,0-.07.27,2,2,0,0,1,0,.24c0,.19,0,.38-.08.57l-.07.5a1.48,1.48,0,0,0,0,.42c0,.15.11.37.3.34a.31.31,0,0,0,.21-.19l0-.1q0-.24,0,0A1.12,1.12,0,0,0,408.47,186.27Z" style="fill:#fafafa"></path><path d="M399.82,173.81a.12.12,0,0,0-.11-.09l-.06,0s0,0,0,0h0a.26.26,0,0,0-.13.08,2.15,2.15,0,0,0-.18.24l-.21.32a4.07,4.07,0,0,0-.4.81.56.56,0,0,0,0,.49c.09.11.2,0,.27,0s0,.08,0,.06l.06-.06a.83.83,0,0,0,.07-.13l.09-.19c.06-.13.13-.24.19-.37l.15-.36a4,4,0,0,0,.22-.47A.81.81,0,0,0,399.82,173.81Z" style="fill:#fafafa"></path><path d="M398.17,176.9s-.06,0-.09,0,0,0,0,0l-.1.05-.11.12a1.13,1.13,0,0,0-.13.2c0,.11-.11.22-.16.32l-.09.15,0,0a.43.43,0,0,1,0,.07l-.21.31a.54.54,0,0,0,0,.56.24.24,0,0,0,.18.13.21.21,0,0,0,.19-.11,5.89,5.89,0,0,0,.47-.85l.09-.2a1.51,1.51,0,0,0,.1-.38A.5.5,0,0,0,398.17,176.9Z" style="fill:#fafafa"></path><path d="M392.9,172.86a.22.22,0,0,0-.18,0l-.11.06-.22.15a3.16,3.16,0,0,0-.44.38,4,4,0,0,0-.34.38l-.21.26a1.07,1.07,0,0,0-.14.35c0,.07,0,.16.1.13a.53.53,0,0,0,.12,0l.11-.1.17-.19.18-.16L392,174s.05,0,.07-.06.27-.19.4-.3l.2-.15.09-.07a.48.48,0,0,0,.19-.23C393,173.12,393,172.88,392.9,172.86Z" style="fill:#fafafa"></path><path d="M396,171.12a.62.62,0,0,0-.27,0l-.21.09-.47.22-.38.2a2.35,2.35,0,0,0-.41.36s-.09.23,0,.22a2.15,2.15,0,0,0,.44-.09l.43-.15.43-.13.22-.06a.7.7,0,0,0,.24-.17C396.1,171.51,396.16,171.17,396,171.12Z" style="fill:#fafafa"></path><path d="M399.61,170.71a.19.19,0,0,0-.12-.14.05.05,0,0,1-.08,0,.27.27,0,0,0-.09,0l-.27,0-.53.08a2.36,2.36,0,0,0-.54.12,2,2,0,0,0-.25.14.88.88,0,0,0-.21.18s0,.08,0,.11a.39.39,0,0,0,.11.06h.13a1.14,1.14,0,0,0,.32,0,4.78,4.78,0,0,1,.53-.06,4.89,4.89,0,0,1,.54,0,.65.65,0,0,0,.31-.05A.37.37,0,0,0,399.61,170.71Z" style="fill:#fafafa"></path><path d="M386,171.58h0s0,0,0,0,0,0,0,0a.17.17,0,0,0-.15-.06,1,1,0,0,0-.29.09l-.31.13-.54.29a4.3,4.3,0,0,0-.51.36,2.18,2.18,0,0,0-.22.21.76.76,0,0,0-.23.3c0,.07,0,.2.06.23s.18-.06.26-.12l.24-.14c.17-.11.34-.22.51-.31s.34-.16.51-.23l.28-.1a1.28,1.28,0,0,0,.31-.11A.41.41,0,0,0,386,171.58Z" style="fill:#fafafa"></path><path d="M390.83,170.09s-.08-.1-.15-.11a.86.86,0,0,0-.16,0l-.26,0a5.3,5.3,0,0,0-.55.1,4.68,4.68,0,0,0-1.08.46.2.2,0,0,0-.11.18c0,.06,0,.11.1.09.37-.09.74-.13,1.11-.2l.52-.07.27,0a.3.3,0,0,0,.16,0,1,1,0,0,0,.14-.15A.27.27,0,0,0,390.83,170.09Z" style="fill:#fafafa"></path><path d="M395.93,169.87c.05-.3-.69-.33-.86-.34l-.65,0a10.26,10.26,0,0,0-1.35.12c-.22,0-.28.55,0,.53a9.4,9.4,0,0,1,1.3,0c.44,0,.86.14,1.3.18.1,0,.17-.08.22-.16h0a.35.35,0,0,0,.06-.14A.43.43,0,0,0,395.93,169.87Z" style="fill:#fafafa"></path><path d="M409.47,187.54c-.79.1-1.37.77-2.15.86.09-1.13.14-2.25.13-3.39a3.67,3.67,0,0,0-.51-2.32c-1.17-1.49-3.15-.51-4.4.31-.71-1.43,0-3.4-1.28-4.59a1.68,1.68,0,0,0-1.83-.25,4.83,4.83,0,0,0-1.06.66c-.41.3-1.07,1-1.52.42-.83-1.11,0-4.16-2-4.31a5.21,5.21,0,0,0-2.71.6,6.7,6.7,0,0,0-1.18.78c-.18.14-.35.3-.52.46s-.12.18-.22.06a.54.54,0,0,1-.09-.27l-.29-1.78c0-.19-.06-.37-.1-.56a2,2,0,0,0-.62-1.18,1.77,1.77,0,0,0-1.09-.47,4,4,0,0,0-2.33.67c-.85.5-1.68,1-2.52,1.57-.07,0-.36.28-.44.22a.14.14,0,0,1-.05-.08,25.07,25.07,0,0,0-.51-2.61,1.81,1.81,0,0,0-1.15-1c-.09,0-.41-.15-.5-.09l-.52.35a3.2,3.2,0,0,1,.69,0c.51.08,1.11.36,1.2.92.14.83.24,1.68.31,2.52a1,1,0,0,0,.1.39c.19.32.48.07.7-.06l.91-.57c.6-.38,1.21-.76,1.82-1.12.86-.52,2-1,3-.5a1.71,1.71,0,0,1,.8,1.34c.11.73.15,1.48.23,2.22a1.07,1.07,0,0,0,.27.72.25.25,0,0,0,.14.06.29.29,0,0,0,.13-.08,8.09,8.09,0,0,1,2.15-1.57,4.71,4.71,0,0,1,2.65-.5c1,.26.92,2.08,1.08,2.89.1.49.29,1.53.85,1.73s1.32-.66,1.7-.93c.7-.5,1.61-1,2.36-.29a3.52,3.52,0,0,1,.77,2.58,4.36,4.36,0,0,0,.5,2c0,.06.12.12.19.08,1.11-.75,3.3-2,4.28-.34a5.41,5.41,0,0,1,.28,2.77c0,.9-.07,1.79-.15,2.68a.23.23,0,0,0,.2.26,3.37,3.37,0,0,0,1.65-.62,1.47,1.47,0,0,1,2.08.52c0-.18,0-.36,0-.54A1.69,1.69,0,0,0,409.47,187.54Z" style="fill:#fafafa"></path><path d="M373.15,182.8c-.74.06-.69-.52-.41-2.11s.32-2.95,1.7-3.59,13.91-1.07,21.95,4.23c10.61,7,12.64,14.68,12.76,16.58s-2.17,4.61-2.85,4.81c-.19.06-.48-.11-.63-.36a1.69,1.69,0,0,0,.16-1c-.08-.88-.69-2.17-1.85-4.38-1.87-3.56-3-5.66-10.24-10.43-6-3.93-16.47-5.24-19.42-4.36A3.61,3.61,0,0,0,373.15,182.8Z" style="fill:#F97F29"></path><path d="M384,238.36a11.41,11.41,0,0,0-.42-1.49,5,5,0,0,0-.72-1.4.18.18,0,0,0-.27,0,.49.49,0,0,0-.09.39c.13.48.28.94.42,1.42a9.92,9.92,0,0,1,.25,1.23c0,.22.27.58.54.51S384.08,238.61,384,238.36Z" style="fill:#fff"></path><path d="M385.91,237.62a3.06,3.06,0,0,0-.05-.32,5.11,5.11,0,0,0-.23-.76,2.91,2.91,0,0,0-.91-1.3.23.23,0,0,0-.36.09.57.57,0,0,0,0,.54c.11.17.11.21.22.38h0l.06.1.07.14.06.13,0,.06c0,.09.07.18.1.27l.05.12s.06.17,0,.06c0,.09,0,.2.06.29a.77.77,0,0,1,0,.15v0h0s0,.09,0,.14a1.2,1.2,0,0,0,.08.42.54.54,0,0,0,.37.36.35.35,0,0,0,.37-.23A1.27,1.27,0,0,0,385.91,237.62Z" style="fill:#fff"></path><path d="M387.76,237.22a3,3,0,0,0-.09-.41,4.68,4.68,0,0,0-.29-.87,7.89,7.89,0,0,0-.44-.81c-.06-.1-.13-.2-.19-.31a1.72,1.72,0,0,0-.36-.6c-.1-.07-.24,0-.27.12a.49.49,0,0,0-.09.28,2.17,2.17,0,0,0,0,.36,1.57,1.57,0,0,0,.11.35,2.2,2.2,0,0,0,.15.31c.1.21.21.42.3.64a3.62,3.62,0,0,1,.13.35.75.75,0,0,1,0,.16l0,.08c.08.29.11.59.2.88a.5.5,0,0,0,.43.35.39.39,0,0,0,.35-.36.75.75,0,0,0,0-.21A1.65,1.65,0,0,0,387.76,237.22Z" style="fill:#fff"></path><path d="M389.89,235.77a4.63,4.63,0,0,0-.33-.83,9.82,9.82,0,0,0-.78-1.29c-.06-.09-.16-.07-.23,0a.41.41,0,0,0-.09.32,8.43,8.43,0,0,0,.54,1.53,2.49,2.49,0,0,1,.11.29c0,.05,0,.11.05.16a.19.19,0,0,0,0,.08,1.17,1.17,0,0,1,0,.32c0-.08,0-.09,0,0a1.34,1.34,0,0,0,0,.2l0,.15c0,.18.12.43.33.48s.34-.13.39-.3A2,2,0,0,0,389.89,235.77Z" style="fill:#fff"></path><path d="M391.79,236.18a6,6,0,0,0-.37-1.38,3.86,3.86,0,0,0-.79-1.41c-.06-.06-.17,0-.21.06a.42.42,0,0,0-.07.31,6.44,6.44,0,0,0,.18.85c.06.21.12.42.17.63.08.37.16.75.26,1.12a.74.74,0,0,0,.21.4.41.41,0,0,0,.33.11C391.81,236.79,391.83,236.44,391.79,236.18Z" style="fill:#fff"></path><path d="M393.64,235.4c-.05-.05-.06-.1,0-.14s-.1-.26-.15-.38c-.14-.35-.28-.7-.41-1-.21-.51-.44-1-.66-1.51-.06-.14-.19-.28-.35-.16a.53.53,0,0,0-.13.54c.19.56.37,1.13.58,1.69l.33.89c.09.24.27.95.65.7a.48.48,0,0,0,.17-.32A.76.76,0,0,0,393.64,235.4Z" style="fill:#fff"></path><path d="M394.87,234.53c-.06-.2-.05-.2,0,0l0-.21v0c0-.15-.1-.29-.15-.43a5.25,5.25,0,0,0-.22-.55c-.12-.24-.24-.48-.37-.71a3.64,3.64,0,0,0-.46-.63.21.21,0,0,0-.33.05.59.59,0,0,0-.07.5c.05.14.09.28.14.42l.07.16c0,.06,0,.06,0,0a1.67,1.67,0,0,1,.08.2c.08.19.15.39.23.59l0,.08c0-.05,0-.05,0,0s.07.19.1.28,0,.08,0,.11c-.07-.19,0,0,0,0a2.12,2.12,0,0,0,.29.65.37.37,0,0,0,.35.17.42.42,0,0,0,.3-.34A.76.76,0,0,0,394.87,234.53Z" style="fill:#fff"></path><path d="M396.29,233.62l-.12-.36-.24-.64a15.21,15.21,0,0,0-.68-1.41.17.17,0,0,0-.28-.06.45.45,0,0,0-.11.43,11.59,11.59,0,0,0,.4,1.51c.07.19.14.38.22.57a1.64,1.64,0,0,0,.4.76.25.25,0,0,0,.37-.08A.86.86,0,0,0,396.29,233.62Z" style="fill:#fff"></path><path d="M379.4,230.72c.62,1.46,1.68,5.09,2.62,5.94S393,233.22,395.5,232s-2.12-10.54-2.12-10.54S379.23,224.21,379.4,230.72Z" style="fill:#F97F29"></path><path d="M379.4,230.72c.62,1.46,1.68,5.09,2.62,5.94S393,233.22,395.5,232s-2.12-10.54-2.12-10.54S379.23,224.21,379.4,230.72Z" style="fill:#fff;opacity:0.30000000000000004"></path><path d="M399.22,205.43c-3.29,4.46-16.82,5.27-21,12.62a10.49,10.49,0,0,0,1.19,12.67s5.39-5.64,13.17-6.32,13-3.13,13.36-5.51.49-9.42-1.88-12.57a6.51,6.51,0,0,0-4.53-2.86Z" style="fill:#F97F29"></path><path d="M399.22,205.43c-3.29,4.46-16.82,5.27-21,12.62a10.49,10.49,0,0,0,1.19,12.67s5.39-5.64,13.17-6.32,13-3.13,13.36-5.51.49-9.42-1.88-12.57a6.51,6.51,0,0,0-4.53-2.86Z" style="fill:#fff;opacity:0.5"></path></g></g></g><g id="freepik--character-1--inject-17"><g id="freepik--character--inject-17"><g id="freepik--bottom--inject-17"><path d="M208.47,203.8c-3.26,22.16-1.72,36.83-2.91,51.14s-3.85,35-4,45.92c-.25,19.77-1.43,40.75-1.43,40.75s12.17,4.58,19.34,2.41c0,0,6.82-35.08,8.95-46.52,3-16.3,8.9-53.82,8.9-53.82l5.82,42.72s-.87,5.63.23,17.88c.64,7.23,4.33,29.4,4.33,29.4s12.72,5.22,19.19-.64c0,0,1.94-42.21,2.47-48.84.75-9.38-3.11-94.34-2.51-100.52C264.39,184.12,264.78,184.4,208.47,203.8Z" style="fill:#F97F29"></path><path d="M208.47,203.8c-3.26,22.16-1.72,36.83-2.91,51.14s-3.85,35-4,45.92c-.25,19.77-1.43,40.75-1.43,40.75s12.17,4.58,19.34,2.41c0,0,6.82-35.08,8.95-46.52,3-16.3,8.9-53.82,8.9-53.82l5.82,42.72s-.87,5.63.23,17.88c.64,7.23,4.33,29.4,4.33,29.4s12.72,5.22,19.19-.64c0,0,1.94-42.21,2.47-48.84.75-9.38-3.11-94.34-2.51-100.52C264.39,184.12,264.78,184.4,208.47,203.8Z" style="fill:#fff;opacity:0.4"></path><path d="M219.07,227.51a14.87,14.87,0,0,1-10,5.22,4.34,4.34,0,0,1-2.26-.36s6.31.43,11.71-7.21c2.43-3.44,2.87-12.39,2.87-12.39l2.18.81S222.55,223.67,219.07,227.51Z" style="fill:#F97F29;opacity:0.30000000000000004"></path><path d="M219.07,227.51a14.87,14.87,0,0,1-10,5.22,4.34,4.34,0,0,1-2.26-.36s6.31.43,11.71-7.21c2.43-3.44,2.87-12.39,2.87-12.39l2.18.81S222.55,223.67,219.07,227.51Z" style="opacity:0.1"></path><path d="M237.34,243.68l2.84-16.39s11.19-2.89,16.07-10.22c-3.26,9.14-13.64,13-13.64,13L238.72,246l4.44,40.41Z" style="fill:#F97F29;opacity:0.30000000000000004"></path><path d="M237.34,243.68l2.84-16.39s11.19-2.89,16.07-10.22c-3.26,9.14-13.64,13-13.64,13L238.72,246l4.44,40.41Z" style="opacity:0.1"></path><path d="M291.48,375.83c.28,0,.57,3-1,4.16-1.83,1.36-7.12,3.48-13.93,2.3s-10.42-3.37-13.06-5.69-6.34-5.58-9.41-6.38c-2.85-.75-5.92-2.14-6.8-3s-.59-4.64-.59-4.64Z"></path><path d="M271.14,358.33c-.42-.44-.83-.89-1.22-1.35a6.47,6.47,0,0,1-1.92-4.5c-.2-3.5-.24-6-.14-9.43.16-5.81.2-11.84.4-17.64,0-1,.05-2.09-.89-2.28l-.08,1.62c-1.07,1-5.78,2.36-12.06,2.32-5.06,0-7.74-1.35-9-2.85l-.23-1.5c-.86,0-.76,1.16-.62,3,.27,3.51,2.21,14.12,2.84,24.95.12,2.11-.54,3-.9,4.38a29.38,29.38,0,0,0-.86,5.43,13.57,13.57,0,0,0,0,2.55,2.78,2.78,0,0,0,1,1.81,9.91,9.91,0,0,0,2.82,1.94c1.44.67,2.92,1.22,4.38,1.83a38.84,38.84,0,0,1,9.45,6.31c3.1,2.68,9.75,5.55,14.21,5.83,6.81.43,11.71-1.51,13.17-3.77.23-1.58.43-3.21-.23-4.39-2.15-3.83-7.38-5.35-11.49-7.65a47.5,47.5,0,0,1-5.15-3.49A27.22,27.22,0,0,1,271.14,358.33Z" style="fill:#455a64"></path><path d="M282.25,366.21c-8.49,1.84-11.74,7.28-13.27,11.75a27.62,27.62,0,0,0,9.3,2.77c6.81.43,11.71-1.51,13.17-3.77.23-1.58.43-3.21-.23-4.39C289.49,369.5,285.78,367.91,282.25,366.21Z" style="fill:#37474f"></path><path d="M254.62,368.59l.35.16c.08-6.48-2.3-10.86-8.05-12.09a29.92,29.92,0,0,0-.5,3.8,13.57,13.57,0,0,0,0,2.55,2.78,2.78,0,0,0,1,1.81,9.91,9.91,0,0,0,2.82,1.94C251.68,367.43,253.16,368,254.62,368.59Z" style="fill:#37474f"></path><path d="M217,382.7l-7.07-17s-11.68,1.69-11.77,4.31c-.1,2.78-2.05,5-2.67,7.78-.79,4.39-1,7.17,0,11.26s4.94,6.49,8.84,7.74c3.27,1.06,7.47.29,9.38-2.46C216.09,390.88,216.68,387.44,217,382.7Z"></path><path d="M222.66,327.67l-.41,2.1s-1.47,2.09-10.51,1.38c-9.25-.72-10.93-3.39-10.93-3.39l.08-1.89s-1.14-.73-1.18,2.71c0,3.07.4,13.83.49,20.14a53.51,53.51,0,0,1-.55,10.31,50.05,50.05,0,0,1-1.74,7.7,59.43,59.43,0,0,0-2.53,11.62c-.09.61-.16,1.19-.22,1.72l0,.06c-.23,4,0,6.68,2,9.72,2.56,3.87,12.29,7.7,16.69,2.18,2.18-2.75,2.76-6,3-9.33a29.46,29.46,0,0,0-.23-5c-.21-3.53-.18-7.07-.12-10.6a62.89,62.89,0,0,1,.5-7.75A90.09,90.09,0,0,1,219.48,347c1.68-6.75,3.56-14.84,3.82-16.29C223.77,328.14,222.66,327.67,222.66,327.67Z" style="fill:#455a64"></path><path d="M195.18,380.13c-.23,4,0,6.68,2,9.72,2.56,3.87,12.29,7.7,16.69,2.18,2.18-2.75,2.76-6,3-9.33C214.28,378.43,199.35,376.51,195.18,380.13Z" style="fill:#37474f"></path></g><g id="freepik--top--inject-17"><path d="M334,139.56c3-.59,8.28-6.81,11.7-9.25s8.21-6.41,9.54-4.31-1.58,4.3-3.25,6.54-.49,2.8,2.41,1.24c6-3.27,8.84-6.74,12.62-5.39,4.94,1.76,3.69,9.69-1.45,14.55-7.45,7.05-16,8.69-27.29,11C334.26,150.26,333,145.39,334,139.56Z" style="fill:#F97F29"></path><path d="M262.47,123.07c-1.52,5.87.4,18.6,5.57,31.63,11.74,5.34,20.8,9.43,28.48,12.27,3.57,1.33,5.86,1.73,8.9.69,10.94-3.72,34.79-13.5,34.79-13.5-3-1.86-6.5-12.77-5.31-15.42l-32,8.47s-15.39-10.16-22.54-14.93C271.93,126.69,267.7,124.22,262.47,123.07Z" style="fill:#263238"></path><path d="M207.68,203.19s-.83,5.11-.53,5.9,11.6,7.11,33.69,6.31,26.66-4.34,27-4.93,0-6,0-6Z" style="fill:#263238"></path><g id="freepik--Chest--inject-17"><path d="M209.37,124.58a53.45,53.45,0,0,0-3.2,8.09c-.72,2.32-2.49,4.43.14,17.32,1.6,7.87,2.78,12.53,3.39,22l-3.42,28.38a3.27,3.27,0,0,0,2,3.43c11.38,4.53,41,8.34,58.94,1.59a4.78,4.78,0,0,0,3.29-3.84c.22-7.8-1.73-40.21-2.33-53.14-.46-10.1-4.33-20.59-5.75-25.37-4.68-1-9.2-1.7-9.2-1.7L236,119.73C226.26,121.33,216,121.91,209.37,124.58Z" style="fill:#37474f"></path></g><path d="M249.47,112.17c3.66,1.07,5.82,1.69,8.31,9s1,25.9,1,25.9l-9.75-24Z" style="fill:#F97F29"></path><path d="M249.47,112.17c3.66,1.07,5.82,1.69,8.31,9s1,25.9,1,25.9l-9.75-24Z" style="opacity:0.4"></path><path d="M258.77,147.08c-.42,8.86-.19,14.24.61,18.47.51,2.65-17,4.19-17.82.56s-.39-23.41,3.62-31.42Z" style="fill:#F97F29"></path><path d="M258.77,147.08c-.42,8.86-.19,14.24.61,18.47.51,2.65-17,4.19-17.82.56s-.39-23.41,3.62-31.42Z" style="opacity:0.4"></path><g id="freepik--Head--inject-17"><path d="M260.34,87.32c1.87-5.39-.9-12.14-3.87-15.17-4.29-4.4-10.81-7.43-21.23-4.76-6.82,1.75-12,4.51-13.39,11.36-4.47.39-7.23,7.27-2.57,16.74,3.88,7.88,10.27,13.84,10.69,18.07Z"></path><path d="M261.84,106.8c-.8,4.09-2.88,7.2-6.54,8.06a31.33,31.33,0,0,1-5.83.49l-.36,6.77c8.29,8.81-9.06,14.53-20.05,1.5l.69-17.68a5.68,5.68,0,0,1-6.65.46,8.18,8.18,0,0,1-3.3-9.77c1.54-4,5.37-2.71,6.61-1.62s2.71,3.44,3.72,3.43A2.44,2.44,0,0,0,232.21,96a20.24,20.24,0,0,0-.66-4.88,11.53,11.53,0,0,0,3.17-3.53c1.3-2.52,1-3.53.92-5.46,4.8-4,18.62-6.26,22.14-4,2.17,3.22,3.25,11.73,3.91,16.21A36.93,36.93,0,0,1,261.84,106.8Z" style="fill:#ffa8a7"></path><path d="M239.1,97.71c.15,1.07,1.51,1.75,3,1.54s2.64-1.24,2.5-2.3-1.51-1.75-3-1.54S239,96.65,239.1,97.71Z" style="fill:#f28f8f"></path><path d="M257.47,93.63c.15,1.07,1.51,1.75,3,1.54s2.65-1.24,2.5-2.3-1.5-1.75-3-1.54S257.33,92.57,257.47,93.63Z" style="fill:#f28f8f"></path><path d="M249.47,115.34c-4.11.09-12.48-1.18-14.85-3.3s-3.66-6.71-3.66-6.71.78,5.88,2.68,8.35,6.26,3.27,8.91,3.72,6.78.63,6.78.63Z" style="fill:#f28f8f"></path><path d="M245.65,93.12a1.66,1.66,0,1,1-1.79-1.59A1.68,1.68,0,0,1,245.65,93.12Z" style="fill:#263238"></path><path d="M242.92,87.79l-3.17,2.51a2.13,2.13,0,0,1,.34-2.92A2,2,0,0,1,242.92,87.79Z" style="fill:#263238"></path><path d="M258,87.15l-3.81-1.47a2,2,0,0,1,2.58-1.21A2.14,2.14,0,0,1,258,87.15Z" style="fill:#263238"></path><path d="M257.82,90.84A1.66,1.66,0,1,1,256,89.26,1.69,1.69,0,0,1,257.82,90.84Z" style="fill:#263238"></path><polygon points="249.73 89.7 252.12 101.27 258.11 97.89 249.73 89.7" style="fill:#f28f8f"></polygon><path d="M246.57,104.34l7,.64a3.45,3.45,0,0,1-3.73,3.29A3.68,3.68,0,0,1,246.57,104.34Z" style="fill:#b16668"></path><path d="M249.84,108.27a3.09,3.09,0,0,0,.43,0,3.19,3.19,0,0,0-3.56-2.68A3.64,3.64,0,0,0,249.84,108.27Z" style="fill:#f28f8f"></path></g><path d="M238.51,66.44c-.56.19-1.13.41-1.72.67l-.6.28-.74.38c-9.2,4.88-11.75,15.26-9.93,21.66l-1.6.42-3.93,1c-2.05-8.47-.05-17.67,10.24-23.59a22.13,22.13,0,0,1,7-2.7,20.35,20.35,0,0,1,4.12-.35l1.15,1.1" style="fill:#37474f"></path><path d="M246.88,66.8a20,20,0,0,0-3.37-.39c-1.34-.62-3.36-.73-6.37.55a16.75,16.75,0,0,0-1.69.8c-9.19,4.89-11.76,15.27-9.93,21.67l-1.52.78c-1.79-7.37-.51-15.27,6.59-21.1a27,27,0,0,1,3.64-2.5C241,62.74,244.62,64.25,246.88,66.8Z" style="fill:#263238"></path><path d="M216.63,92.06a2.62,2.62,0,0,0,.84,2.54,2.39,2.39,0,0,0-1.8,2.37c-.21,1.46,1,3.65,2.44,3.53a4.79,4.79,0,0,0-.39,4.53,3.17,3.17,0,0,0,4,1.57,2.67,2.67,0,0,0,1.69,2.05,5.73,5.73,0,0,0,2.73.3,5.12,5.12,0,0,0,2.11-.55,2.3,2.3,0,0,0,1.21-1.72,3.87,3.87,0,0,0,3.46-5.72,3.34,3.34,0,0,0-1.58-6.24,2.76,2.76,0,0,0-3.48-3.83,2.87,2.87,0,0,0-2.38-2.9A3.53,3.53,0,0,0,222,89.71a3.32,3.32,0,0,0-2.32-.49A3.71,3.71,0,0,0,216.63,92.06Z" style="fill:#F97F29"></path><path d="M216.63,92.06a2.62,2.62,0,0,0,.84,2.54,2.39,2.39,0,0,0-1.8,2.37c-.21,1.46,1,3.65,2.44,3.53a4.79,4.79,0,0,0-.39,4.53,3.17,3.17,0,0,0,4,1.57,2.67,2.67,0,0,0,1.69,2.05,5.73,5.73,0,0,0,2.73.3,5.12,5.12,0,0,0,2.11-.55,2.3,2.3,0,0,0,1.21-1.72,3.87,3.87,0,0,0,3.46-5.72,3.34,3.34,0,0,0-1.58-6.24,2.76,2.76,0,0,0-3.48-3.83,2.87,2.87,0,0,0-2.38-2.9A3.53,3.53,0,0,0,222,89.71a3.32,3.32,0,0,0-2.32-.49A3.71,3.71,0,0,0,216.63,92.06Z" style="opacity:0.2"></path><path d="M231.33,94.72a2.82,2.82,0,0,0-.41-3.12,2.6,2.6,0,0,0-.77-.58,3.55,3.55,0,0,1,.28,1.35,4.78,4.78,0,0,1-1.89,3.86,1.9,1.9,0,0,1,2.13,1.5,1.56,1.56,0,0,1-1.78,1.7,2.32,2.32,0,0,1,1.19,2.68,1.89,1.89,0,0,1-2.58,1.07,2.18,2.18,0,0,1-.74,2.57,2.36,2.36,0,0,1-2.71-.09,2.62,2.62,0,0,1-.92-2.58A3,3,0,0,1,221,105a3.36,3.36,0,0,1-3.34-.68,2.6,2.6,0,0,1-.26-.32,3.59,3.59,0,0,0,.34,1,3.17,3.17,0,0,0,4,1.57,2.67,2.67,0,0,0,1.69,2.05,5.73,5.73,0,0,0,2.73.3,5.12,5.12,0,0,0,2.11-.55,2.3,2.3,0,0,0,1.21-1.72,3.87,3.87,0,0,0,3.46-5.72,3.34,3.34,0,0,0-1.58-6.24Z" style="opacity:0.15"></path><path d="M229.58,110.11l-.1,2.71a47.79,47.79,0,0,0,12.86,6.47c8.28,2.88,12.73,4.6,14.7,13.89a82.12,82.12,0,0,1,1.73,13.9,39.36,39.36,0,0,0-14.38-7.59c-7.4-2-17.33-5.51-21.88-10.06s-4.45-7.12-4.45-7.12,2.3-3.1,4.29-6.21S226.2,109.15,229.58,110.11Z" style="fill:#F97F29"></path><path d="M229.58,110.11l-.1,2.71a47.79,47.79,0,0,0,12.86,6.47c8.28,2.88,12.73,4.6,14.7,13.89a82.12,82.12,0,0,1,1.73,13.9,39.36,39.36,0,0,0-14.38-7.59c-7.4-2-17.33-5.51-21.88-10.06s-4.45-7.12-4.45-7.12,2.3-3.1,4.29-6.21S226.2,109.15,229.58,110.11Z" style="opacity:0.2"></path><path d="M269,186.15c2.84,1.13,10.64-1.27,14.84-1.47s10.37-1,10.36,1.51-3.65,2.77-6.27,3.76-1.91,2.09,1.36,2.33c6.85.51,11.08-.9,13.54,2.28,3.21,4.15-2.12,10.14-9.07,11.47-10.07,1.92-18.13-1.29-28.9-5.47C263.37,195.29,265,190.52,269,186.15Z" style="fill:#F97F29"></path><path d="M209.37,124.58C196.91,129.23,196.52,143,201.9,156s14.84,28.93,20,33.41,44.34,12.35,44.34,12.35c-1.51-3.19,1.41-14.26,3.84-15.85L235,171.35s-9.83-19.9-13.79-27.53C217.36,136.47,214.59,127,209.37,124.58Z" style="fill:#263238"></path></g></g></g><g id="freepik--Snow--inject-17"><g id="freepik--snow--inject-17"><path d="M447.11,180.2A1.19,1.19,0,0,0,446,181h-3.22l4-4.83a.36.36,0,0,0,0-.52.37.37,0,0,0-.52,0l-4,4.76v-4.68a1.19,1.19,0,0,0,.82-1.12,1.2,1.2,0,1,0-2.39,0,1.19,1.19,0,0,0,.82,1.12v4.68l-4-4.76a.37.37,0,0,0-.52,0,.37.37,0,0,0-.05.52L441,181h-3.22a1.19,1.19,0,1,0-1.13,1.56,1.2,1.2,0,0,0,1.13-.82h3.39l-4.22,5a.37.37,0,0,0,.05.52.38.38,0,0,0,.24.09.37.37,0,0,0,.28-.14l4-4.75V187a1.2,1.2,0,1,0,.75,0v-4.47l4,4.75a.35.35,0,0,0,.28.14.38.38,0,0,0,.24-.09.36.36,0,0,0,0-.52l-4.21-5H446a1.2,1.2,0,0,0,1.13.82,1.19,1.19,0,0,0,0-2.38Z" style="fill:#e0e0e0"></path><path d="M474.57,266.72a1.17,1.17,0,0,0-1.12.82h-3.23l4-4.83a.37.37,0,0,0-.57-.47l-4,4.75v-4.67a1.19,1.19,0,1,0-.74,0V267l-4-4.75a.37.37,0,1,0-.57.47l4,4.83h-3.23a1.17,1.17,0,0,0-1.12-.82,1.19,1.19,0,1,0,0,2.38,1.17,1.17,0,0,0,1.12-.82h3.4l-4.22,5a.37.37,0,0,0,0,.52.36.36,0,0,0,.24.09.39.39,0,0,0,.28-.13l4-4.76v4.47a1.19,1.19,0,1,0,.74,0V269l4,4.76a.39.39,0,0,0,.29.13.33.33,0,0,0,.23-.09.37.37,0,0,0,0-.52l-4.22-5h3.4a1.17,1.17,0,0,0,1.12.82,1.19,1.19,0,1,0,0-2.38Z" style="fill:#e0e0e0"></path><path d="M355.92,174.55a1.19,1.19,0,0,0-1.13.82h-3.23l4.05-4.83a.38.38,0,0,0,0-.52.38.38,0,0,0-.53,0l-4,4.75v-4.67a1.19,1.19,0,0,0-.38-2.32,1.19,1.19,0,0,0-1.19,1.19,1.2,1.2,0,0,0,.82,1.13v4.67l-4-4.75a.37.37,0,1,0-.57.47l4.05,4.83h-3.22a1.19,1.19,0,1,0,0,.74H350l-4.22,5a.37.37,0,0,0,.05.52.36.36,0,0,0,.24.09.39.39,0,0,0,.28-.13l4-4.76v4.47a1.2,1.2,0,0,0-.82,1.13,1.2,1.2,0,0,0,2.39,0,1.2,1.2,0,0,0-.82-1.13v-4.47l4,4.76a.41.41,0,0,0,.29.13.37.37,0,0,0,.28-.61l-4.22-5h3.4a1.19,1.19,0,1,0,1.13-1.56Z" style="fill:#e0e0e0"></path><path d="M292.66,104.11a1.19,1.19,0,0,0-1.12.82h-3.23l4.05-4.82a.38.38,0,0,0-.05-.53.37.37,0,0,0-.52,0l-4,4.75V99.71a1.19,1.19,0,1,0-.74,0v4.67l-4-4.75a.37.37,0,0,0-.52,0,.38.38,0,0,0-.05.53l4.05,4.82h-3.23a1.19,1.19,0,1,0-1.12,1.56,1.17,1.17,0,0,0,1.12-.82h3.4l-4.22,5a.37.37,0,0,0,.05.52.33.33,0,0,0,.23.09.36.36,0,0,0,.29-.13l4-4.76v4.48a1.16,1.16,0,0,0-.82,1.12,1.19,1.19,0,1,0,2.38,0,1.17,1.17,0,0,0-.82-1.12v-4.48l4,4.76a.35.35,0,0,0,.28.13.36.36,0,0,0,.24-.09.37.37,0,0,0,.05-.52l-4.22-5h3.4a1.17,1.17,0,0,0,1.12.82,1.19,1.19,0,1,0,0-2.38Z" style="fill:#e0e0e0"></path><path d="M44.37,266.48a1.19,1.19,0,0,0-1.13.82H40l4-4.83a.37.37,0,0,0-.57-.47l-4,4.75v-4.67a1.2,1.2,0,1,0-.75,0v4.67l-4-4.75a.37.37,0,0,0-.52-.05.36.36,0,0,0,0,.52l4,4.83H35a1.19,1.19,0,1,0,0,.74h3.39l-4.21,5a.36.36,0,0,0,0,.52.38.38,0,0,0,.24.09.37.37,0,0,0,.28-.13l4-4.76v4.47a1.2,1.2,0,1,0,.75,0v-4.47l4,4.76a.37.37,0,0,0,.28.13.38.38,0,0,0,.24-.09.37.37,0,0,0,0-.52l-4.22-5h3.39a1.19,1.19,0,1,0,1.13-1.56Z" style="fill:#e0e0e0"></path><path d="M39.05,33.75a1.19,1.19,0,0,0-1.12.82H34.7l4-4.82a.37.37,0,0,0,0-.52.36.36,0,0,0-.52,0l-4,4.76V29.35a1.19,1.19,0,1,0-.74,0V34l-4-4.76a.36.36,0,0,0-.52,0,.37.37,0,0,0-.05.52l4,4.82H29.71a1.19,1.19,0,0,0-1.12-.82,1.2,1.2,0,1,0,0,2.39,1.19,1.19,0,0,0,1.12-.82h3.4l-4.22,5a.38.38,0,0,0,.05.53.4.4,0,0,0,.23.08.36.36,0,0,0,.29-.13l4-4.75v4.47a1.19,1.19,0,1,0,.74,0V36.07l4,4.75a.36.36,0,0,0,.29.13.4.4,0,0,0,.23-.08.38.38,0,0,0,0-.53l-4.22-5h3.4a1.19,1.19,0,0,0,1.12.82,1.2,1.2,0,1,0,0-2.39Z" style="fill:#e0e0e0"></path><path d="M343.43,65.73a1.2,1.2,0,0,0-1.13.82h-3.23l4.05-4.82a.37.37,0,0,0,0-.52.37.37,0,0,0-.53,0l-4,4.76V61.33a1.17,1.17,0,0,0,.82-1.12,1.19,1.19,0,1,0-1.56,1.12V66l-4-4.76a.36.36,0,0,0-.52,0,.37.37,0,0,0-.05.52l4.05,4.82h-3.22a1.2,1.2,0,1,0,0,.75h3.39l-4.22,5a.38.38,0,0,0,.05.53.35.35,0,0,0,.24.08.35.35,0,0,0,.28-.13l4-4.75v4.47a1.19,1.19,0,1,0,1.56,1.13,1.19,1.19,0,0,0-.82-1.13V68.05l4,4.75a.37.37,0,0,0,.29.13.37.37,0,0,0,.24-.08.39.39,0,0,0,0-.53l-4.22-5h3.4a1.19,1.19,0,1,0,1.13-1.57Z" style="fill:#e0e0e0"></path><path d="M446.51,48.37a1.2,1.2,0,0,0-1.13.82h-3.22l4-4.82a.37.37,0,0,0,0-.52.36.36,0,0,0-.52,0l-4,4.76V44a1.2,1.2,0,1,0-.74,0v4.68l-4-4.76a.37.37,0,0,0-.53,0,.37.37,0,0,0,0,.52l4,4.82h-3.23a1.2,1.2,0,1,0,0,.75h3.4l-4.22,5a.39.39,0,0,0,0,.53.43.43,0,0,0,.24.08.37.37,0,0,0,.29-.13l4-4.75v4.47a1.19,1.19,0,0,0-.83,1.13,1.2,1.2,0,1,0,1.57-1.13V50.69l4,4.75a.35.35,0,0,0,.28.13.41.41,0,0,0,.24-.08.38.38,0,0,0,0-.53l-4.22-5h3.39a1.19,1.19,0,1,0,1.13-1.57Z" style="fill:#e0e0e0"></path><path d="M190.19,169.78a1.19,1.19,0,0,0-1.13.82h-3.23l4-4.83a.37.37,0,0,0,0-.52.39.39,0,0,0-.53,0l-4,4.76v-4.67a1.19,1.19,0,1,0-.74,0v4.67l-4-4.76a.37.37,0,0,0-.52,0,.37.37,0,0,0,0,.52l4,4.83h-3.22a1.19,1.19,0,1,0,0,.74h3.39l-4.22,5a.37.37,0,0,0,0,.52.36.36,0,0,0,.24.09.37.37,0,0,0,.28-.14l4-4.75v4.47a1.2,1.2,0,0,0-.82,1.13,1.2,1.2,0,1,0,1.56-1.13v-4.47l4,4.75a.38.38,0,0,0,.29.14.37.37,0,0,0,.28-.61l-4.22-5h3.4a1.19,1.19,0,1,0,1.13-1.56Z" style="fill:#e0e0e0"></path><path d="M202.05,67.13a1.19,1.19,0,0,0-1.13.83h-3.23l4.05-4.83a.37.37,0,0,0,0-.52.39.39,0,0,0-.53,0l-4,4.76V62.73a1.17,1.17,0,0,0,.82-1.12,1.19,1.19,0,1,0-2.38,0,1.17,1.17,0,0,0,.82,1.12v4.68l-4-4.76a.37.37,0,0,0-.57.48L195.93,68H192.7a1.17,1.17,0,0,0-1.12-.83,1.2,1.2,0,0,0,0,2.39,1.18,1.18,0,0,0,1.12-.82h3.4l-4.22,5a.37.37,0,0,0,.05.52.36.36,0,0,0,.24.09.37.37,0,0,0,.28-.14l4-4.75v4.47a1.19,1.19,0,1,0,.74,0V69.45l4,4.75a.38.38,0,0,0,.29.14.37.37,0,0,0,.28-.61l-4.22-5h3.4a1.19,1.19,0,0,0,2.32-.37A1.2,1.2,0,0,0,202.05,67.13Z" style="fill:#e0e0e0"></path><circle cx="281.09" cy="55.68" r="1.4" style="fill:#e0e0e0"></circle><path d="M175.48,113.36a1.4,1.4,0,0,1,2.79,0,1.4,1.4,0,1,1-2.79,0Z" style="fill:#e0e0e0"></path><path d="M84.16,25.64A1.4,1.4,0,1,1,85.55,27,1.4,1.4,0,0,1,84.16,25.64Z" style="fill:#e0e0e0"></path><path d="M69.86,53.34a1.4,1.4,0,1,1,1.4,1.39A1.4,1.4,0,0,1,69.86,53.34Z" style="fill:#e0e0e0"></path><circle cx="320.44" cy="205.78" r="1.4" style="fill:#e0e0e0"></circle><path d="M329.83,108.67a1.4,1.4,0,1,1,1.4,1.4A1.4,1.4,0,0,1,329.83,108.67Z" style="fill:#e0e0e0"></path><path d="M206.32,20.5a1.4,1.4,0,0,1,2.79,0,1.4,1.4,0,1,1-2.79,0Z" style="fill:#e0e0e0"></path><circle cx="27.97" cy="128.38" r="1.4" style="fill:#e0e0e0"></circle><path d="M53.62,88.51a1.4,1.4,0,0,1,2.79,0,1.4,1.4,0,1,1-2.79,0Z" style="fill:#e0e0e0"></path><path d="M28.62,64.33a1.4,1.4,0,0,1,2.79,0,1.4,1.4,0,1,1-2.79,0Z" style="fill:#e0e0e0"></path><circle cx="156.56" cy="81.48" r="1.4" style="fill:#e0e0e0"></circle><circle cx="387.32" cy="37.1" r="1.4" style="fill:#e0e0e0"></circle><path d="M484.19,136.82a1.4,1.4,0,1,1,1.4,1.39A1.4,1.4,0,0,1,484.19,136.82Z" style="fill:#e0e0e0"></path><path d="M467.36,24.24a1.4,1.4,0,1,1,1.4,1.4A1.39,1.39,0,0,1,467.36,24.24Z" style="fill:#e0e0e0"></path><circle cx="457.15" cy="100.24" r="1.4" style="fill:#e0e0e0"></circle><circle cx="480.46" cy="71.48" r="1.4" style="fill:#e0e0e0"></circle><path d="M318.81,26.21a1.4,1.4,0,1,1,1.39,1.4A1.39,1.39,0,0,1,318.81,26.21Z" style="fill:#e0e0e0"></path><path d="M148.44,36.92a1.4,1.4,0,1,1,1.39,1.4A1.4,1.4,0,0,1,148.44,36.92Z" style="fill:#e0e0e0"></path><path d="M384.76,89.64a1.4,1.4,0,1,1,1.4,1.39A1.4,1.4,0,0,1,384.76,89.64Z" style="fill:#e0e0e0"></path><circle cx="396.22" cy="140.11" r="1.4" style="fill:#e0e0e0"></circle><circle cx="439.51" cy="142.45" r="1.4" style="fill:#e0e0e0"></circle><path d="M404.75,178.06a1.4,1.4,0,0,1,2.79,0,1.4,1.4,0,1,1-2.79,0Z" style="fill:#e0e0e0"></path><circle cx="469.34" cy="212.81" r="1.4" style="fill:#e0e0e0"></circle><circle cx="435.45" cy="235.98" r="1.4" style="fill:#e0e0e0"></circle><path d="M91.16,290.28a1.4,1.4,0,1,1,1.4,1.39A1.4,1.4,0,0,1,91.16,290.28Z" style="fill:#e0e0e0"></path></g></g></svg>